<?xml version="1.0" encoding="UTF-8"?>
<svg xmlns="http://www.w3.org/2000/svg" width="912" height="588" viewBox="0 0 912 588" fill="none">
  <g clip-path="url(#clip0_708_1136)">
    <rect width="912" height="588" fill="#FF6170"></rect>
    <g opacity="0.3">
      <path d="M304.604 4.66612L250.795 -102.964C249.433 -105.679 245.557 -105.679 244.205 -102.964L190.396 4.6661C189.167 7.11397 190.948 9.99999 193.691 9.99999L301.309 10C304.052 10 305.833 7.11399 304.604 4.66612Z" fill="#FAA0B4"></path>
    </g>
    <g opacity="0.3">
      <path d="M380.396 359.334L434.205 466.964C435.567 469.679 439.443 469.679 440.795 466.964L494.604 359.334C495.833 356.886 494.052 354 491.309 354L383.691 354C380.948 354 379.167 356.886 380.396 359.334Z" fill="#FAA0B4"></path>
    </g>
    <g opacity="0.3">
      <path d="M760.396 359.334L814.205 466.964C815.567 469.679 819.443 469.679 820.795 466.964L874.604 359.334C875.833 356.886 874.052 354 871.309 354L763.691 354C760.948 354 759.167 356.886 760.396 359.334Z" fill="#FAA0B4"></path>
    </g>
    <g opacity="0.3">
      <path d="M380.396 488.334L434.205 595.964C435.567 598.679 439.443 598.679 440.795 595.964L494.604 488.334C495.833 485.886 494.052 483 491.309 483L383.691 483C380.948 483 379.167 485.886 380.396 488.334Z" fill="#FAA0B4"></path>
    </g>
    <g opacity="0.3">
      <path d="M760.396 488.334L814.205 595.964C815.567 598.679 819.443 598.679 820.795 595.964L874.604 488.334C875.833 485.886 874.052 483 871.309 483L763.691 483C760.948 483 759.167 485.886 760.396 488.334Z" fill="#FAA0B4"></path>
    </g>
    <g opacity="0.3">
      <path d="M304.604 392.666L250.795 285.036C249.433 282.321 245.557 282.321 244.205 285.036L190.396 392.666C189.167 395.114 190.948 398 193.691 398L301.309 398C304.052 398 305.833 395.114 304.604 392.666Z" fill="#FAA0B4"></path>
    </g>
    <g opacity="0.3">
      <path d="M380.396 -28.6661L434.205 78.9641C435.567 81.6786 439.443 81.6786 440.795 78.9641L494.604 -28.6661C495.833 -31.114 494.052 -34 491.309 -34L383.691 -34C380.948 -34 379.167 -31.114 380.396 -28.6661Z" fill="#FAA0B4"></path>
    </g>
    <g opacity="0.3">
      <path d="M760.396 -28.6661L814.205 78.9641C815.567 81.6786 819.443 81.6786 820.795 78.9641L874.604 -28.6661C875.833 -31.114 874.052 -34 871.309 -34L763.691 -34C760.948 -34 759.167 -31.114 760.396 -28.6661Z" fill="#FAA0B4"></path>
    </g>
    <path d="M570.396 517.959L624.205 625.589C625.567 628.304 629.443 628.304 630.795 625.589L684.604 517.959C685.833 515.511 684.052 512.625 681.309 512.625L573.691 512.625C570.948 512.625 569.167 515.511 570.396 517.959Z" fill="#FAA0B4"></path>
    <path d="M684.604 76.0411L630.795 -31.5891C629.433 -34.3036 625.557 -34.3036 624.205 -31.5891L570.396 76.0411C569.167 78.489 570.948 81.375 573.691 81.375L681.309 81.375C684.052 81.375 685.833 78.489 684.604 76.0411Z" fill="#FAA0B4"></path>
    <g opacity="0.3">
      <path d="M304.604 134.041L250.795 26.4109C249.433 23.6964 245.557 23.6964 244.205 26.4109L190.396 134.041C189.167 136.489 190.948 139.375 193.691 139.375L301.309 139.375C304.052 139.375 305.833 136.489 304.604 134.041Z" fill="#FAA0B4"></path>
    </g>
    <g opacity="0.3">
      <path d="M380.396 229.959L434.205 337.589C435.567 340.304 439.443 340.304 440.795 337.589L494.604 229.959C495.833 227.511 494.052 224.625 491.309 224.625L383.691 224.625C380.948 224.625 379.167 227.511 380.396 229.959Z" fill="#FAA0B4"></path>
    </g>
    <g opacity="0.3">
      <path d="M760.396 229.959L814.205 337.589C815.567 340.304 819.443 340.304 820.795 337.589L874.604 229.959C875.833 227.511 874.052 224.625 871.309 224.625L763.691 224.625C760.948 224.625 759.167 227.511 760.396 229.959Z" fill="#FAA0B4"></path>
    </g>
    <g opacity="0.3">
      <path d="M304.604 522.041L250.795 414.411C249.433 411.696 245.557 411.696 244.205 414.411L190.396 522.041C189.167 524.489 190.948 527.375 193.691 527.375L301.309 527.375C304.052 527.375 305.833 524.489 304.604 522.041Z" fill="#FAA0B4"></path>
    </g>
    <g opacity="0.3">
      <path d="M304.604 263.666L250.795 156.036C249.433 153.321 245.557 153.321 244.205 156.036L190.396 263.666C189.167 266.114 190.948 269 193.691 269L301.309 269C304.052 269 305.833 266.114 304.604 263.666Z" fill="#FAA0B4"></path>
    </g>
    <g opacity="0.3">
      <path d="M380.396 100.334L434.205 207.964C435.567 210.679 439.443 210.679 440.795 207.964L494.604 100.334C495.833 97.886 494.052 95 491.309 95L383.691 95C380.948 95 379.167 97.886 380.396 100.334Z" fill="#FAA0B4"></path>
    </g>
    <g opacity="0.3">
      <path d="M760.396 100.334L814.205 207.964C815.567 210.679 819.443 210.679 820.795 207.964L874.604 100.334C875.833 97.886 874.052 95 871.309 95L763.691 95C760.948 95 759.167 97.886 760.396 100.334Z" fill="#FAA0B4"></path>
    </g>
    <g opacity="0.3">
      <path d="M304.604 651.666L250.795 544.036C249.433 541.321 245.557 541.321 244.205 544.036L190.396 651.666C189.167 654.114 190.948 657 193.691 657L301.309 657C304.052 657 305.833 654.114 304.604 651.666Z" fill="#FAA0B4"></path>
    </g>
    <path d="M570.396 388.584L624.205 496.214C625.567 498.929 629.443 498.929 630.795 496.214L684.604 388.584C685.833 386.136 684.052 383.25 681.309 383.25L573.691 383.25C570.948 383.25 569.167 386.136 570.396 388.584Z" fill="#FAA0B4"></path>
    <path d="M684.604 205.416L630.795 97.7859C629.433 95.0714 625.557 95.0714 624.205 97.7859L570.396 205.416C569.167 207.864 570.948 210.75 573.691 210.75L681.309 210.75C684.052 210.75 685.833 207.864 684.604 205.416Z" fill="white"></path>
    <rect x="570" y="237.104" width="115" height="119.792" rx="57.5" fill="#A31C67"></rect>
  </g>
  <defs>
    <clipPath id="clip0_708_1136">
      <rect width="912" height="588" fill="white"></rect>
    </clipPath>
  </defs>
</svg>
