<?xml version="1.0" encoding="UTF-8"?>
<svg xmlns="http://www.w3.org/2000/svg" width="376" height="375" viewBox="0 0 376 375" fill="none">
  <g clip-path="url(#clip0)">
    <rect width="375" height="375" transform="translate(0.261719)" fill="#FF6170"></rect>
    <g clip-path="url(#clip1)">
      <path d="M-89 3.7255C-89 0.890714 -86.702 -1.40735 -83.8672 -1.40735H416.156C418.991 -1.40735 421.289 0.890697 421.289 3.72548V369.867C421.289 372.702 418.991 375 416.156 375H-83.8672C-86.702 375 -89 372.702 -89 369.867V3.7255Z" fill="#FF6170"></path>
      <path d="M421.289 270.633L-88.9995 270.633" stroke="#191919" stroke-width="0.855471" stroke-miterlimit="10"></path>
      <path d="M421.289 295.869L-88.9995 295.869" stroke="#191919" stroke-width="0.855471" stroke-miterlimit="10"></path>
      <path d="M421.289 244.969L-88.9995 244.969" stroke="#191919" stroke-width="0.855471" stroke-miterlimit="10"></path>
      <path d="M421.289 137.607L-88.9995 137.607" stroke="#191919" stroke-width="0.855471" stroke-miterlimit="10"></path>
      <path d="M398.618 -6.96791C398.618 12.1814 383.217 27.6787 364.186 27.6787C345.155 27.6787 329.753 12.1814 329.753 -6.96791C329.753 -26.1172 345.155 -41.6145 364.186 -41.6145C383.217 -41.6145 398.618 -26.1172 398.618 -6.96791Z" fill="#FAA0B4"></path>
      <path d="M192.878 383.983C192.878 403.132 177.476 418.629 158.445 418.629C139.414 418.629 124.013 403.132 124.013 383.983C124.013 364.833 139.414 349.336 158.445 349.336C177.476 349.336 192.878 364.833 192.878 383.983Z" fill="#FAA0B4"></path>
      <path d="M138.127 150.439C138.127 169.588 122.725 185.085 103.694 185.085C84.6634 185.085 69.2617 169.588 69.2617 150.439C69.2617 131.29 84.6634 115.792 103.694 115.792C122.725 115.792 138.127 131.29 138.127 150.439Z" fill="#FAA0B4"></path>
      <g clip-path="url(#clip2)">
        <path d="M421.411 35.9081L235.953 78.3125C233.76 78.8228 232.229 80.7619 232.229 83.0071V132.759C232.229 135.413 234.372 137.556 237.024 137.556L422.482 137.556C425.135 137.556 427.277 135.413 427.277 132.759V40.6027C427.277 37.541 424.421 35.2448 421.411 35.9081Z" fill="#A31C67"></path>
      </g>
      <g clip-path="url(#clip3)">
        <path d="M421.411 301.96L235.953 344.364C233.76 344.874 232.229 346.813 232.229 349.059V398.811C232.229 401.465 234.372 403.608 237.024 403.608H422.482C425.135 403.608 427.277 401.465 427.277 398.811V306.654C427.277 303.593 424.421 301.296 421.411 301.96Z" fill="#A31C67"></path>
      </g>
      <g clip-path="url(#clip4)">
        <path d="M29.788 168.934L215.246 211.338C217.44 211.849 218.97 213.788 218.97 216.033L218.97 265.785C218.97 268.439 216.827 270.582 214.175 270.582L28.7168 270.582C26.0645 270.582 23.9223 268.439 23.9223 265.785L23.9223 173.629C23.9223 170.567 26.7786 168.271 29.788 168.934Z" fill="#A31C67"></path>
      </g>
    </g>
  </g>
  <defs>
    <clipPath id="clip0">
      <rect width="375" height="375" fill="white" transform="translate(0.261719)"></rect>
    </clipPath>
    <clipPath id="clip1">
      <path d="M-89 3.7255C-89 0.890714 -86.702 -1.40735 -83.8672 -1.40735H416.156C418.991 -1.40735 421.289 0.890697 421.289 3.72548V369.867C421.289 372.702 418.991 375 416.156 375H-83.8672C-86.702 375 -89 372.702 -89 369.867V3.7255Z" fill="white"></path>
    </clipPath>
    <clipPath id="clip2">
      <rect width="195.047" height="101.801" fill="white" transform="translate(232.229 35.8057)"></rect>
    </clipPath>
    <clipPath id="clip3">
      <rect width="195.047" height="101.801" fill="white" transform="translate(232.229 301.857)"></rect>
    </clipPath>
    <clipPath id="clip4">
      <rect width="195.047" height="101.801" fill="white" transform="matrix(-1 -8.74228e-08 -8.74228e-08 1 218.97 168.832)"></rect>
    </clipPath>
  </defs>
</svg>
