<?xml version="1.0" encoding="UTF-8"?>
<svg xmlns="http://www.w3.org/2000/svg" width="376" height="375" viewBox="0 0 376 375" fill="none">
  <g clip-path="url(#clip0)">
    <path d="M449 5.00239C449 2.23966 446.76 0 443.998 0H-43.9976C-46.7604 0 -49 2.23964 -49 5.00238V391.998C-49 394.76 -46.7604 397 -43.9976 397H443.998C446.76 397 449 394.76 449 391.998V5.00239Z" fill="#D2B414"></path>
    <path fill-rule="evenodd" clip-rule="evenodd" d="M448.721 200.725H-48.6084V199.683H448.721V200.725Z" fill="black"></path>
    <path fill-rule="evenodd" clip-rule="evenodd" d="M448.721 225.737H-48.6084V224.695H448.721V225.737Z" fill="black"></path>
    <path fill-rule="evenodd" clip-rule="evenodd" d="M448.721 250.749H-48.6084V249.707H448.721V250.749Z" fill="black"></path>
    <path d="M77.5842 24.8702C77.5842 38.5881 66.4661 49.7404 52.714 49.7404C38.996 49.7404 27.8438 38.6223 27.8438 24.8702C27.8438 11.1522 38.9618 0 52.714 0C66.4661 0.0342094 77.5842 11.1522 77.5842 24.8702Z" fill="#F3DA6C"></path>
    <path d="M127.324 24.8702C127.324 38.5881 116.206 49.7404 102.454 49.7404C88.7362 49.7404 77.584 38.6223 77.584 24.8702C77.584 11.1522 88.702 0 102.454 0C116.206 0.0342094 127.324 11.1522 127.324 24.8702Z" fill="#F3DA6C"></path>
    <path d="M127.324 74.6105C127.324 88.3285 116.206 99.4807 102.454 99.4807C88.7362 99.4807 77.584 88.3627 77.584 74.6105C77.584 60.8926 88.702 49.7404 102.454 49.7404C116.206 49.7746 127.324 60.8926 127.324 74.6105Z" fill="#F3DA6C"></path>
    <path d="M177.065 24.8702C177.065 38.5881 165.947 49.7404 152.194 49.7404C138.476 49.7404 127.324 38.6223 127.324 24.8702C127.324 11.1522 138.442 0 152.194 0C165.947 0.0342094 177.065 11.1522 177.065 24.8702Z" fill="#F3DA6C"></path>
    <path d="M177.065 74.6105C177.065 88.3285 165.947 99.4807 152.194 99.4807C138.476 99.4807 127.324 88.3627 127.324 74.6105C127.324 60.8926 138.442 49.7404 152.194 49.7404C165.947 49.7746 177.065 60.8926 177.065 74.6105Z" fill="#F3DA6C"></path>
    <path d="M177.065 124.351C177.065 138.069 165.947 149.221 152.194 149.221C138.476 149.221 127.324 138.103 127.324 124.351C127.324 110.633 138.442 99.4808 152.194 99.4808C165.947 99.515 177.065 110.633 177.065 124.351Z" fill="#F3DA6C"></path>
    <path d="M349.74 281.87C349.74 295.588 338.622 306.74 324.87 306.74C311.152 306.74 300 295.622 300 281.87C300 268.152 311.118 257 324.87 257C338.622 257.034 349.74 268.152 349.74 281.87Z" fill="white"></path>
    <path d="M226.806 24.8702C226.806 38.5881 215.688 49.7404 201.936 49.7404C188.218 49.7404 177.065 38.6223 177.065 24.8702C177.065 11.1522 188.183 0 201.936 0C215.688 0.0342094 226.806 11.1522 226.806 24.8702Z" fill="#F3DA6C"></path>
    <path d="M226.806 74.6105C226.806 88.3285 215.688 99.4807 201.936 99.4807C188.218 99.4807 177.065 88.3627 177.065 74.6105C177.065 60.8926 188.183 49.7404 201.936 49.7404C215.688 49.7746 226.806 60.8926 226.806 74.6105Z" fill="#F3DA6C"></path>
    <path d="M276.545 24.8702C276.545 38.5881 265.427 49.7404 251.675 49.7404C237.957 49.7404 226.805 38.6223 226.805 24.8702C226.805 11.1522 237.923 0 251.675 0C265.427 0.0342094 276.545 11.1522 276.545 24.8702Z" fill="#F3DA6C"></path>
    <path d="M183.289 275.362L307.757 303.805L376.39 319.495V383H307.757H182.15C179.345 383 177.066 380.721 177.066 377.916V280.358C177.066 277.071 180.09 274.66 183.289 275.362Z" fill="#695F0F"></path>
    <path d="M121.1 275.362L-3.36746 303.805L-72 319.495V383H-3.36746H122.24C125.045 383 127.324 380.721 127.324 377.916V280.358C127.324 277.071 124.3 274.66 121.1 275.362Z" fill="#695F0F"></path>
  </g>
  <defs>
    <clipPath id="clip0">
      <rect width="375" height="375" fill="white" transform="translate(0.261719)"></rect>
    </clipPath>
  </defs>
</svg>
