<?xml version="1.0" encoding="UTF-8"?>
<svg xmlns="http://www.w3.org/2000/svg" width="912" height="746" viewBox="0 0 912 746" fill="none">
  <g clip-path="url(#clip0_711_1142)">
    <rect width="912" height="746" fill="#FF6170"></rect>
    <line x1="-121.936" y1="574.207" x2="739.271" y2="399.485" stroke="#191919" stroke-width="3.76629"></line>
    <rect x="829.824" y="401.331" width="181.485" height="181.485" rx="15.0651" transform="rotate(-180 829.824 401.331)" fill="#F3DA6C"></rect>
    <rect x="-109.215" y="-17.0976" width="1076.52" height="794.083" rx="5.4142" fill="#EBEBE6"></rect>
    <path d="M-1100 -18H1004.31C1016.27 -18 1025.96 -8.30392 1025.96 3.6568V792.242C1025.96 804.202 1016.27 813.898 1004.31 813.898H-1100V-18Z" fill="#FF6170"></path>
    <path d="M269.775 -17.0976V814.798" stroke="#191919" stroke-width="1.80473" stroke-miterlimit="10"></path>
    <path d="M337.15 -17.0976V814.798" stroke="#191919" stroke-width="1.80473" stroke-miterlimit="10"></path>
    <path d="M203 -17.0976V814.798" stroke="#191919" stroke-width="1.80473" stroke-miterlimit="10"></path>
    <path d="M404.529 -17.0976V814.798" stroke="#191919" stroke-width="1.80473" stroke-miterlimit="10"></path>
    <path d="M471.906 -17.0976V814.798" stroke="#191919" stroke-width="1.80473" stroke-miterlimit="10"></path>
    <path d="M736.303 230.602C736.303 269.254 705.224 300.535 666.821 300.535C628.418 300.535 597.339 269.254 597.339 230.602C597.339 191.95 628.418 160.669 666.821 160.669C705.224 160.669 736.303 191.95 736.303 230.602Z" fill="#A31C67"></path>
    <path d="M395.964 675.933C395.964 714.586 364.885 745.867 326.482 745.867C288.079 745.867 257 714.586 257 675.933C257 637.281 288.079 606 326.482 606C364.885 606 395.964 637.281 395.964 675.933Z" fill="#A31C67"></path>
    <path d="M202.964 675.933C202.964 714.586 171.885 745.867 133.482 745.867C95.0792 745.867 64 714.586 64 675.933C64 637.281 95.0792 606 133.482 606C171.885 606 202.964 637.281 202.964 675.933Z" fill="#A31C67"></path>
    <path d="M46.9644 675.933C46.9644 714.586 15.8852 745.867 -22.5178 745.867C-60.9208 745.867 -92 714.586 -92 675.933C-92 637.281 -60.9208 606 -22.5178 606C15.8852 606 46.9644 637.281 46.9644 675.933Z" fill="#A31C67"></path>
    <path d="M683.266 310.279L905.135 754.205C912.604 767.152 903.202 783.258 888.221 783.258L666.395 783.258L666.395 300.536C672.941 300.536 679.531 303.783 683.266 310.279Z" fill="#FAA0B4"></path>
    <path d="M427.611 754.205L649.437 310.235C653.215 303.783 659.805 300.536 666.352 300.536L666.352 783.302L444.526 783.302C429.5 783.302 420.142 767.108 427.611 754.205Z" fill="#FAA0B4"></path>
  </g>
  <defs>
    <clipPath id="clip0_711_1142">
      <rect width="912" height="746" fill="white"></rect>
    </clipPath>
  </defs>
</svg>
