<?xml version="1.0" encoding="UTF-8"?>
<svg xmlns="http://www.w3.org/2000/svg" width="1193" height="880" viewBox="0 0 1193 880" fill="none">
  <g clip-path="url(#clip0)">
    <rect x="-10" y="-16" width="1242" height="915" fill="#F5F5F3"></rect>
    <rect x="76" y="75" width="908" height="574" rx="6" fill="#D4D3C6"></rect>
    <rect x="97" y="96" width="908" height="574" rx="6" fill="#E2E1D9"></rect>
    <path d="M97 128H174V670H103C99.6863 670 97 667.314 97 664V128Z" fill="#C5C4B1"></path>
    <path d="M97 102C97 98.6863 99.6863 96 103 96H999C1002.31 96 1005 98.6863 1005 102V128.169H97V102Z" fill="#EBEBE6"></path>
    <circle cx="112.919" cy="111.918" r="3.46565" fill="#191919"></circle>
    <circle cx="122.623" cy="111.918" r="3.46565" fill="#191919"></circle>
    <circle cx="132.326" cy="111.918" r="3.46565" fill="#191919"></circle>
    <path d="M125.005 158.95C125.708 158.535 126.557 158.535 127.274 158.95L128.348 159.579C127.711 159.914 127.26 160.502 127.088 161.225L123.983 174.873L123.877 175.06V160.917C123.864 160.101 124.288 159.365 125.005 158.95ZM123.917 177.696C123.89 177.642 123.824 177.495 123.917 177.334L126.544 172.745L132.329 162.63L132.461 162.402C132.554 162.242 132.713 162.215 132.78 162.215C132.846 162.215 133.005 162.228 133.098 162.402L134.266 164.436L141.523 177.107L141.656 177.334C141.695 177.401 141.709 177.455 141.709 177.522C141.709 177.602 141.682 177.669 141.656 177.709C141.629 177.763 141.536 177.896 141.337 177.896H139.002H124.501H124.235C124.05 177.883 123.957 177.749 123.917 177.696ZM142.664 176.746L137.184 167.179L144.548 174.083C144.893 174.404 145.039 174.886 144.933 175.354C144.827 175.822 144.495 176.184 144.044 176.331L142.664 176.746ZM146.14 175.14C146.167 174.418 145.888 173.722 145.357 173.213L135.194 163.687L135.088 163.486L147.215 170.564C147.918 170.979 148.343 171.715 148.343 172.544C148.343 173.374 147.918 174.11 147.215 174.525L146.14 175.14ZM131.453 161.8C131.453 161.8 131.453 161.814 131.453 161.8L125.973 171.38L128.216 161.492C128.322 161.024 128.653 160.663 129.105 160.529C129.556 160.382 130.033 160.502 130.378 160.823L131.453 161.8ZM124.222 179.06C124.235 179.06 124.235 179.06 124.222 179.06H135.181L125.562 182.044C125.111 182.191 124.633 182.071 124.275 181.75C123.93 181.429 123.784 180.947 123.89 180.479L124.222 179.06ZM123.864 182.901C124.474 183.289 125.204 183.396 125.907 183.168L139.175 179.06H139.4L127.26 186.125C126.557 186.54 125.708 186.54 124.992 186.125C124.288 185.71 123.864 184.974 123.864 184.145V182.901ZM127.857 157.92C126.783 157.291 125.496 157.291 124.421 157.92C123.333 158.549 122.696 159.673 122.696 160.917V177.495V177.508V177.522V184.145C122.696 185.403 123.333 186.513 124.421 187.142C125.496 187.771 126.783 187.771 127.857 187.142L142.08 178.86C142.093 178.846 142.107 178.846 142.12 178.833L147.799 175.528C148.873 174.899 149.51 173.775 149.51 172.531C149.51 171.273 148.873 170.149 147.799 169.534L133.562 161.238C133.549 161.238 133.549 161.225 133.536 161.225L127.857 157.92Z" fill="#191919"></path>
    <rect width="16.7586" height="16.7586" rx="1" transform="matrix(1 8.74228e-08 8.74228e-08 -1 127.165 232.303)" fill="#EBEBE6"></rect>
    <rect width="16.7586" height="16.7586" rx="1" transform="matrix(1 8.74228e-08 8.74228e-08 -1 127.165 273.641)" fill="#464646"></rect>
    <rect width="16.7586" height="16.7586" rx="1" transform="matrix(1 8.74228e-08 8.74228e-08 -1 127.165 314.979)" fill="#EBEBE6"></rect>
    <path d="M213.193 223.365C213.193 221.514 214.364 220.014 215.807 220.014H349.117C350.561 220.014 351.731 221.514 351.731 223.365V239.007C351.731 240.858 350.561 242.358 349.117 242.358H215.807C214.364 242.358 213.193 240.858 213.193 239.007V223.365Z" fill="#F5F5F3"></path>
    <path d="M213.193 187.614C213.193 185.763 215.204 184.262 217.683 184.262H446.675C449.155 184.262 451.165 185.763 451.165 187.614V203.255C451.165 205.106 449.155 206.607 446.675 206.607H217.683C215.204 206.607 213.193 205.106 213.193 203.255V187.614Z" fill="#F5F5F3"></path>
    <path d="M892.475 187.614C892.475 185.763 893.088 184.262 893.845 184.262H963.725C964.482 184.262 965.095 185.763 965.095 187.614V203.255C965.095 205.106 964.482 206.607 963.725 206.607H893.845C893.088 206.607 892.475 205.106 892.475 203.255V187.614Z" fill="#F5F5F3"></path>
    <path d="M213 280.45C213 276.888 215.888 274 219.45 274H464.55C468.112 274 471 276.888 471 280.45V353.55C471 357.112 468.112 360 464.55 360H219.45C215.888 360 213 357.112 213 353.55V280.45Z" fill="#D4D3C6"></path>
    <path d="M228 295.5C228 291.938 230.888 289.05 234.45 289.05H479.55C483.112 289.05 486 291.938 486 295.5V368.6C486 372.162 483.112 375.05 479.55 375.05H234.45C230.888 375.05 228 372.162 228 368.6V295.5Z" fill="white"></path>
    <rect x="238" y="299" width="66" height="66" rx="4" fill="#D2B414"></rect>
    <g clip-path="url(#clip1)">
      <path d="M277.778 336.906C280.55 335.495 282.766 333.192 284.069 330.369C285.372 327.545 285.687 324.364 284.961 321.34C284.236 318.315 282.513 315.623 280.071 313.698C277.629 311.772 274.61 310.725 271.499 310.725C268.389 310.725 265.37 311.772 262.928 313.698C260.485 315.623 258.763 318.315 258.038 321.34C257.312 324.364 257.627 327.545 258.93 330.369C260.233 333.192 262.449 335.495 265.221 336.906C262.245 338.148 259.703 340.242 257.913 342.925C256.124 345.608 255.168 348.76 255.164 351.985C255.164 352.352 255.31 352.704 255.57 352.963C255.829 353.223 256.181 353.369 256.548 353.369C256.916 353.369 257.268 353.223 257.527 352.963C257.787 352.704 257.933 352.352 257.933 351.985C257.937 348.389 259.369 344.943 261.913 342.403C264.456 339.862 267.904 338.435 271.499 338.435C275.094 338.435 278.543 339.862 281.086 342.403C283.63 344.943 285.061 348.389 285.066 351.985C285.066 352.352 285.212 352.704 285.472 352.963C285.731 353.223 286.083 353.369 286.45 353.369C286.818 353.369 287.17 353.223 287.429 352.963C287.689 352.704 287.835 352.352 287.835 351.985C287.831 348.76 286.875 345.608 285.085 342.925C283.296 340.242 280.754 338.148 277.778 336.906ZM260.425 324.574C260.425 322.384 261.074 320.243 262.291 318.422C263.508 316.6 265.238 315.181 267.261 314.343C269.285 313.504 271.512 313.285 273.66 313.712C275.808 314.14 277.782 315.194 279.33 316.743C280.879 318.292 281.934 320.265 282.361 322.414C282.789 324.562 282.569 326.789 281.731 328.813C280.893 330.836 279.473 332.566 277.652 333.783C275.831 335 273.69 335.649 271.499 335.649C268.563 335.646 265.748 334.478 263.672 332.402C261.596 330.326 260.428 327.511 260.425 324.574Z" fill="#191919"></path>
    </g>
    <path d="M400.9 324.27H398.92V335.204C398.92 337.096 398.59 338.548 396.302 338.548C394.014 338.548 393.706 337.096 393.706 335.204V334.764H391.726V335.204C391.726 337.756 392.76 340.308 396.302 340.308C399.844 340.308 400.9 337.756 400.9 335.204V324.27ZM410.252 331.64C410.252 332.762 409.394 333.004 407.502 333.356C404.598 333.906 402.706 334.566 402.706 337.118C402.706 339.01 404.136 340.308 406.402 340.308C408.25 340.308 409.504 339.648 410.208 338.592H410.252C410.56 339.824 411.198 340.11 412.254 340.11C412.584 340.11 412.826 340.088 413.288 339.934V338.702C412.166 338.834 412.012 338.35 412.012 337.47V332.014C412.012 329.308 410.098 328.472 407.964 328.472C404.708 328.472 403.366 330.1 403.256 332.256H405.016C405.126 330.628 405.83 330.012 407.964 330.012C409.768 330.012 410.252 330.76 410.252 331.64ZM406.578 338.768C405.126 338.768 404.466 338.13 404.466 337.03C404.466 335.688 405.478 335.138 407.656 334.676C408.844 334.434 409.922 334.126 410.252 333.796V335.666C410.252 337.822 408.668 338.768 406.578 338.768ZM420.103 328.472C418.189 328.472 417.001 329.33 416.407 330.122H416.363V328.78H414.603V340H416.363V333.004C416.363 331.266 417.683 330.012 419.663 330.012C421.423 330.012 422.105 331.156 422.105 332.608V340H423.865V332.168C423.865 329.594 422.149 328.472 420.103 328.472ZM431 338.768C428.558 338.768 427.348 336.876 427.348 334.852H436.214C436.214 330.87 434.498 328.472 430.978 328.472C427.7 328.472 425.588 330.65 425.588 334.39C425.588 337.91 427.656 340.308 431.066 340.308C433.86 340.308 435.466 338.636 436.038 336.546H434.278C434.08 337.316 433.244 338.768 431 338.768ZM430.978 330.012C433.09 330.012 434.454 331.508 434.454 333.312H427.348C427.348 331.508 428.866 330.012 430.978 330.012ZM442.624 340H452.854V338.24H444.604V324.27H442.624V340ZM460.97 328.78L457.736 337.932H457.692L454.26 328.78H452.28L456.526 339.076C456.966 340.176 456.504 341.122 456.042 341.628C455.448 342.266 454.766 342.332 453.798 342.244H453.534V343.564C453.82 343.652 454.326 343.784 455.03 343.784C457.098 343.784 457.67 342.134 458.154 340.924L462.95 328.78H460.97Z" fill="#464646"></path>
    <path d="M873 295.5C873 291.938 875.888 289.05 879.45 289.05H1124.55C1128.11 289.05 1131 291.938 1131 295.5V368.6C1131 372.162 1128.11 375.05 1124.55 375.05H879.45C875.888 375.05 873 372.162 873 368.6V295.5Z" fill="white"></path>
    <path d="M1081.74 329.634C1080.14 329.234 1079.07 329.01 1079.07 327.762C1079.07 326.914 1079.89 326.402 1081.25 326.402C1082.83 326.402 1083.66 327.106 1083.84 328.434H1085.74C1085.58 326.082 1083.76 324.77 1081.25 324.77C1078.75 324.77 1077.18 325.906 1077.18 327.938C1077.18 330.114 1079.12 330.802 1080.91 331.25C1083.17 331.81 1084.14 332.066 1084.14 333.426C1084.14 334.306 1083.49 335.058 1081.79 335.058C1079.74 335.058 1078.75 334.098 1078.66 332.642H1076.75C1076.86 335.234 1078.99 336.69 1081.79 336.69C1084.67 336.69 1086.05 335.17 1086.05 333.346C1086.05 330.786 1084.19 330.258 1081.74 329.634ZM1092.72 329.634C1091.12 329.234 1090.04 329.01 1090.04 327.762C1090.04 326.914 1090.86 326.402 1092.22 326.402C1093.8 326.402 1094.64 327.106 1094.81 328.434H1096.72C1096.56 326.082 1094.73 324.77 1092.22 324.77C1089.72 324.77 1088.16 325.906 1088.16 327.938C1088.16 330.114 1090.09 330.802 1091.88 331.25C1094.14 331.81 1095.12 332.066 1095.12 333.426C1095.12 334.306 1094.46 335.058 1092.76 335.058C1090.72 335.058 1089.72 334.098 1089.63 332.642H1087.72C1087.84 335.234 1089.96 336.69 1092.76 336.69C1095.64 336.69 1097.02 335.17 1097.02 333.346C1097.02 330.786 1095.16 330.258 1092.72 329.634ZM1101.21 336.45V327.89H1101.24L1106.41 336.45H1108.52V325.01H1106.62V333.602H1106.58L1101.43 325.01H1099.3V336.45H1101.21Z" fill="#464646"></path>
    <path d="M873 403C873 399.438 875.888 396.55 879.45 396.55H1124.55C1128.11 396.55 1131 399.438 1131 403V476.1C1131 479.662 1128.11 482.55 1124.55 482.55H879.45C875.888 482.55 873 479.662 873 476.1V403Z" fill="white"></path>
    <path d="M1014.6 436.446C1014.33 434.11 1012.57 432.27 1009.67 432.27C1006.37 432.27 1004.29 434.782 1004.29 438.222C1004.29 441.678 1006.37 444.19 1009.67 444.19C1012.58 444.19 1014.34 442.35 1014.6 439.774H1012.69C1012.57 441.166 1011.75 442.558 1009.62 442.558C1007.16 442.558 1006.18 440.494 1006.18 438.222C1006.18 435.966 1007.16 433.902 1009.62 433.902C1011.73 433.902 1012.49 435.294 1012.69 436.446H1014.6ZM1018.71 443.95V439.534H1021.51C1024.26 439.534 1023.19 443.47 1023.72 443.95H1025.72V443.838C1025.11 443.646 1026.07 439.166 1023.43 438.67V438.638C1024.74 438.318 1025.56 437.39 1025.56 435.79C1025.56 433.71 1024.04 432.51 1021.69 432.51H1016.81V443.95H1018.71ZM1021.29 434.126C1022.46 434.126 1023.67 434.366 1023.67 436.014C1023.67 437.678 1022.46 437.902 1021.29 437.902H1018.71V434.126H1021.29ZM1029.82 434.126H1036.19V432.51H1027.92V443.95H1036.35V442.334H1029.82V438.862H1035.41V437.23H1029.82V434.126ZM1043.2 443.95C1046.37 443.95 1048.24 441.918 1048.24 438.238C1048.24 434.558 1046.3 432.51 1043.15 432.51H1038.7V443.95H1043.2ZM1043.06 434.126C1045.62 434.126 1046.34 436.046 1046.34 438.238C1046.34 440.43 1045.62 442.334 1043.06 442.334H1040.61V434.126H1043.06ZM1050.6 443.95H1052.5V432.51H1050.6V443.95ZM1059.83 443.95V434.126H1063.47V432.51H1054.26V434.126H1057.92V443.95H1059.83ZM1073.92 443.95C1077.08 443.95 1078.96 441.918 1078.96 438.238C1078.96 434.558 1077.02 432.51 1073.87 432.51H1069.42V443.95H1073.92ZM1073.77 434.126C1076.33 434.126 1077.05 436.046 1077.05 438.238C1077.05 440.43 1076.33 442.334 1073.77 442.334H1071.32V434.126H1073.77ZM1088.26 443.95H1090.19L1086 432.51H1084L1079.79 443.95H1081.73L1082.66 441.246H1087.33L1088.26 443.95ZM1084.99 434.254H1085.02L1086.82 439.662H1083.18L1084.99 434.254ZM1095.56 443.95V434.126H1099.2V432.51H1089.99V434.126H1093.65V443.95H1095.56ZM1107.45 443.95H1109.39L1105.19 432.51H1103.19L1098.99 443.95H1100.92L1101.85 441.246H1106.52L1107.45 443.95ZM1104.19 434.254H1104.22L1106.01 439.662H1102.38L1104.19 434.254Z" fill="#464646"></path>
    <path d="M873 510.5C873 506.938 875.888 504.05 879.45 504.05H1124.55C1128.11 504.05 1131 506.938 1131 510.5V583.6C1131 587.162 1128.11 590.05 1124.55 590.05H879.45C875.888 590.05 873 587.162 873 583.6V510.5Z" fill="white"></path>
    <path d="M1040.06 551.45H1041.99L1037.8 540.01H1035.8L1031.59 551.45H1033.53L1034.46 548.746H1039.13L1040.06 551.45ZM1036.79 541.754H1036.83L1038.62 547.162H1034.99L1036.79 541.754ZM1048.38 551.45C1051.55 551.45 1053.42 549.418 1053.42 545.738C1053.42 542.058 1051.48 540.01 1048.33 540.01H1043.88V551.45H1048.38ZM1048.23 541.626C1050.79 541.626 1051.51 543.546 1051.51 545.738C1051.51 547.93 1050.79 549.834 1048.23 549.834H1045.79V541.626H1048.23ZM1060.24 551.45C1063.41 551.45 1065.28 549.418 1065.28 545.738C1065.28 542.058 1063.34 540.01 1060.19 540.01H1055.74V551.45H1060.24ZM1060.1 541.626C1062.66 541.626 1063.38 543.546 1063.38 545.738C1063.38 547.93 1062.66 549.834 1060.1 549.834H1057.65V541.626H1060.1ZM1069.51 551.45V547.034H1072.31C1075.06 547.034 1073.99 550.97 1074.52 551.45H1076.52V551.338C1075.91 551.146 1076.87 546.666 1074.23 546.17V546.138C1075.54 545.818 1076.36 544.89 1076.36 543.29C1076.36 541.21 1074.84 540.01 1072.49 540.01H1067.61V551.45H1069.51ZM1072.09 541.626C1073.26 541.626 1074.47 541.866 1074.47 543.514C1074.47 545.178 1073.26 545.402 1072.09 545.402H1069.51V541.626H1072.09ZM1080.62 541.626H1086.99V540.01H1078.72V551.45H1087.15V549.834H1080.62V546.362H1086.21V544.73H1080.62V541.626ZM1093.72 544.634C1092.12 544.234 1091.04 544.01 1091.04 542.762C1091.04 541.914 1091.86 541.402 1093.22 541.402C1094.8 541.402 1095.64 542.106 1095.81 543.434H1097.72C1097.56 541.082 1095.73 539.77 1093.22 539.77C1090.72 539.77 1089.16 540.906 1089.16 542.938C1089.16 545.114 1091.09 545.802 1092.88 546.25C1095.14 546.81 1096.12 547.066 1096.12 548.426C1096.12 549.306 1095.46 550.058 1093.76 550.058C1091.72 550.058 1090.72 549.098 1090.63 547.642H1088.72C1088.84 550.234 1090.96 551.69 1093.76 551.69C1096.64 551.69 1098.02 550.17 1098.02 548.346C1098.02 545.786 1096.16 545.258 1093.72 544.634ZM1104.69 544.634C1103.09 544.234 1102.02 544.01 1102.02 542.762C1102.02 541.914 1102.83 541.402 1104.19 541.402C1105.78 541.402 1106.61 542.106 1106.78 543.434H1108.69C1108.53 541.082 1106.7 539.77 1104.19 539.77C1101.7 539.77 1100.13 540.906 1100.13 542.938C1100.13 545.114 1102.06 545.802 1103.86 546.25C1106.11 546.81 1107.09 547.066 1107.09 548.426C1107.09 549.306 1106.43 550.058 1104.74 550.058C1102.69 550.058 1101.7 549.098 1101.6 547.642H1099.7C1099.81 550.234 1101.94 551.69 1104.74 551.69C1107.62 551.69 1108.99 550.17 1108.99 548.346C1108.99 545.786 1107.14 545.258 1104.69 544.634Z" fill="#464646"></path>
    <path d="M873 618C873 614.438 875.888 611.55 879.45 611.55H1124.55C1128.11 611.55 1131 614.438 1131 618V691.1C1131 694.662 1128.11 697.55 1124.55 697.55H879.45C875.888 697.55 873 694.662 873 691.1V618Z" fill="white"></path>
    <path d="M1054.56 658.95V654.374H1057.52C1059.71 654.374 1061.29 653.334 1061.29 650.934C1061.29 648.534 1059.71 647.51 1057.52 647.51H1052.65V658.95H1054.56ZM1057.44 649.126C1058.72 649.126 1059.39 649.686 1059.39 650.934C1059.39 652.198 1058.72 652.742 1057.44 652.742H1054.56V649.126H1057.44ZM1063.36 658.95H1065.26V653.878H1070.67V658.95H1072.57V647.51H1070.67V652.246H1065.26V647.51H1063.36V658.95ZM1080.59 659.19C1084.03 659.19 1086.21 656.662 1086.21 653.222C1086.21 649.782 1084.03 647.27 1080.59 647.27C1077.14 647.27 1074.98 649.782 1074.98 653.222C1074.98 656.662 1077.14 659.19 1080.59 659.19ZM1080.59 657.558C1077.97 657.558 1076.86 655.542 1076.86 653.222C1076.86 650.918 1077.97 648.902 1080.59 648.902C1083.22 648.902 1084.3 650.918 1084.3 653.222C1084.3 655.542 1083.22 657.558 1080.59 657.558ZM1090.42 658.95V650.39H1090.46L1095.62 658.95H1097.74V647.51H1095.83V656.102H1095.8L1090.65 647.51H1088.52V658.95H1090.42ZM1102.4 649.126H1108.76V647.51H1100.49V658.95H1108.92V657.334H1102.4V653.862H1107.98V652.23H1102.4V649.126Z" fill="#464646"></path>
    <path d="M873 725.5C873 721.938 875.888 719.05 879.45 719.05H1124.55C1128.11 719.05 1131 721.938 1131 725.5V798.6C1131 802.162 1128.11 805.05 1124.55 805.05H879.45C875.888 805.05 873 802.162 873 798.6V725.5Z" fill="white"></path>
    <path d="M1062.51 756.626H1068.88V755.01H1060.6V766.45H1069.04V764.834H1062.51V761.362H1068.09V759.73H1062.51V756.626ZM1073.24 766.45V757.778H1073.28L1076.3 766.45H1077.82L1080.84 757.778H1080.88V766.45H1082.73V755.01H1080.27L1077.08 763.81H1077.05L1073.85 755.01H1071.39V766.45H1073.24ZM1093.02 766.45H1094.96L1090.77 755.01H1088.77L1084.56 766.45H1086.49L1087.42 763.746H1092.09L1093.02 766.45ZM1089.76 756.754H1089.79L1091.58 762.162H1087.95L1089.76 756.754ZM1096.88 766.45H1098.78V755.01H1096.88V766.45ZM1101.55 766.45H1109.17V764.834H1103.46V755.01H1101.55V766.45Z" fill="#464646"></path>
    <rect x="636.5" y="289.05" width="86" height="86" rx="6" fill="white"></rect>
    <rect x="636.5" y="396.55" width="86" height="86" rx="6" fill="white"></rect>
    <rect x="636.5" y="504.05" width="86" height="86" rx="6" fill="white"></rect>
    <path d="M664.929 338.199C662.47 339.652 661 341.495 661 343.5C661 348.195 669.059 352 679 352C688.941 352 697 348.195 697 343.5C697 341.499 695.535 339.659 693.084 338.206" stroke="#191919" stroke-width="2.4" stroke-miterlimit="10" stroke-linecap="round" stroke-linejoin="round"></path>
    <path d="M665.171 327.879C662.567 329.266 661 331.052 661 333C661 337.418 669.059 341 679 341C688.941 341 697 337.418 697 333C697 331.051 695.431 329.264 692.823 327.876" stroke="#191919" stroke-width="2.4" stroke-miterlimit="10" stroke-linejoin="round"></path>
    <path d="M679 331C688.941 331 697 327.194 697 322.5C697 317.806 688.941 314 679 314C669.059 314 661 317.806 661 322.5C661 327.194 669.059 331 679 331Z" stroke="#191919" stroke-width="2.4" stroke-miterlimit="10" stroke-linecap="round" stroke-linejoin="round"></path>
    <path d="M661 323V343" stroke="#191919" stroke-width="2.4" stroke-miterlimit="10" stroke-linecap="round" stroke-linejoin="round"></path>
    <path d="M697 323V343" stroke="#191919" stroke-width="2.4" stroke-miterlimit="10" stroke-linecap="round" stroke-linejoin="round"></path>
    <path d="M664.929 445.199C662.47 446.652 661 448.495 661 450.5C661 455.195 669.059 459 679 459C688.941 459 697 455.195 697 450.5C697 448.499 695.535 446.659 693.084 445.206" stroke="#191919" stroke-width="2.4" stroke-miterlimit="10" stroke-linecap="round" stroke-linejoin="round"></path>
    <path d="M665.171 434.879C662.567 436.266 661 438.052 661 440C661 444.418 669.059 448 679 448C688.941 448 697 444.418 697 440C697 438.051 695.431 436.264 692.823 434.876" stroke="#191919" stroke-width="2.4" stroke-miterlimit="10" stroke-linejoin="round"></path>
    <path d="M679 438C688.941 438 697 434.194 697 429.5C697 424.806 688.941 421 679 421C669.059 421 661 424.806 661 429.5C661 434.194 669.059 438 679 438Z" stroke="#191919" stroke-width="2.4" stroke-miterlimit="10" stroke-linecap="round" stroke-linejoin="round"></path>
    <path d="M661 430V450" stroke="#191919" stroke-width="2.4" stroke-miterlimit="10" stroke-linecap="round" stroke-linejoin="round"></path>
    <path d="M697 430V450" stroke="#191919" stroke-width="2.4" stroke-miterlimit="10" stroke-linecap="round" stroke-linejoin="round"></path>
    <path d="M664.929 552.199C662.47 553.652 661 555.495 661 557.5C661 562.195 669.059 566 679 566C688.941 566 697 562.195 697 557.5C697 555.499 695.535 553.659 693.084 552.206" stroke="#191919" stroke-width="2.4" stroke-miterlimit="10" stroke-linecap="round" stroke-linejoin="round"></path>
    <path d="M665.171 541.879C662.567 543.266 661 545.052 661 547C661 551.418 669.059 555 679 555C688.941 555 697 551.418 697 547C697 545.051 695.431 543.264 692.823 541.876" stroke="#191919" stroke-width="2.4" stroke-miterlimit="10" stroke-linejoin="round"></path>
    <path d="M679 545C688.941 545 697 541.194 697 536.5C697 531.806 688.941 528 679 528C669.059 528 661 531.806 661 536.5C661 541.194 669.059 545 679 545Z" stroke="#191919" stroke-width="2.4" stroke-miterlimit="10" stroke-linecap="round" stroke-linejoin="round"></path>
    <path d="M661 537V557" stroke="#191919" stroke-width="2.4" stroke-miterlimit="10" stroke-linecap="round" stroke-linejoin="round"></path>
    <path d="M697 537V557" stroke="#191919" stroke-width="2.4" stroke-miterlimit="10" stroke-linecap="round" stroke-linejoin="round"></path>
    <path d="M932.122 331.511C932.122 340.119 925.144 347.097 916.536 347.097C907.928 347.097 900.95 340.119 900.95 331.511C900.95 322.903 907.928 315.925 916.536 315.925C925.144 315.925 932.122 322.903 932.122 331.511Z" fill="#F89F40"></path>
    <path d="M932.122 440.086C932.122 448.694 925.144 455.672 916.536 455.672C907.928 455.672 900.95 448.694 900.95 440.086C900.95 431.478 907.928 424.5 916.536 424.5C925.144 424.5 932.122 431.478 932.122 440.086Z" fill="#91B200"></path>
    <path d="M932.122 547.586C932.122 556.194 925.144 563.172 916.536 563.172C907.928 563.172 900.95 556.194 900.95 547.586C900.95 538.978 907.928 532 916.536 532C925.144 532 932.122 538.978 932.122 547.586Z" fill="#91B200"></path>
    <path d="M932.122 655.086C932.122 663.694 925.144 670.672 916.536 670.672C907.928 670.672 900.95 663.694 900.95 655.086C900.95 646.478 907.928 639.5 916.536 639.5C925.144 639.5 932.122 646.478 932.122 655.086Z" fill="#ED4E47"></path>
    <path d="M932.122 761.511C932.122 770.119 925.144 777.097 916.536 777.097C907.928 777.097 900.95 770.119 900.95 761.511C900.95 752.903 907.928 745.925 916.536 745.925C925.144 745.925 932.122 752.903 932.122 761.511Z" fill="#91B200"></path>
    <path d="M486 332.587H532.325C548.894 332.587 562.325 346.019 562.325 362.587V410.625C562.325 427.193 575.756 440.625 592.325 440.625H636.5" stroke="#191919" stroke-width="1.5"></path>
    <path d="M486 333.125H532.325C548.894 333.125 562.325 346.556 562.325 363.125V517.587C562.325 534.156 575.756 547.587 592.325 547.587H636.5" stroke="#191919" stroke-width="1.5"></path>
    <path d="M798.825 386.875V410.625C798.825 427.194 785.394 440.625 768.825 440.625H722.5" stroke="#191919" stroke-width="1.5"></path>
    <path d="M798.825 494.375V518.125C798.825 534.694 785.394 548.125 768.825 548.125H722.5" stroke="#191919" stroke-width="1.5"></path>
    <path d="M798.825 494.375V518.125C798.825 534.694 812.257 548.125 828.825 548.125H873" stroke="#191919" stroke-width="1.5"></path>
    <path d="M798.825 601.875V578.125C798.825 561.556 785.394 548.125 768.825 548.125H722.5" stroke="#191919" stroke-width="1.5"></path>
    <path d="M873 548.125H798.825H722.5" stroke="#191919" stroke-width="1.5"></path>
    <path d="M798.825 494.375V470.625C798.825 454.056 785.394 440.625 768.825 440.625H722.5" stroke="#191919" stroke-width="1.5"></path>
    <path d="M799 386.75V363C799 346.431 812.431 333 829 333H873" stroke="#191919" stroke-width="1.5"></path>
    <path d="M722.5 333.125H768.825C785.394 333.125 798.825 346.556 798.825 363.125V411.163C798.825 427.731 812.256 441.162 828.825 441.162H873" stroke="#191919" stroke-width="1.5"></path>
    <path d="M722.5 333.125H768.825C785.394 333.125 798.825 346.556 798.825 363.125V625.625C798.825 642.194 812.256 655.625 828.825 655.625H873" stroke="#191919" stroke-width="1.5"></path>
    <path d="M722.5 333.125H768.825C785.394 333.125 798.825 346.556 798.825 363.125V732.588C798.825 749.156 812.256 762.587 828.825 762.587H873" stroke="#191919" stroke-width="1.5"></path>
    <path d="M486 332.587H636.5" stroke="#191919" stroke-width="1.5"></path>
    <path d="M722.5 333.125H870" stroke="#191919" stroke-width="1.5"></path>
  </g>
  <defs>
    <clipPath id="clip0">
      <path d="M0 12C0 5.37257 5.37258 0 12 0H1181C1187.63 0 1193 5.37258 1193 12V868C1193 874.627 1187.63 880 1181 880H12C5.37261 880 0 874.627 0 868V12Z" fill="white"></path>
    </clipPath>
    <clipPath id="clip1">
      <rect width="43" height="43" fill="white" transform="translate(250 310.55)"></rect>
    </clipPath>
  </defs>
</svg>
