<svg width="375" height="375" viewBox="0 0 375 375" fill="none" xmlns="http://www.w3.org/2000/svg">
<g clip-path="url(#clip0_4412_4032)">
<rect width="375" height="375" fill="#FF6170"/>
<path d="M-79 223.283L395.715 223.283" stroke="#191919" stroke-width="0.795834" stroke-miterlimit="10"/>
<path d="M-79 192.592L395.715 192.592" stroke="#191919" stroke-width="0.795834" stroke-miterlimit="10"/>
<path d="M-79 254.494L395.715 254.494" stroke="#191919" stroke-width="0.795834" stroke-miterlimit="10"/>
<path d="M74.4886 375C53.4347 375 36.3961 358.067 36.3961 337.143C36.3961 316.219 53.4347 299.286 74.4886 299.286C95.5424 299.286 112.581 316.219 112.581 337.143C112.581 358.067 95.5424 375 74.4886 375Z" fill="#FAA0B4"/>
<path d="M112.522 309.293C91.4679 309.293 74.4293 292.359 74.4293 271.435C74.4293 250.512 91.4679 233.578 112.522 233.578C133.576 233.578 150.614 250.512 150.614 271.435C150.614 292.359 133.576 309.293 112.522 309.293Z" fill="#A31C67"/>
<path d="M150.559 375C129.505 375 112.466 358.067 112.466 337.143C112.466 316.219 129.505 299.286 150.559 299.286C171.613 299.286 188.651 316.219 188.651 337.143C188.651 358.067 171.613 375 150.559 375Z" fill="#FAA0B4"/>
<path d="M226.629 375C205.575 375 188.537 358.067 188.537 337.143C188.537 316.219 205.575 299.286 226.629 299.286C247.683 299.286 264.722 316.219 264.722 337.143C264.722 358.067 247.683 375 226.629 375Z" fill="#A31C67"/>
<path d="M264.694 150.921C243.64 150.921 226.601 133.988 226.601 113.064C226.601 92.14 243.64 75.2065 264.694 75.2065C285.747 75.2065 302.786 92.14 302.786 113.064C302.786 133.988 285.747 150.921 264.694 150.921Z" fill="white"/>
<path d="M302.699 375C281.646 375 264.607 358.067 264.607 337.143C264.607 316.219 281.646 299.286 302.699 299.286C323.753 299.286 340.792 316.219 340.792 337.143C340.792 358.067 323.753 375 302.699 375Z" fill="#FAA0B4"/>
<g clip-path="url(#clip1_4412_4032)">
<path d="M96.2265 112.867L302.051 65.8061C304.485 65.2398 306.184 63.0878 306.184 60.596V5.37996C306.184 2.4351 303.806 0.0565666 300.862 0.0565666L95.0377 0.0565666C92.0942 0.0565666 89.7166 2.4351 89.7166 5.37996V107.657C89.7166 111.055 92.8867 113.603 96.2265 112.867Z" fill="#A31C67"/>
</g>
</g>
<defs>
<clipPath id="clip0_4412_4032">
<rect width="375" height="375" fill="white"/>
</clipPath>
<clipPath id="clip1_4412_4032">
<rect width="216.467" height="112.981" fill="white" transform="translate(306.185 112.98) rotate(-180)"/>
</clipPath>
</defs>
</svg>
