<?xml version="1.0" standalone="no"?>
<!DOCTYPE svg PUBLIC "-//W3C//DTD SVG 20010904//EN"
 "http://www.w3.org/TR/2001/REC-SVG-20010904/DTD/svg10.dtd">
<svg version="1.0" xmlns="http://www.w3.org/2000/svg"
 width="740.000000pt" height="1000.000000pt" viewBox="0 0 740.000000 1000.000000"
 preserveAspectRatio="xMidYMid meet">
<metadata>
Created by potrace 1.16, written by Peter Selinger 2001-2019
</metadata>
<g transform="translate(0.000000,1000.000000) scale(0.100000,-0.100000)"
fill="#0d8be59b" stroke="none">
<path d="M0 9760 l0 -240 73 55 c41 30 77 55 80 55 3 0 41 16 83 37 42 20 95
37 116 38 22 1 45 8 51 14 9 10 6 10 -15 2 -43 -16 -33 -5 15 17 52 25 136 43
165 35 12 -3 22 -1 22 5 0 13 38 27 63 23 9 -1 17 2 17 6 0 9 24 21 115 58 33
13 75 45 170 127 5 4 -208 8 -473 8 l-482 0 0 -240z"/>
<path d="M1023 9971 c-51 -64 -122 -131 -178 -169 -73 -49 -225 -111 -360
-147 -161 -43 -267 -89 -397 -174 l-87 -56 -1 -303 0 -303 57 6 c32 4 72 11
89 16 18 6 44 7 58 3 27 -6 60 11 50 27 -3 5 1 9 9 9 24 0 89 71 137 148 25
40 65 103 89 140 25 37 63 96 87 132 23 36 54 79 68 96 14 18 26 35 26 39 0
18 162 166 175 161 9 -3 12 0 9 8 -3 7 2 16 10 19 9 4 16 1 16 -6 0 -7 10 -1
23 13 30 34 65 51 110 53 20 1 37 5 37 8 0 3 42 14 93 23 50 10 135 26 187 36
158 30 170 32 170 20 0 -5 5 -10 10 -10 6 0 10 7 10 15 0 14 10 17 75 19 11 1
25 4 31 8 6 4 31 10 55 14 24 4 49 11 56 16 7 5 22 7 35 3 18 -5 20 -4 8 4
-12 9 -11 11 6 11 12 0 38 7 57 15 20 8 47 15 59 15 22 0 213 91 233 111 5 5
-197 9 -540 9 l-550 0 -22 -29z"/>
<path d="M2230 9979 c-14 -11 -35 -29 -48 -40 -12 -10 -25 -19 -28 -19 -3 0
-33 -19 -66 -41 -69 -47 -215 -118 -309 -149 -97 -33 -347 -80 -534 -100 -115
-13 -247 -43 -311 -71 -64 -29 -156 -119 -216 -212 -175 -269 -287 -428 -332
-472 -86 -83 -180 -123 -329 -140 l-57 -6 0 -411 0 -410 88 6 c48 4 112 13
142 21 l55 14 -47 -4 c-27 -3 -59 -7 -73 -11 -14 -3 -25 -2 -25 4 0 11 109 28
152 24 23 -3 27 0 21 14 -5 12 -3 15 6 9 15 -9 63 14 55 26 -3 5 2 6 10 3 9
-3 16 -2 16 4 0 6 24 34 54 62 30 29 67 71 83 94 15 22 30 43 33 46 10 9 37
73 55 130 10 30 21 59 26 65 5 5 9 19 9 31 0 12 7 41 16 65 8 24 24 76 34 115
19 75 95 233 121 254 4 3 9 15 13 27 9 29 146 164 159 156 6 -3 7 -2 4 4 -3 5
3 17 14 27 20 17 21 17 14 -4 -6 -19 -4 -18 21 5 15 14 36 25 48 25 17 0 18 2
6 10 -13 8 -12 10 3 10 10 0 28 7 42 16 13 8 29 14 37 13 7 -1 27 3 43 10 18
8 132 18 285 26 175 9 271 19 305 30 28 9 58 14 69 11 10 -3 27 3 37 13 11 10
39 24 62 32 48 16 166 75 217 110 42 29 174 132 250 195 30 25 64 54 75 63 11
9 28 15 39 13 11 -2 16 0 12 6 -6 10 16 21 57 27 12 2 69 11 127 19 107 17
220 41 255 56 50 21 85 32 89 29 2 -2 12 3 22 12 11 9 35 22 54 29 19 8 49 22
67 31 17 10 48 21 67 25 21 3 33 10 29 17 -3 6 -1 7 6 3 15 -10 51 2 48 16 -3
15 93 54 101 41 5 -7 11 -6 20 3 10 11 -89 13 -630 13 -634 0 -643 0 -668 -20z"/>
<path d="M6080 9984 c-191 -83 -500 -132 -755 -119 -71 4 -224 20 -340 37
-115 16 -244 33 -285 38 -140 15 -729 -12 -995 -46 -158 -20 -393 -92 -553
-170 -209 -102 -239 -111 -407 -124 -65 -6 -135 -15 -155 -21 -48 -16 -133
-72 -205 -134 -33 -29 -94 -78 -135 -109 -41 -30 -79 -59 -85 -64 -35 -28
-224 -117 -292 -137 -54 -15 -152 -26 -313 -35 -292 -16 -454 -53 -535 -121
-54 -46 -101 -103 -122 -148 -44 -97 -62 -143 -76 -191 -9 -30 -28 -95 -42
-145 -72 -251 -153 -393 -279 -492 -168 -132 -260 -168 -418 -161 l-88 3 0
-347 c0 -192 2 -348 5 -348 7 0 68 42 75 52 11 15 107 29 160 24 39 -3 46 -2
25 3 -28 8 -29 9 -5 10 14 1 83 6 155 12 72 6 139 10 150 10 10 0 24 3 30 8 5
4 30 13 55 20 136 39 182 85 295 296 64 120 59 109 100 200 72 157 147 297
187 348 49 66 189 206 231 233 21 14 43 22 49 18 6 -4 8 -3 5 3 -9 15 157 90
263 119 174 47 212 70 365 215 149 142 288 254 403 324 9 6 22 16 30 23 20 18
55 36 72 37 8 0 14 6 13 13 -2 6 1 12 6 12 4 0 48 23 97 52 76 44 155 83 311
154 59 27 115 44 125 38 5 -3 17 1 26 9 27 23 92 40 157 40 40 0 52 2 35 7
l-25 7 25 6 c33 8 117 24 158 31 18 3 32 1 32 -4 0 -6 -8 -10 -17 -11 -11 0
-13 -3 -5 -6 6 -2 40 2 75 11 35 9 74 16 88 16 13 0 39 2 57 6 23 4 32 3 32
-7 0 -10 3 -10 12 -1 18 18 55 15 67 -5 10 -17 10 -17 11 1 0 16 5 17 33 12
17 -4 34 -11 35 -16 2 -6 11 -10 20 -10 15 0 15 2 2 11 -11 8 4 9 55 4 81 -7
177 -30 155 -37 -8 -3 -4 -3 8 -1 13 2 94 -23 180 -55 87 -33 189 -69 227 -81
39 -13 79 -26 90 -31 52 -22 230 -64 345 -80 101 -14 291 -12 330 3 32 13 101
25 119 20 11 -3 21 2 24 11 4 9 17 16 30 16 14 0 30 7 37 15 7 8 16 15 20 15
16 0 166 90 184 109 11 12 23 21 27 21 8 0 158 98 169 110 22 24 148 123 173
136 30 16 126 89 192 148 17 15 62 51 100 81 39 30 88 70 110 89 l40 35 -260
0 c-211 0 -267 -3 -295 -15z"/>
<path d="M6716 9952 c-44 -61 -188 -194 -286 -265 -104 -76 -227 -170 -327
-249 -149 -120 -235 -173 -449 -278 -55 -27 -114 -54 -130 -61 -111 -43 -259
-49 -484 -19 -209 28 -390 78 -651 180 -202 79 -362 110 -563 110 -139 0 -232
-10 -341 -35 -327 -76 -484 -126 -604 -191 -91 -50 -392 -261 -452 -316 -70
-66 -170 -152 -188 -162 -9 -5 -18 -12 -21 -16 -3 -3 -34 -28 -70 -55 -36 -28
-67 -52 -70 -55 -40 -40 -200 -114 -320 -148 -172 -48 -242 -91 -382 -235 -63
-65 -118 -142 -110 -154 1 -2 -7 -19 -18 -38 -11 -20 -34 -73 -51 -118 -18
-45 -37 -89 -44 -97 -6 -8 -18 -31 -25 -50 -7 -19 -22 -47 -31 -61 -10 -15
-23 -39 -29 -54 -37 -97 -170 -256 -280 -333 -36 -26 -67 -49 -70 -52 -3 -3
-32 -18 -65 -33 -33 -16 -67 -33 -76 -37 -41 -21 -138 -30 -250 -21 -122 9
-244 -3 -301 -30 l-28 -12 0 -381 0 -380 38 35 c45 42 111 94 172 134 25 17
50 34 55 38 34 27 125 81 155 92 37 14 65 28 145 76 28 16 129 69 225 117 268
134 356 198 435 312 21 30 41 57 45 60 8 5 15 16 73 117 16 26 44 84 62 128
19 45 47 108 63 140 16 33 44 95 63 138 18 42 36 77 41 77 4 0 8 4 8 9 0 23
117 175 202 262 151 156 243 220 378 265 70 23 93 26 156 21 53 -4 83 -12 106
-28 52 -35 88 -71 117 -114 24 -37 26 -48 26 -145 -1 -152 -49 -298 -135 -405
-40 -51 -219 -244 -287 -310 -132 -129 -133 -130 -387 -321 -169 -127 -192
-146 -229 -185 -111 -119 -204 -293 -302 -569 -14 -41 -32 -91 -40 -110 -7
-19 -23 -62 -36 -95 -12 -33 -32 -82 -44 -110 -12 -27 -32 -77 -45 -110 -13
-33 -27 -62 -30 -65 -4 -3 -15 -21 -25 -40 -46 -90 -205 -266 -441 -487 -194
-181 -312 -260 -521 -349 l-43 -18 0 -283 c0 -156 3 -283 8 -282 24 3 309 190
502 330 124 90 294 254 392 379 32 41 64 81 70 89 21 25 104 154 132 205 15
27 43 74 63 105 60 92 160 274 250 451 15 30 31 57 34 60 3 3 20 32 39 65 19
33 37 62 40 65 4 3 23 32 42 65 163 278 277 451 336 513 7 8 25 30 40 50 15
21 29 39 32 42 3 3 34 39 69 80 184 213 451 433 633 519 156 74 608 192 584
152 -4 -6 -3 -11 3 -11 5 0 11 6 14 13 10 32 653 2 862 -41 121 -24 472 -23
537 2 26 10 57 16 68 13 11 -3 18 -1 15 3 -3 5 19 16 49 24 63 19 69 19 61 6
-3 -6 1 -7 9 -4 9 3 16 11 16 16 0 6 7 8 15 5 8 -4 27 0 42 8 15 8 36 15 45
15 9 0 18 3 20 8 3 8 230 109 413 183 117 48 246 89 353 113 30 6 50 15 45 20
-5 5 6 6 25 3 21 -4 31 -3 27 3 -3 6 6 15 21 20 21 8 29 7 38 -5 10 -14 19
-14 91 4 l80 19 -57 1 c-31 1 -58 -3 -60 -8 -1 -4 -11 -5 -21 -2 -12 5 10 13
65 25 45 10 128 29 183 43 101 24 166 35 310 53 44 6 103 16 130 22 28 6 57
13 65 14 8 2 62 17 120 34 58 18 137 40 175 51 39 10 78 24 87 29 10 6 31 10
47 10 16 0 46 8 67 17 22 9 47 18 56 19 10 1 28 8 41 17 13 8 35 13 50 10 l27
-5 0 136 c0 154 2 152 -78 112 -26 -13 -88 -38 -139 -55 -51 -17 -123 -46
-161 -64 -89 -44 -142 -61 -282 -91 -215 -45 -376 -60 -555 -50 -218 12 -489
10 -561 -4 -32 -7 -72 -14 -89 -16 -180 -28 -369 -102 -515 -202 -55 -38 -156
-96 -274 -158 -49 -26 -99 -54 -110 -61 -44 -28 -236 -87 -351 -107 -85 -15
-162 -22 -265 -22 -132 0 -164 4 -355 43 -235 48 -295 68 -475 154 -104 51
-136 72 -191 126 -191 192 -208 407 -51 660 28 46 153 181 166 181 6 0 23 11
37 24 53 49 201 120 284 137 22 4 67 15 100 23 47 12 99 14 245 11 102 -3 203
-9 225 -15 22 -6 137 -15 255 -20 206 -10 435 -35 585 -65 119 -24 385 -54
533 -61 78 -4 142 -11 142 -16 0 -5 -10 -8 -22 -6 -11 2 -23 -3 -26 -10 -5
-16 46 -5 65 13 7 7 67 14 155 18 78 4 202 14 273 23 72 10 151 17 177 17 26
0 45 4 42 9 -3 4 5 8 19 8 29 0 161 34 242 62 118 40 189 57 196 46 4 -6 12
-7 19 -3 10 6 10 9 0 15 -17 10 55 34 81 27 15 -4 19 -2 15 8 -3 9 6 16 27 21
17 3 38 10 47 15 35 18 84 29 90 20 9 -15 88 28 129 70 20 20 54 49 76 65 22
16 42 31 45 35 11 12 99 69 108 69 5 0 15 6 21 13 6 8 31 24 56 37 l45 23 0
294 0 293 -324 0 -324 0 -36 -48z"/>
<path d="M7326 9283 c-55 -37 -120 -92 -198 -165 -46 -44 -195 -145 -253 -172
-142 -65 -383 -149 -510 -176 -55 -12 -129 -28 -165 -35 -409 -88 -645 -92
-1020 -20 -176 34 -273 44 -655 70 -126 9 -309 28 -405 42 -152 24 -206 27
-415 28 -267 0 -303 -6 -443 -71 -79 -36 -187 -135 -214 -194 -7 -16 -16 -30
-19 -30 -3 0 -15 -19 -25 -42 -15 -33 -19 -66 -19 -153 0 -97 3 -116 25 -160
54 -111 141 -173 300 -215 47 -13 92 -26 100 -31 17 -9 -46 -2 -98 11 -18 5
-30 5 -27 1 2 -5 19 -12 37 -16 18 -4 38 -9 43 -10 122 -35 174 -44 145 -25
-9 6 -10 10 -3 10 6 0 14 -4 17 -8 3 -5 19 -9 35 -10 16 0 38 -5 49 -11 19
-10 75 -20 232 -42 66 -9 89 -16 102 -33 10 -11 18 -15 18 -8 0 17 30 15 30
-3 0 -8 8 -15 18 -15 14 0 15 2 2 10 -11 7 -7 9 15 5 155 -26 222 -24 390 14
149 34 205 52 198 64 -4 6 0 8 10 4 9 -3 23 0 31 8 8 8 19 15 23 15 5 0 19 9
31 20 25 24 60 44 267 150 88 45 171 90 185 100 38 26 160 86 205 99 22 7 49
17 60 22 11 5 54 17 95 26 63 15 129 17 406 18 274 0 327 -2 305 -13 l-26 -12
25 5 c14 2 34 5 45 6 11 0 14 3 7 6 -24 10 0 23 43 23 24 0 77 4 117 9 111 14
286 22 263 11 -17 -7 -15 -9 12 -9 33 -1 53 14 31 22 -7 2 5 7 27 11 88 15
232 49 262 62 17 8 38 14 46 14 9 0 18 4 21 9 3 5 18 12 33 16 15 3 50 17 78
29 27 13 80 34 118 47 l67 23 0 353 c0 202 -4 353 -9 353 -5 0 -34 -17 -65
-37z m-3384 -634 c29 -6 124 -31 211 -55 169 -47 226 -77 316 -163 55 -53 101
-151 101 -216 0 -48 -3 -54 -47 -96 -105 -98 -216 -126 -401 -99 -37 5 -103
14 -147 21 -98 14 -291 71 -364 107 -92 46 -189 155 -206 230 -5 26 -1 45 19
85 34 67 52 87 103 115 122 66 295 96 415 71z"/>
<path d="M3712 8514 c-77 -20 -152 -74 -152 -110 0 -40 141 -140 225 -160 17
-4 36 -11 43 -17 6 -5 12 -6 12 -2 0 4 6 3 13 -3 18 -15 137 -42 229 -52 46
-5 111 -15 146 -22 52 -10 65 -10 72 1 4 8 12 11 18 7 12 -7 94 3 112 14 19
11 5 70 -24 100 -113 120 -188 158 -436 219 -150 38 -194 42 -258 25z"/>
<path d="M2111 8159 c-139 -53 -211 -119 -355 -329 -33 -47 -70 -99 -83 -116
-28 -38 -73 -124 -73 -142 0 -7 -4 -20 -9 -30 -5 -9 -39 -78 -75 -152 -35 -74
-93 -175 -128 -224 -35 -48 -67 -95 -73 -104 -5 -8 -17 -23 -25 -32 -8 -9 -28
-34 -45 -54 -62 -81 -207 -181 -405 -280 -74 -38 -140 -72 -146 -77 -18 -14
-253 -137 -412 -214 -134 -65 -162 -83 -218 -140 l-64 -65 0 -615 0 -615 38
23 c20 13 45 26 54 30 10 3 43 22 73 42 31 19 59 35 63 35 5 0 26 13 48 30 21
16 44 30 49 30 6 0 22 10 37 23 50 42 63 52 96 76 18 13 59 50 90 83 31 33 73
77 92 97 101 105 310 434 310 488 0 13 3 14 8 6 7 -11 13 5 39 100 2 9 9 14
15 11 7 -5 9 0 6 14 -4 12 -2 25 3 28 5 3 9 14 9 24 0 10 3 20 8 22 7 3 25 49
84 208 11 30 31 79 44 108 13 29 24 57 24 63 0 6 9 22 20 36 11 14 20 32 20
39 0 7 6 19 13 26 7 7 17 23 22 35 17 38 126 163 255 293 121 121 219 202 345
284 33 22 83 57 110 79 90 70 133 114 323 326 18 20 43 56 57 80 31 54 75 175
80 216 5 41 -11 142 -25 157 -5 7 -20 26 -31 41 -53 71 -146 83 -268 36z"/>
<path d="M7325 8083 c-184 -42 -269 -64 -420 -110 -222 -68 -232 -71 -485
-133 -254 -62 -266 -65 -420 -90 -69 -11 -150 -25 -180 -30 -75 -14 -312 -91
-394 -129 -37 -17 -71 -31 -76 -31 -5 0 -40 -15 -77 -34 -166 -83 -432 -180
-608 -222 -112 -27 -133 -28 -325 -28 -159 1 -219 5 -265 18 -138 38 -767 52
-995 22 -191 -25 -281 -50 -415 -116 -244 -121 -459 -313 -635 -570 -19 -28
-61 -86 -93 -128 -62 -82 -257 -394 -257 -410 0 -6 -4 -12 -9 -14 -12 -5 -99
-162 -248 -448 -31 -58 -75 -137 -99 -176 -24 -39 -44 -76 -44 -82 0 -7 -4
-12 -8 -12 -5 0 -17 -18 -28 -40 -10 -22 -22 -40 -26 -40 -5 0 -8 -5 -8 -11 0
-11 -87 -158 -100 -169 -3 -3 -26 -36 -50 -75 -48 -77 -158 -215 -171 -215 -5
0 -8 -4 -7 -9 2 -4 -19 -34 -47 -66 -27 -32 -52 -61 -55 -64 -22 -29 -190
-152 -317 -233 -172 -110 -270 -161 -385 -203 l-78 -28 0 -363 0 -363 80 49
c44 28 84 50 90 50 5 0 10 4 10 8 0 4 24 26 53 47 77 59 213 199 300 310 8 11
40 49 69 85 29 36 60 74 68 86 18 25 72 99 99 134 45 59 139 183 171 226 19
26 40 52 46 58 15 16 94 129 128 184 15 26 32 49 37 50 5 2 9 9 9 17 0 7 7 18
15 25 14 11 51 61 153 203 41 56 66 90 93 121 25 31 47 62 125 181 34 52 117
168 144 202 5 6 20 33 33 60 13 26 44 79 70 116 26 38 47 70 47 72 0 12 275
438 333 515 120 159 386 415 505 485 17 11 32 23 32 27 0 4 6 8 13 8 6 1 28
14 47 30 19 17 42 30 51 30 10 0 19 4 21 8 4 11 111 62 129 62 8 0 23 6 34 13
27 19 162 54 260 68 111 16 391 25 505 17 206 -14 257 -19 315 -29 414 -70
724 -73 941 -8 18 6 54 14 80 19 92 17 349 89 444 124 52 20 99 36 103 36 5 0
23 7 40 15 40 19 99 36 307 89 229 59 380 111 380 130 0 4 7 5 16 2 8 -3 13
-2 10 3 -3 5 20 19 52 31 120 47 182 69 182 63 0 -3 6 -1 13 5 11 9 130 51
146 52 2 0 -2 -7 -9 -15 -7 -8 -8 -15 -2 -15 5 0 15 7 22 15 7 8 21 15 32 15
10 0 16 5 13 10 -3 6 -3 10 2 11 46 4 67 11 78 26 7 10 17 15 21 11 4 -4 14 0
23 10 29 33 125 75 276 122 39 12 86 28 105 35 l35 13 3 146 3 146 -28 -1
c-16 -1 -37 -3 -48 -6z"/>
<path d="M7365 7700 c-11 -5 -51 -18 -90 -30 -69 -21 -135 -54 -270 -135 -193
-116 -363 -193 -560 -253 -232 -71 -306 -92 -420 -117 -182 -41 -273 -68 -465
-133 -545 -187 -643 -208 -970 -206 -172 1 -257 6 -360 22 -224 34 -803 49
-971 24 -122 -18 -394 -114 -407 -144 -2 -5 -9 -8 -14 -8 -21 0 -173 -94 -253
-156 -74 -57 -191 -171 -263 -254 -57 -67 -242 -355 -242 -378 0 -6 -3 -12 -7
-14 -5 -1 -17 -21 -28 -43 -11 -22 -52 -94 -91 -160 -39 -66 -91 -156 -114
-200 -24 -44 -51 -93 -60 -110 -10 -16 -37 -64 -60 -105 -24 -41 -47 -76 -51
-78 -5 -2 -9 -8 -9 -14 0 -5 -28 -49 -62 -96 -34 -48 -84 -118 -112 -157 -27
-38 -54 -74 -60 -80 -6 -5 -31 -37 -56 -70 -25 -33 -51 -66 -57 -73 -7 -7 -13
-17 -13 -21 0 -4 -10 -18 -23 -31 -12 -13 -35 -40 -50 -60 -16 -19 -54 -62
-85 -96 -50 -52 -96 -104 -182 -204 -12 -14 -35 -40 -51 -57 -16 -18 -57 -70
-91 -115 -60 -80 -111 -145 -217 -273 -28 -33 -67 -82 -88 -110 -55 -73 -232
-245 -252 -245 -5 0 -14 -6 -18 -14 -10 -16 -129 -94 -195 -126 l-48 -24 0
-152 0 -152 128 71 c70 39 129 74 132 78 3 4 38 26 79 49 41 23 79 46 85 51 6
5 52 38 103 73 196 137 363 280 463 397 96 113 191 199 385 348 66 51 128 99
137 106 35 29 174 92 240 110 81 21 250 17 309 -9 111 -47 181 -143 183 -251
2 -99 -74 -243 -159 -304 -102 -73 -173 -99 -440 -160 -51 -12 -129 -40 -180
-65 -397 -195 -373 -182 -525 -289 -63 -45 -154 -107 -202 -139 -52 -34 -148
-116 -239 -205 -84 -81 -163 -157 -174 -168 -30 -28 -221 -193 -277 -239 l-48
-38 0 -180 0 -180 37 28 c21 16 45 35 53 44 62 58 127 116 205 182 50 42 167
154 259 250 172 176 258 258 360 338 31 25 87 71 123 102 36 32 70 55 76 51 7
-3 9 -3 5 2 -5 5 9 19 30 33 20 14 60 44 87 66 242 200 618 305 985 276 74 -6
178 -18 230 -26 180 -30 407 -20 539 23 36 11 46 11 54 1 7 -10 8 -9 4 3 -4
11 5 19 29 28 19 7 38 9 44 6 5 -3 10 -2 10 2 0 14 58 32 81 26 15 -4 20 -2
15 5 -5 8 -2 10 9 6 8 -4 27 2 43 12 15 11 32 19 37 20 23 2 44 17 38 27 -3 6
-1 7 5 3 14 -8 55 12 47 23 -4 7 81 51 99 51 2 0 47 20 99 45 53 25 102 45
109 45 8 0 18 4 23 9 6 4 33 14 60 21 28 7 70 20 95 28 38 13 110 17 435 19
421 2 510 6 531 24 9 7 30 9 59 5 42 -7 45 -6 45 16 0 17 2 20 9 9 8 -12 14
-12 40 -1 17 7 29 15 27 19 -2 3 37 26 86 51 75 37 108 63 193 145 56 55 120
123 141 150 21 28 64 80 96 116 76 88 119 153 183 279 79 155 119 290 133 451
9 103 -10 644 -26 724 -9 46 -8 432 2 500 19 134 65 214 205 357 77 77 176
152 191 143 4 -3 10 1 13 8 3 7 49 30 103 51 55 21 108 42 119 47 88 35 168
64 256 93 57 19 184 64 283 100 98 37 217 76 265 87 47 11 94 23 104 25 16 5
17 25 17 230 0 123 -3 224 -7 223 -5 0 -17 -4 -28 -9z m-3100 -1183 c28 -9 91
-23 140 -32 141 -26 379 -86 387 -99 4 -6 8 -8 8 -4 0 13 92 -28 194 -87 122
-70 135 -82 131 -117 -2 -20 1 -25 12 -21 12 5 12 7 2 14 -8 4 -10 11 -6 15 9
10 77 -56 124 -119 50 -68 98 -188 125 -314 34 -159 32 -384 -4 -538 -26 -111
-78 -250 -135 -360 -32 -62 -99 -138 -168 -190 -66 -50 -249 -165 -262 -165
-7 0 -13 -4 -13 -10 0 -5 -5 -10 -12 -10 -6 0 -45 -13 -87 -30 -166 -65 -209
-71 -637 -80 -215 -5 -428 -14 -475 -20 -87 -11 -227 -38 -239 -45 -3 -2 -73
-16 -155 -31 -110 -20 -182 -27 -270 -27 -117 -1 -122 0 -230 42 -162 63 -201
87 -293 180 -125 128 -222 299 -222 393 0 10 -4 18 -8 18 -5 0 -9 6 -10 13 0
6 -6 46 -12 87 -7 45 -10 115 -6 175 3 55 8 134 9 175 3 62 11 93 46 175 65
152 148 309 190 360 9 11 23 33 31 48 18 35 226 239 305 298 101 75 187 129
205 129 10 0 20 7 24 15 4 11 14 14 33 9 21 -4 24 -3 14 4 -12 8 -8 13 20 25
66 28 99 36 99 24 0 -6 10 -1 23 10 44 40 171 69 447 102 41 5 199 8 350 7
220 -2 285 -6 325 -19z"/>
<path d="M3800 6374 c-283 -6 -527 -36 -665 -81 -220 -71 -417 -186 -544 -318
-63 -65 -149 -195 -178 -267 -9 -24 -19 -45 -22 -48 -13 -10 -61 -142 -82
-222 -32 -119 -32 -363 0 -493 38 -158 72 -232 147 -322 100 -118 139 -147
244 -181 96 -31 171 -42 300 -43 148 -1 260 13 429 57 199 51 494 93 507 72 9
-14 34 -9 34 7 0 8 7 15 15 15 8 0 15 -5 15 -10 0 -6 11 -5 28 3 39 20 212 21
212 1 0 -16 -16 -19 -25 -4 -8 13 -25 13 -25 0 0 -6 10 -14 23 -19 17 -6 26
-3 39 12 16 17 26 19 83 14 41 -4 64 -3 60 3 -8 13 8 13 20 1 18 -16 89 -31
99 -21 6 6 21 10 36 10 l25 1 -24 13 -23 13 23 6 c13 4 42 4 64 1 29 -4 36 -3
25 5 -13 9 -13 10 0 15 8 2 42 14 74 25 44 15 64 18 78 10 23 -13 39 -2 18 11
-13 8 -12 10 3 10 10 0 31 7 47 15 27 14 29 14 24 -2 -4 -11 -2 -14 3 -8 4 6
19 16 33 23 l25 12 -25 -6 c-23 -5 -23 -4 5 13 17 10 43 25 59 33 52 26 120
103 159 180 64 128 110 274 119 380 5 52 11 124 14 159 8 87 -18 182 -76 276
-20 33 -43 71 -51 85 -8 13 -20 31 -27 38 -7 8 -38 52 -68 99 -71 107 -122
157 -226 220 -132 81 -240 120 -443 162 -186 37 -344 49 -585 45z m234 -118
c66 -18 94 -35 75 -47 -7 -4 -3 -7 12 -7 31 0 106 -28 89 -34 -7 -2 6 -12 29
-22 40 -18 71 -15 41 4 -10 6 -11 10 -3 10 20 0 98 -48 96 -59 -2 -6 3 -8 11
-5 19 7 113 -101 148 -171 41 -83 78 -258 79 -370 1 -191 -47 -285 -216 -419
-152 -120 -289 -175 -591 -236 -79 -16 -195 -45 -257 -64 -163 -51 -290 -70
-412 -63 -169 11 -290 56 -358 134 -18 20 -37 41 -42 47 -6 6 -17 27 -25 46
-7 19 -19 42 -25 50 -21 26 -26 57 -27 163 0 93 9 159 31 212 27 66 35 82 48
105 7 14 28 54 45 90 17 36 48 85 67 110 20 24 54 70 76 102 67 96 156 181
234 224 145 80 145 80 276 128 126 46 229 78 280 86 70 12 249 4 319 -14z"/>
<path d="M3589 6120 c-76 -12 -225 -70 -307 -118 -74 -45 -142 -102 -247 -208
-74 -74 -75 -75 -116 -139 -111 -171 -120 -411 -22 -577 69 -115 134 -157 263
-165 61 -5 77 -9 73 -19 -3 -9 2 -14 12 -14 11 0 15 5 12 14 -4 11 7 15 46 18
29 2 57 0 63 -4 7 -5 17 -3 26 5 13 13 88 29 136 28 13 -1 51 8 84 19 33 11
65 17 72 14 6 -3 2 1 -8 10 -19 15 -19 16 0 22 10 3 26 8 34 11 53 18 123 32
131 27 5 -3 9 -1 9 4 0 5 21 13 48 17 89 12 271 61 337 90 77 34 150 106 190
189 42 84 45 99 47 192 1 77 -25 182 -51 212 -9 9 -23 30 -31 46 -8 16 -40 52
-71 80 -86 77 -305 227 -347 237 -54 14 -318 20 -383 9z m176 -262 c50 -27
145 -119 160 -156 19 -44 19 -145 1 -180 -58 -111 -311 -230 -495 -234 -64 -1
-76 2 -137 38 -54 31 -72 48 -91 84 -24 48 -30 95 -13 105 6 4 10 14 8 23 -5
29 62 134 122 192 59 57 143 112 207 136 50 19 197 14 238 -8z"/>
<path d="M3475 5699 c-85 -29 -139 -83 -155 -156 -10 -45 10 -69 72 -88 91
-27 276 -11 332 28 46 33 51 39 64 76 10 29 9 40 -5 70 -15 29 -30 41 -78 60
-83 32 -155 36 -230 10z"/>
<path d="M7360 7174 c-19 -9 -75 -31 -125 -49 -49 -18 -139 -54 -200 -80 -124
-52 -231 -93 -340 -130 -99 -33 -366 -151 -411 -181 -19 -13 -47 -30 -62 -38
-15 -8 -40 -26 -57 -40 -16 -13 -51 -42 -77 -63 -26 -21 -47 -44 -47 -50 -1
-7 -5 -13 -9 -13 -8 0 -45 -99 -56 -152 -13 -57 -7 -468 9 -628 9 -94 17 -278
18 -430 2 -282 -3 -323 -55 -455 -24 -60 -104 -234 -118 -255 -5 -8 -17 -28
-26 -45 -9 -16 -60 -95 -113 -175 -105 -159 -208 -275 -316 -355 -39 -28 -77
-58 -85 -66 -107 -101 -247 -190 -355 -226 l-80 -27 -340 3 c-199 1 -379 -2
-435 -9 -267 -30 -482 -94 -715 -212 -171 -86 -271 -125 -406 -157 -46 -11
-109 -25 -139 -33 -85 -20 -492 -16 -649 6 -209 31 -437 11 -586 -51 -156 -64
-370 -188 -445 -255 -86 -78 -209 -185 -295 -260 -55 -47 -158 -145 -230 -217
-362 -368 -354 -361 -520 -476 -16 -11 -45 -31 -62 -44 l-33 -25 0 -339 0
-339 26 -42 c64 -102 131 -239 158 -321 65 -207 108 -287 179 -337 18 -12 34
-25 37 -28 3 -4 50 -33 105 -65 95 -55 284 -127 530 -205 50 -15 126 -39 170
-53 133 -42 294 -130 379 -208 l54 -49 526 0 c406 1 526 3 526 13 1 7 17 24
38 38 20 14 80 57 133 95 105 76 114 82 179 121 25 14 52 32 60 39 29 24 202
125 248 145 25 11 52 17 59 15 8 -3 11 -1 8 4 -3 6 1 10 10 10 8 0 18 7 21 15
4 8 13 15 21 15 8 0 11 -5 8 -10 -3 -6 -1 -10 5 -10 6 0 10 8 8 18 -2 12 3 17
19 16 13 0 21 1 18 4 -2 2 22 24 53 48 128 97 200 189 251 324 18 47 36 94 41
105 10 22 27 114 35 190 3 28 8 68 11 90 3 22 6 58 8 80 2 22 7 48 11 58 4 10
5 33 2 51 -8 49 8 115 48 200 20 42 33 81 30 86 -3 4 -1 20 5 35 8 20 5 46 -9
104 -31 130 -56 168 -164 248 -35 27 -83 65 -108 85 -73 62 -138 108 -269 194
-69 45 -144 100 -168 124 -143 142 -168 275 -80 435 17 31 128 145 128 132 0
-5 20 6 44 23 25 16 52 30 61 30 9 0 28 6 43 13 15 8 63 22 107 31 44 10 98
25 120 33 28 11 75 16 158 16 64 0 117 3 117 7 0 3 -14 4 -31 2 -24 -3 -30 -1
-24 8 8 14 140 6 185 -10 85 -32 644 -44 935 -21 175 14 491 71 560 101 11 5
48 18 82 30 34 11 88 32 118 46 35 15 64 23 78 19 17 -5 19 -4 7 4 -13 9 -13
11 2 11 10 0 51 16 91 35 41 20 81 34 88 32 8 -2 10 -2 5 1 -5 2 25 26 65 52
104 67 279 247 279 288 0 7 19 47 41 89 62 116 79 151 79 163 0 5 4 10 9 10 5
0 11 18 15 40 3 22 11 40 16 40 6 0 10 9 10 21 0 11 5 30 12 42 6 12 12 31 14
42 3 19 17 64 35 110 4 11 13 45 19 75 7 30 21 85 31 122 11 36 19 73 19 82 0
9 3 16 8 16 4 0 8 24 9 53 1 28 7 70 12 92 24 91 36 387 20 478 -9 47 -10 84
-3 115 5 29 6 111 0 212 -16 284 20 410 157 551 101 104 216 155 327 146 36
-3 80 -9 98 -13 l32 -6 0 421 c0 231 -1 421 -2 421 -2 -1 -19 -8 -38 -16z
m-5173 -4514 c167 -29 486 -134 513 -169 11 -15 81 -53 131 -71 30 -10 81 -30
115 -44 35 -15 98 -30 149 -35 123 -14 213 -59 317 -159 141 -135 177 -224
185 -458 5 -144 4 -154 -22 -240 -26 -83 -53 -152 -65 -164 -3 -3 -20 -34 -39
-70 -19 -36 -56 -94 -81 -130 -25 -36 -62 -90 -82 -120 -20 -30 -47 -67 -61
-82 -14 -15 -31 -36 -39 -46 -30 -44 -119 -132 -165 -166 -64 -46 -165 -91
-267 -118 -69 -19 -107 -22 -256 -22 -165 0 -185 2 -345 38 -270 59 -273 59
-438 46 -261 -22 -508 12 -611 82 -57 39 -128 113 -151 158 -27 54 -51 136
-60 209 -3 30 -11 63 -17 74 -17 32 -12 290 7 395 9 50 21 95 26 98 5 3 9 16
9 28 0 83 161 387 306 577 152 199 394 369 576 404 88 17 206 12 365 -15z"/>
<path d="M1747 2529 c-110 -26 -280 -151 -382 -279 -101 -128 -208 -302 -250
-405 -52 -126 -85 -324 -85 -509 0 -233 53 -330 236 -437 183 -107 272 -125
529 -104 385 32 382 32 680 -25 79 -15 127 -19 170 -15 64 7 97 8 157 4 37 -3
64 10 41 18 -17 6 -16 23 1 23 24 0 163 77 225 124 33 25 81 74 106 107 46 60
110 169 99 169 -3 0 6 15 19 33 34 46 92 155 107 202 7 22 21 56 30 75 59 113
43 311 -35 446 -27 46 -180 181 -240 212 -22 11 -63 23 -90 27 -147 20 -286
50 -335 72 -30 14 -102 48 -158 74 -57 27 -108 49 -113 49 -5 0 -17 4 -27 9
-73 39 -208 83 -353 115 -121 27 -255 33 -332 15z m712 -526 c118 -41 204 -98
316 -208 112 -109 138 -142 182 -225 56 -105 61 -157 26 -282 -32 -118 -56
-148 -153 -196 -73 -36 -169 -50 -235 -34 -22 5 -110 30 -195 54 -85 25 -209
58 -275 73 -66 15 -133 33 -150 41 -16 7 -55 22 -85 34 -30 11 -64 25 -75 30
-11 5 -38 16 -59 25 -22 9 -54 27 -72 40 -39 30 -83 118 -82 166 1 46 22 138
42 180 31 64 195 209 237 209 10 0 23 9 29 20 6 11 19 20 30 20 10 0 21 4 24
9 3 5 16 11 28 14 13 3 64 17 113 31 129 36 251 36 354 -1z"/>
<path d="M2070 1867 c-146 -43 -165 -52 -215 -102 -81 -81 -105 -121 -112
-190 -3 -33 1 -46 24 -72 28 -33 48 -41 453 -178 66 -22 216 -66 391 -114 67
-18 114 -8 172 36 61 47 76 117 47 220 -11 36 -24 71 -30 77 -5 5 -10 16 -10
23 0 21 -57 94 -108 139 -57 50 -239 141 -307 153 -96 18 -257 22 -305 8z"/>
<path d="M7215 6233 c-78 -10 -175 -65 -175 -100 0 -7 -4 -13 -9 -13 -18 0
-61 -113 -75 -197 -28 -168 -36 -290 -40 -633 -5 -391 -12 -455 -77 -686 -22
-82 -45 -162 -49 -179 -4 -16 -17 -57 -29 -90 -11 -33 -21 -66 -21 -73 0 -7
-9 -31 -19 -55 -11 -23 -34 -78 -52 -122 -33 -79 -91 -186 -163 -298 -53 -83
-228 -256 -316 -312 -80 -51 -184 -108 -216 -118 -10 -3 -73 -26 -139 -52
-213 -83 -277 -103 -460 -144 -184 -41 -269 -52 -575 -71 -125 -8 -209 -8
-295 -1 -290 26 -444 41 -500 51 -102 17 -170 12 -281 -20 -300 -88 -427 -169
-418 -269 2 -22 13 -59 25 -82 26 -52 100 -132 148 -161 20 -12 38 -25 41 -28
3 -4 37 -25 77 -48 39 -23 78 -48 85 -55 7 -7 26 -20 41 -30 16 -10 39 -28 53
-39 13 -12 74 -58 136 -102 124 -90 174 -147 213 -243 31 -79 49 -191 40 -257
-3 -28 -18 -89 -31 -136 -14 -47 -32 -110 -40 -140 -8 -30 -18 -62 -21 -70 -9
-23 -11 -37 -23 -140 -48 -425 -123 -647 -266 -787 -65 -64 -137 -101 -306
-159 -71 -25 -153 -56 -181 -70 -44 -23 -182 -116 -197 -135 -3 -3 -58 -40
-122 -82 -65 -43 -118 -80 -118 -82 0 -3 310 -5 689 -5 l689 0 31 63 c17 34
40 76 51 92 11 17 23 38 26 47 4 10 10 18 15 18 5 0 9 5 9 10 0 38 210 342
327 475 41 46 65 96 88 181 9 32 18 64 19 69 2 6 7 19 12 30 5 11 9 67 8 125
0 104 0 106 -43 185 -24 44 -55 95 -70 115 -15 19 -36 51 -47 70 -10 19 -22
37 -25 40 -7 6 -88 153 -88 160 0 8 -12 44 -20 60 -4 8 -20 54 -35 102 -27 85
-27 89 -17 212 8 107 14 135 40 188 35 74 52 96 147 194 85 89 149 122 319
163 149 37 215 47 215 33 0 -6 -8 -13 -17 -15 -10 -3 1 -5 25 -6 27 -1 41 3
37 9 -8 13 16 13 51 0 19 -8 30 -8 38 0 7 7 1 10 -20 10 -61 0 -51 16 13 18
36 2 69 5 73 7 4 2 67 9 141 15 218 17 223 18 241 25 24 10 58 10 88 2 14 -4
19 -4 13 -1 -27 12 -11 22 55 34 37 6 84 18 106 26 34 13 38 13 33 0 -4 -10
-1 -13 8 -9 8 3 13 9 10 13 -6 10 17 18 62 24 18 2 38 8 45 13 7 6 40 18 73
28 80 24 219 94 320 159 142 93 365 303 437 413 43 65 130 240 148 298 7 22
21 60 32 85 10 25 24 56 30 70 6 14 15 34 21 45 6 11 24 47 40 80 16 33 45 79
63 102 l34 41 0 1061 0 1061 -77 -1 c-43 -1 -91 -4 -108 -6z"/>
<path d="M1715 4192 c-58 -17 -209 -94 -220 -112 -3 -5 -51 -39 -106 -76 -96
-64 -191 -151 -374 -345 -102 -107 -191 -181 -383 -319 -163 -117 -222 -154
-372 -233 -52 -27 -97 -53 -100 -57 -3 -4 -21 -15 -40 -25 -19 -10 -37 -21
-40 -24 -3 -3 -22 -15 -43 -26 l-37 -20 0 -178 0 -178 48 38 c81 65 271 233
376 333 179 170 219 205 346 301 68 52 132 99 142 104 181 106 317 178 331
177 9 0 15 3 12 9 -4 5 -1 10 4 10 26 3 30 4 37 12 4 4 18 7 31 7 13 0 22 5
21 13 -2 7 10 13 27 15 17 2 34 8 40 13 5 5 17 9 26 9 9 0 19 7 23 15 3 9 18
15 35 15 34 0 99 30 66 30 -41 1 13 27 92 44 125 27 253 72 253 89 0 4 5 5 10
2 6 -3 10 -2 10 3 0 13 56 33 73 26 7 -2 32 16 56 40 42 43 44 46 45 113 1 86
-20 120 -102 160 -73 36 -194 42 -287 15z"/>
<path d="M7388 3975 c-3 -6 -11 -39 -18 -75 -16 -96 -62 -232 -101 -300 -23
-41 -69 -139 -69 -148 0 -6 -4 -12 -8 -14 -4 -1 -25 -31 -45 -64 -20 -34 -54
-77 -75 -96 -20 -18 -45 -46 -54 -60 -30 -45 -135 -153 -206 -211 -224 -182
-434 -283 -847 -406 -221 -65 -448 -97 -835 -116 -196 -10 -329 -56 -414 -142
-70 -71 -81 -101 -80 -223 0 -92 4 -116 33 -195 47 -130 58 -154 152 -335 78
-150 104 -213 134 -335 23 -91 27 -124 23 -214 -3 -93 -7 -113 -32 -161 -16
-30 -41 -71 -56 -90 -15 -19 -35 -49 -43 -67 -23 -43 -155 -227 -253 -351 -45
-56 -97 -133 -117 -170 -19 -37 -51 -94 -71 -126 -20 -33 -36 -63 -36 -68 0
-4 195 -8 433 -8 l432 1 30 47 c16 26 36 61 44 77 9 17 19 31 23 33 4 2 10 20
14 40 4 20 26 87 50 147 64 165 72 208 69 377 -2 80 -5 150 -8 155 -3 4 -8
115 -11 246 -9 361 12 439 158 583 119 118 208 158 411 184 44 6 107 15 140
20 33 6 98 15 145 20 110 11 304 52 403 85 43 14 129 48 190 76 62 28 120 52
129 52 9 1 15 4 12 8 -2 4 16 18 41 30 66 33 178 132 218 192 20 29 47 80 62
112 15 33 31 69 36 80 11 23 8 1426 -3 1410z"/>
<path d="M7354 2268 c-44 -62 -55 -74 -109 -113 -22 -17 -42 -33 -45 -37 -11
-15 -351 -178 -433 -208 -114 -41 -126 -45 -297 -90 -80 -21 -188 -50 -240
-64 -74 -21 -127 -28 -240 -32 -80 -3 -166 -10 -192 -15 -95 -21 -167 -117
-204 -272 -21 -92 -14 -174 37 -427 18 -90 31 -191 32 -240 1 -81 -2 -96 -72
-305 -73 -217 -134 -355 -192 -427 l-30 -38 466 0 465 0 1 23 c2 62 0 144 -5
157 -2 8 -7 53 -11 100 -7 106 -9 122 -18 137 -4 6 -12 46 -17 88 -5 41 -19
121 -30 176 -34 172 -23 272 47 399 36 66 203 240 230 240 7 0 13 4 13 9 0 5
8 12 18 15 9 4 29 13 43 21 56 32 170 47 369 49 251 3 375 24 426 73 l34 32 0
400 c0 221 -2 401 -4 401 -2 0 -21 -24 -42 -52z"/>
<path d="M7335 1335 c-84 -50 -173 -65 -396 -65 -297 -1 -386 -24 -485 -126
-55 -57 -90 -118 -104 -180 -16 -69 14 -327 40 -344 5 -3 25 -54 45 -115 47
-137 58 -281 31 -412 -9 -44 -16 -83 -16 -86 0 -4 214 -7 475 -7 l475 0 0 680
c0 538 -3 680 -12 679 -7 0 -31 -12 -53 -24z"/>
<path d="M1 523 l-1 -523 681 0 c445 0 678 3 674 10 -33 54 -368 169 -625 215
-103 19 -231 55 -296 85 -49 22 -135 107 -189 186 -22 33 -43 61 -46 64 -11 8
-58 106 -80 165 -11 30 -26 61 -33 68 -14 14 -37 79 -65 182 l-20 70 0 -522z"/>
</g>
</svg>
