<svg width="144" height="144" viewBox="0 0 144 144" fill="none" xmlns="http://www.w3.org/2000/svg">
<ellipse cx="76.3637" cy="88.3636" rx="52" ry="52.3636" transform="rotate(90 76.3637 88.3636)" fill="#0A1E25"/>
<path fill-rule="evenodd" clip-rule="evenodd" d="M82.72 42.5549C84.0896 42.5488 85.6298 40.1327 86.4239 39.1006C87.9944 37.06 89.4448 34.9376 90.9182 32.8348C92.3917 30.7321 93.8612 28.6237 95.4789 26.6186C96.529 25.3167 97.7117 23.7869 99.2112 22.904C102.407 21.023 101.932 26.9535 102.002 28.4897C102.18 32.3977 102.099 36.8802 103.763 40.5433C104.756 42.7301 106.422 43.6021 108.851 43.1324C109.64 42.981 110.549 42.5329 111.318 42.9125C112.14 43.3178 112.614 44.2504 112.932 45.0243C114.09 47.8473 114.224 51.093 114.37 54.0798C114.53 57.3005 114.483 60.5515 114.495 63.7495C114.5 65.1055 115.014 66.5217 115.432 67.813C115.98 69.5059 116.595 71.1787 117.19 72.8576C118.495 76.551 119.87 80.3568 120.201 84.2644C120.409 86.7115 120.128 89.3861 118.322 91.2871C117.415 92.2416 116.066 92.7412 114.868 93.293C113.421 93.961 111.96 94.6025 110.536 95.3136C105.948 97.6044 101.466 100.875 101.24 106.184C101.206 106.987 101.317 107.776 101.338 108.575C101.35 109.084 101.221 109.537 100.659 109.726C99.2491 110.202 97.0239 108.707 95.9055 108.094C93.4574 106.751 91.1192 105.237 88.7202 103.819C87.1337 102.881 84.9656 101.257 83.0379 101.24C81.3204 101.225 80.079 103.39 79.233 104.568C78.4409 105.672 77.3325 107.673 75.7212 107.795C74.94 107.853 74.2925 107.365 73.79 106.855C72.9113 105.962 72.2914 104.932 71.2888 104.128C69.644 102.81 67.3808 101.709 65.1644 101.888C63.6286 102.012 62.6228 102.842 61.6614 103.899C61.2572 104.343 60.9712 104.703 60.3149 104.726C59.2728 104.764 58.17 104.377 57.2038 104.059C53.746 102.919 50.4023 101.3 47.2804 99.4986C45.7203 98.5986 44.1649 97.6264 42.834 96.4331C41.9601 95.6516 40.9199 94.5975 40.9211 93.4054C40.9211 92.0251 41.4468 90.5647 41.8398 89.223C42.5744 86.7172 43.4236 84.2417 44.2947 81.776C46.3102 76.0738 48.489 70.4253 50.8309 64.8304C52.4834 60.8894 54.1382 56.8649 56.335 53.1597C56.7665 52.4372 57.2695 51.7551 57.8373 51.1229C58.4336 50.4473 58.7005 49.609 58.8994 48.759C60.134 43.4832 59.1862 37.7034 58.5918 32.4056C58.4412 31.061 58.2898 29.7163 58.1844 28.3678C58.0937 27.2086 57.8337 25.8208 58.2243 24.6941C58.9932 22.474 61.8272 24.4148 62.9819 25.2353C67.0477 28.1241 70.4875 31.8512 73.9993 35.3058C75.6717 36.9483 77.3397 38.6033 79.1068 40.1565C80.0255 40.9653 81.5193 42.5602 82.72 42.5549Z" stroke="#2DD6AE" stroke-width="0.41958"/>
<path fill-rule="evenodd" clip-rule="evenodd" d="M82.9509 43.5504C84.4002 42.6649 85.4714 41.1114 86.4795 39.8219C87.9307 37.9661 89.3014 36.0521 90.7115 34.1668C92.045 32.3842 93.3937 30.5977 94.908 28.9469C95.8315 27.9402 96.9358 26.6772 98.3017 26.2004C101.262 25.1661 100.813 30.7303 100.89 32.1039C101.082 35.5188 101.126 39.3905 102.685 42.5498C103.658 44.5226 105.272 45.333 107.513 44.9123C108.289 44.7668 108.95 44.5048 109.722 44.8365C110.615 45.2202 111.171 46.1026 111.564 46.9115C112.795 49.4456 113.056 52.4409 113.274 55.1877C113.499 58.0255 113.657 60.9822 113.493 63.7287C113.427 64.827 113.799 66.0911 114.084 67.1781C114.523 68.8505 115.03 70.5059 115.501 72.17C116.459 75.552 117.382 79.0218 117.487 82.5401C117.563 85.0802 117.152 87.7286 115.562 89.8419C113.951 91.9836 111.452 92.9338 109.077 94.1214C104.971 96.1726 99.9781 98.9429 99.1105 103.688C98.9788 104.408 99.0503 105.099 99.0179 105.818C99.0016 106.188 98.9497 106.609 98.5652 106.796C97.567 107.283 95.7421 105.949 94.9775 105.5C92.8647 104.261 90.8552 102.866 88.7831 101.567C87.1378 100.535 85.3097 99.227 83.3593 98.8278C80.9926 98.3434 79.3085 101.508 77.642 102.621C74.7523 104.551 73.1058 100.895 71.7279 99.0929C70.1461 97.0232 67.2603 95.3148 64.8129 97.1701C63.8771 97.8799 63.3193 98.7532 62.098 99.0702C60.188 99.5659 58.0053 99.191 56.1172 98.7888C53.279 98.1828 50.4714 97.2239 47.9062 95.9204C46.0697 94.9864 43.1899 93.4371 43.4059 91.1682C43.55 89.6408 44.0766 88.088 44.5422 86.6008C45.2389 84.3739 46.033 82.175 46.8578 79.9879C48.7567 74.9392 50.8503 69.9461 53.1532 65.0512C54.7251 61.7112 61.1486 52.3947 61.3778 51.6937C62.0605 49.6035 61.9403 47.227 61.8345 45.0721C61.694 42.2055 61.3299 39.3534 60.9925 36.5035C60.8328 35.1469 60.6376 33.7835 60.5589 32.4198C60.503 31.4491 60.4551 30.1743 61.0504 29.3241C62.2118 27.6645 64.8692 29.5135 65.9935 30.2781C69.4402 32.6205 72.425 35.5836 75.4769 38.3619C76.9753 39.7253 78.4713 41.1095 80.0899 42.3472C80.7434 42.8463 82.0558 44.0976 82.9509 43.5504Z" stroke="#2DD6AE" stroke-width="0.41958"/>
<path fill-rule="evenodd" clip-rule="evenodd" d="M83.6942 44.7753C86.5943 42.3571 88.7513 39.0196 91.1734 36.1391C92.3895 34.6933 93.6387 33.2385 95.0872 31.9915C95.8404 31.3429 96.7929 30.5329 97.8428 30.408C100.651 30.074 100.272 35.089 100.378 36.59C100.585 39.4921 100.742 42.7706 102.175 45.4035C103.052 47.0121 104.49 47.8042 106.38 47.5036C107.219 47.3703 107.931 47.1628 108.755 47.5036C109.589 47.8489 110.177 48.5684 110.619 49.2969C111.888 51.3906 112.294 53.9924 112.596 56.3496C112.948 59.1148 113.086 61.9008 113.007 64.6851C112.94 67.1238 113.699 69.5506 114.199 71.9317C114.862 75.086 115.441 78.2974 115.353 81.5252C115.284 84.0743 114.738 86.6436 113.287 88.8228C111.809 91.0372 109.598 92.3686 107.211 93.569C103.603 95.3836 98.7685 97.645 97.3983 101.626C97.1986 102.205 97.1766 102.744 97.1419 103.342C97.1251 103.632 97.1199 104.006 96.8008 104.15C96.0325 104.496 94.5428 103.217 94.0237 102.86C92.3663 101.72 90.7836 100.484 89.1482 99.316C87.6215 98.2255 86.0304 97.0376 84.2413 96.3602C81.3918 95.2821 79.7257 98.7287 77.0104 98.6321C75.3247 98.5719 74.1158 97.0417 73.2796 95.83C72.2512 94.3381 71.5751 92.1899 69.6985 91.4432C68.3007 90.8869 67.4872 91.7597 66.4265 92.4319C64.6294 93.5709 62.1933 93.6485 60.113 93.53C57.3019 93.3702 54.4492 92.7458 51.8654 91.6829C50.694 91.2012 49.4756 90.6112 48.5658 89.7426C47.7132 88.9288 47.4947 88.1586 47.6693 87.0711C48.2044 83.7419 49.696 80.3805 51.0283 77.1879C52.7024 73.1767 54.5507 69.2208 56.6302 65.383C58.0483 62.7661 59.5487 60.09 61.508 57.7931C62.0188 57.1944 62.5739 56.5813 63.2476 56.1436C63.754 55.8126 64.1721 55.6721 64.4613 55.1144C65.3179 53.4611 65.0938 51.1615 65.0048 49.3901C64.863 46.5577 64.4856 43.7389 64.1458 40.9239C63.9461 39.2812 63.3179 36.1868 64.8247 34.8751C66.1258 33.7429 68.3443 35.1091 69.4904 35.807C72.389 37.5723 74.9329 39.8432 77.5524 41.9501C78.7528 42.9157 79.9625 43.9191 81.2972 44.7166C81.6374 44.9203 82.0883 45.2467 82.5017 45.3028C82.9753 45.3656 83.3367 45.0722 83.6942 44.7753Z" stroke="#2DD6AE" stroke-width="0.41958"/>
<path fill-rule="evenodd" clip-rule="evenodd" d="M83.0189 44.9833C85.5832 42.7489 87.6898 40.0569 90.0895 37.6581C91.1654 36.5825 92.294 35.4963 93.6066 34.6768C94.3124 34.2359 95.2008 33.7678 96.0781 33.8894C98.596 34.2382 98.3686 38.3629 98.5161 40.0293C98.7327 42.5053 98.9509 45.3499 100.309 47.5393C101.198 48.9735 102.511 49.5113 104.205 49.2436C106.022 48.9561 107.341 49.5988 108.354 51.0614C109.624 52.8952 110.142 55.21 110.509 57.3391C110.95 59.9044 111.146 62.5021 111.093 65.1007C111.042 67.6279 111.489 70.0763 111.78 72.5869C112.164 75.9155 112.354 79.3509 111.565 82.642C110.878 85.5074 109.364 88.0956 107.023 90.0358C104.579 92.0623 101.501 93.0655 98.7975 94.7111C97.1113 95.7374 94.8807 97.1686 94.2252 99.0865C94.0066 99.7261 94.3016 100.892 93.2261 100.381C92.611 100.089 92.0714 99.5424 91.5686 99.1107C90.7561 98.4131 89.966 97.6924 89.1646 96.983C87.4564 95.4712 85.7119 93.8521 83.6891 92.719C81.1424 91.2912 79.1825 93.4136 76.6002 93.1549C75.2105 93.0159 74.1015 92.1002 73.2302 91.1314C72.6658 90.5046 72.177 89.8187 71.721 89.1185C71.2446 88.3872 70.8817 87.5218 70.2658 86.884C69.3893 85.9751 68.3518 86.3697 67.2187 86.5401C65.2275 86.8401 63.2048 86.906 61.1965 86.7363C58.7349 86.5288 56.203 86.0421 53.9661 85.0169C53.0952 84.6181 52.172 84.1129 51.588 83.3627C51.0041 82.6124 51.0441 81.8364 51.2199 80.9767C51.7395 78.4268 52.9485 75.8821 54.0944 73.4632C55.5288 70.4357 57.1319 67.4677 58.9556 64.6333C60.2145 62.6768 61.5746 60.7139 63.2816 59.0771C63.7784 58.601 64.3103 58.1481 64.9042 57.7819C65.3115 57.5304 65.8371 57.3956 66.1432 57.0312C67.0988 55.8913 66.8135 53.6027 66.7579 52.2658C66.6472 49.5977 66.1208 46.9716 65.993 44.3069C65.923 42.8526 65.7472 40.575 67.0537 39.507C68.2819 38.5026 70.2163 39.4123 71.3997 40.0126C73.7266 41.1923 75.7997 42.7773 77.9627 44.1978C78.8527 44.7818 79.784 45.4219 80.8003 45.8002C81.706 46.1365 82.3614 45.5559 83.0189 44.9833Z" stroke="#2DD6AE" stroke-width="0.41958"/>
<path fill-rule="evenodd" clip-rule="evenodd" d="M82.9771 45.5327C85.2336 43.7541 87.2366 41.61 89.5298 39.8186C90.8728 38.77 93.1305 36.9642 95.0238 37.7751C97.1043 38.6648 97.161 41.7659 97.3286 43.5585C97.5281 45.692 97.8007 48.1975 99.0998 50.0234C99.5105 50.6008 100.054 51.0928 100.77 51.3013C101.536 51.5245 102.207 51.2805 102.974 51.2487C104.583 51.1821 105.875 52.0925 106.762 53.2974C108.016 55.0003 108.609 57.1297 109.023 59.1409C109.489 61.4196 109.719 63.7361 109.709 66.0573C109.701 68.2756 109.753 70.4704 109.813 72.6909C109.893 75.5949 109.764 78.5398 108.95 81.3567C108.148 84.1316 106.645 86.6545 104.433 88.6363C102.275 90.5696 99.6378 91.874 96.9511 93.0165C95.4261 93.6647 93.1473 94.7598 92.377 96.3061C92.0342 96.9936 92.0577 97.6684 91.1661 96.9373C90.0435 96.0166 89.1427 94.7757 88.1825 93.7094C86.7968 92.1711 85.384 90.5942 83.7365 89.3031C82.6845 88.4785 81.6636 88.1111 80.3015 88.1678C79.2639 88.2117 78.237 88.4108 77.1953 88.3101C74.7505 88.0743 73.0739 86.2492 71.5126 84.6357C70.5085 83.5977 69.7426 82.6497 68.3142 82.1154C66.626 81.4835 64.7894 81.2182 63.0366 80.7959C61.1117 80.3319 59.1094 79.7961 57.4141 78.7834C55.9047 77.8821 55.2278 76.7858 55.6345 75.145C56.2683 72.5857 57.8295 70.0632 59.2739 67.7912C60.7433 65.4787 62.3956 63.2059 64.4154 61.2896C65.5062 60.255 66.7869 59.5489 67.9586 58.6301C69.4297 57.4744 68.8726 54.8599 68.748 53.3061C68.5413 50.7268 66.9944 42.6109 72.0047 43.3598C74.0959 43.6724 76.026 44.9034 77.8714 45.8036C78.6373 46.1767 79.5564 46.7168 80.434 46.8011C81.3898 46.8931 82.2978 46.0674 82.9771 45.5327Z" stroke="#2DD6AE" stroke-width="0.41958"/>
<path fill-rule="evenodd" clip-rule="evenodd" d="M82.7854 46.4719C84.8302 45.1128 86.7621 43.4862 88.9706 42.32C90.4009 41.5635 92.312 40.8205 93.8254 41.7965C95.5332 42.898 95.9313 45.3269 96.1489 47.1116C96.3729 48.9504 96.5614 51.1455 97.8564 52.6484C98.2688 53.1265 98.8251 53.5207 99.4911 53.5941C100.13 53.6648 100.769 53.4651 101.419 53.5313C102.88 53.6796 104.084 54.519 104.956 55.6012C107.539 58.8025 108.113 63.5673 108.18 67.4298C108.214 69.3632 108.038 71.3529 107.912 73.2988C107.748 75.8237 107.397 78.3525 106.55 80.7606C104.75 85.8805 100.757 89.3122 95.7896 91.709C94.2259 92.4633 92.534 93.0405 91.2774 94.2226C90.6285 94.832 90.1625 94.6989 89.5708 94.0759C88.646 93.1018 87.9392 91.9136 87.1674 90.8325C86.0697 89.2948 84.9556 87.7243 83.6407 86.3644C82.7343 85.427 81.861 84.7616 80.5018 84.5596C79.5326 84.4155 78.5452 84.4492 77.5701 84.3625C75.7177 84.1976 73.8793 83.6328 72.3427 82.6331C71.1249 81.8387 70.018 80.893 68.9626 79.9155C67.5886 78.6449 66.1926 77.5702 64.5619 76.6053C62.4032 75.3259 58.4214 73.5284 59.4751 70.515C60.6379 67.1915 63.5924 64.0764 66.455 61.9441C67.4161 61.228 68.5949 60.6402 69.3036 59.6745C70.363 58.2287 70.3259 56.7618 70.3215 55.0421C70.3155 52.4676 69.7257 46.8653 73.7954 46.8048C75.4078 46.781 76.9324 47.4422 78.4833 47.7588C80.2202 48.1159 81.3918 47.4002 82.7854 46.4719Z" stroke="#2DD6AE" stroke-width="0.41958"/>
<path fill-rule="evenodd" clip-rule="evenodd" d="M82.6031 47.4842C85.2682 46.1398 89.6475 43.1252 92.6111 45.418C94.1773 46.6292 94.7658 48.7714 95.1166 50.5684C95.4003 52.0146 95.5068 53.7587 96.7095 54.8513C97.5937 55.6545 98.8806 55.2979 99.9875 55.6056C101.36 55.9875 102.483 56.8641 103.327 57.9413C105.685 60.9513 106.409 65.1366 106.563 68.7576C106.723 72.5182 105.976 76.6618 104.54 80.2006C102.749 84.613 99.357 87.9187 95.0619 90.2304C94.269 90.657 93.4554 91.0445 92.653 91.4541C92.1147 91.7292 91.594 92.1372 91.0277 92.3541C90.0837 92.7152 89.3119 92.2898 88.6966 91.6077C87.8108 90.6267 87.1803 89.4216 86.5156 88.3032C85.6058 86.7737 84.7124 85.2102 83.645 83.7875C82.9267 82.8315 82.153 81.8308 80.9068 81.4886C80.0569 81.2551 79.1567 81.2066 78.2765 81.215C76.3891 81.2331 74.8628 81.1393 73.1342 80.3043C70.2963 78.9304 67.7446 76.8177 65.6214 74.5858C63.955 72.8342 61.3665 70.0626 62.4806 67.5105C63.4782 65.2206 65.866 63.8812 67.7964 62.3726C68.735 61.6391 69.5921 60.8151 70.2596 59.8469C71.1012 58.6263 71.4543 57.4773 71.592 56.0311C71.8238 53.597 71.8841 49.9269 74.9646 49.1745C76.1014 48.8967 77.2789 49.0552 78.4305 48.9095C79.9532 48.7191 81.2588 48.1624 82.6031 47.4842Z" stroke="#2DD6AE" stroke-width="0.41958"/>
<path fill-rule="evenodd" clip-rule="evenodd" d="M82.5044 48.8821C85.4206 47.9248 89.0957 46.6672 91.6874 48.9794C92.943 50.0993 93.6448 51.6747 94.1694 53.1993C94.5453 54.2913 94.6559 56.0251 95.8116 56.6946C96.662 57.1863 97.8353 57.2544 98.7465 57.6992C99.9992 58.3105 101.031 59.2364 101.839 60.3227C103.944 63.1526 104.757 66.8386 104.99 70.1999C105.495 77.5037 101.47 84.9353 94.8488 88.8436C92.8751 90.009 90.7743 91.5132 88.7577 89.63C86.5579 87.5739 85.5272 84.4765 83.9641 82.0225C83.3673 81.0848 82.6498 79.89 81.5693 79.3669C80.9197 79.0522 80.1048 79.0306 79.3898 79.0163C77.5686 78.9784 75.9308 78.8351 74.2314 78.141C71.6053 77.0691 69.1825 75.3598 67.1979 73.4229C65.4674 71.7337 63.4337 69.3247 64.6813 66.8715C65.64 64.9905 67.6749 63.7975 69.1749 62.336C70.8455 60.7096 71.9712 58.6981 72.5213 56.4892C73.055 54.3405 73.4149 51.9837 75.6823 50.8512C76.4601 50.4628 77.4671 50.0569 78.328 49.9113C79.7473 49.6762 81.1441 49.332 82.5044 48.8821Z" stroke="#2DD6AE" stroke-width="0.41958"/>
<path fill-rule="evenodd" clip-rule="evenodd" d="M82.4838 50.4409C85.4285 49.998 88.499 49.9488 90.8198 52.0065C91.9025 52.9668 92.6718 54.1807 93.3687 55.4083C93.8815 56.3115 94.314 57.2442 95.1547 57.9187C95.9331 58.5437 96.8369 59.0188 97.6357 59.6221C98.6943 60.4181 99.6106 61.3704 100.35 62.4426C102.198 65.1301 103.063 68.3995 103.363 71.5273C103.509 73.0415 103.585 74.6839 103.187 76.1878C102.804 77.6402 102.197 79.0764 101.491 80.4118C99.9893 83.2508 97.7907 85.7113 95.011 87.4949C93.1043 88.718 91.2503 89.3792 89.3161 87.7955C87.1359 86.0099 85.9329 83.2103 84.5179 80.9028C83.5474 79.3202 82.5961 77.5464 80.5336 77.2507C78.8926 77.0153 77.3349 76.8241 75.7837 76.2151C73.4957 75.3086 71.423 73.9758 69.6887 72.2957C68.1087 70.7593 66.768 68.8155 67.6119 66.6178C68.2817 64.8765 69.7822 63.5256 70.8549 62.0042C72.0531 60.3088 72.7137 58.446 73.2448 56.4845C73.7241 54.7217 74.4606 53.0618 76.0242 51.9224C76.3437 51.6893 76.6915 51.4443 77.049 51.2645C77.5051 51.0352 77.9572 51.0529 78.4684 51.0079C79.8175 50.8906 81.1511 50.6411 82.4838 50.4409Z" stroke="#2DD6AE" stroke-width="0.41958"/>
<path fill-rule="evenodd" clip-rule="evenodd" d="M82.7245 52.1594C85.5215 52.1973 88.1649 52.8348 90.3447 54.5809C91.2771 55.3274 92.0452 56.2188 92.8996 57.0402C93.5885 57.7016 94.2285 58.3266 94.7962 59.0871C96.1403 60.8911 97.8796 62.3572 99.0765 64.2744C100.677 66.8336 101.561 69.7651 101.915 72.6739C102.087 74.0942 102.148 75.5615 101.953 76.9984C101.785 78.2326 101.197 79.4146 100.595 80.5111C99.4153 82.6602 97.7392 84.7468 95.6186 86.1422C90.9435 89.2186 87.5445 83.1532 85.5539 80.04C84.6382 78.6084 83.5778 76.4207 81.764 75.8342C80.4683 75.415 79.1507 75.1596 77.895 74.6197C74.5227 73.1695 70.5564 70.2255 71.0845 66.3023C71.3101 64.6236 72.2266 63.0935 72.8418 61.5264C73.4755 59.9127 73.8287 58.2472 74.2163 56.5699C74.5783 55.0024 75.0936 53.7531 76.4749 52.7406C77.1345 52.2567 77.9242 52.2994 78.7334 52.2563C80.0627 52.1859 81.3996 52.1424 82.7245 52.1594Z" stroke="#2DD6AE" stroke-width="0.41958"/>
<path fill-rule="evenodd" clip-rule="evenodd" d="M83.0828 53.7243C87.3046 54.3546 91.9137 56.6955 94.3655 60.1374C97.2496 64.1861 99.6783 68.5723 100.376 73.4097C100.7 75.6524 100.859 78.1091 99.8008 80.2254C98.9957 81.8359 97.7921 83.7067 96.0995 84.593C91.9596 86.7615 88.6639 81.9382 86.7486 79.1902C85.7175 77.7107 84.7127 75.8274 83.207 74.7123C82.3339 74.0653 81.1791 73.735 80.2202 73.2127C77.3145 71.6298 74.9709 69.0242 74.5518 65.7785C74.3582 64.2778 74.5977 62.7661 74.7881 61.2767C74.9829 59.7522 75.0887 58.2087 75.3605 56.6936C75.5777 55.4841 75.9453 54.0588 77.3109 53.6134C79.0318 53.0516 81.3587 53.4672 83.0828 53.7243Z" stroke="#2DD6AE" stroke-width="0.41958"/>
<path fill-rule="evenodd" clip-rule="evenodd" d="M83.7611 55.2589C87.7303 56.1781 91.602 58.1246 93.9716 61.3969C95.2281 63.1322 96.0954 65.1466 96.9524 67.0806C97.9236 69.2728 98.6775 71.5633 99.0515 73.9027C99.5173 76.8154 99.9372 81.5329 96.4354 83.0547C92.9596 84.5651 89.8833 80.7483 88.1302 78.4912C87.0072 77.0441 85.9764 75.4954 84.7487 74.1128C84.0831 73.363 83.314 72.7855 82.5334 72.1511C80.3704 70.3976 78.658 67.8978 77.7439 65.3498C76.8578 62.8804 76.4655 59.8254 76.7583 57.2187C76.8842 56.0939 77.3088 55.29 78.5162 54.9498C80.1946 54.4785 82.1215 54.8789 83.7611 55.2589Z" stroke="#2DD6AE" stroke-width="0.41958"/>
<path fill-rule="evenodd" clip-rule="evenodd" d="M84.8301 56.7838C88.3248 57.697 91.5168 59.6666 93.6143 62.5396C95.9656 65.7601 97.2722 69.907 97.9366 73.7185C98.2895 75.7445 99.2463 80.1349 96.5079 81.1675C93.7695 82.2002 91.0708 79.2149 89.5852 77.4967C87.785 75.4113 86.0467 73.163 84.4314 70.9173C83.027 68.9662 81.5912 66.8843 80.5066 64.7709C79.8914 63.579 79.389 62.3374 79.0055 61.0608C78.7238 60.1155 78.3037 58.9134 78.5134 57.9223C79.0429 55.4225 83.1591 56.3471 84.8301 56.7838Z" stroke="#2DD6AE" stroke-width="0.41958"/>
<path fill-rule="evenodd" clip-rule="evenodd" d="M85.8766 58.6662C92.4856 60.6698 95.736 67.0178 96.869 73.1299C97.132 74.5502 98.0802 78.5317 96.0613 79.3256C94.1038 80.0949 91.7825 77.6482 90.6826 76.5028C87.2746 72.9534 84.7477 68.5682 82.2443 64.4128C81.4629 63.1157 79.7673 60.7764 80.5495 59.1675C81.4003 57.4206 84.5062 58.2511 85.8766 58.6662Z" stroke="#2DD6AE" stroke-width="0.41958"/>
<path fill-rule="evenodd" clip-rule="evenodd" d="M87.1486 60.7184C92.0156 62.4608 94.807 67.5288 95.7273 72.1883C95.9524 73.3296 96.6535 76.2281 95.2953 77.0925C94.0389 77.8924 92.2184 75.9835 91.495 75.2693C89.8841 73.6793 88.5571 71.795 87.2815 69.9335C86.1014 68.2123 84.8917 66.4725 83.8937 64.6614C83.3683 63.7075 82.2472 61.9184 83.0585 60.8344C83.9312 59.6674 86.0679 60.3315 87.1486 60.7184Z" stroke="#2DD6AE" stroke-width="0.41958"/>
<path fill-rule="evenodd" clip-rule="evenodd" d="M88.5706 62.98C91.7489 64.308 93.8129 67.8649 94.4987 71.0025C94.6829 71.8468 95.1606 73.6715 94.3118 74.3837C93.5301 75.0394 92.3841 73.9826 91.8548 73.5136C89.5089 71.4351 87.4134 68.3912 86.1264 65.6023C85.8028 64.9011 85.1677 63.6406 85.8208 62.9193C86.4915 62.1793 87.8408 62.6749 88.5706 62.98Z" stroke="#2DD6AE" stroke-width="0.41958"/>
<path fill-rule="evenodd" clip-rule="evenodd" d="M89.9058 65.3793C91.484 66.1276 92.6748 68.0835 93.0538 69.7037C93.3203 70.8439 93.0901 72.2145 91.7163 71.2208C90.353 70.2336 89.1078 68.4019 88.5557 66.8495C88.1348 65.665 88.5501 64.7367 89.9058 65.3793Z" stroke="#2DD6AE" stroke-width="0.41958"/>
<path fill-rule="evenodd" clip-rule="evenodd" d="M78.9745 4.69379C82.0926 4.6458 85.3331 3.07552 88.5102 3.85102C91.1196 4.48782 91.3374 7.69375 92.5196 9.61701C93.4588 11.1453 95.1226 12.0127 96.7189 12.8392C98.1521 13.5818 99.6283 14.2488 101.038 15.0312C101.949 15.5376 103.739 16.4072 103.771 17.5054C103.802 18.5568 102.408 19.5209 101.583 20.1316C100.509 20.9279 99.3634 21.6339 98.2718 22.4071C96.4305 23.7102 95.0675 25.2737 93.7776 27.0639C92.3099 29.1011 90.8923 31.172 89.5249 33.2766C88.515 34.8261 87.5128 36.3861 86.4032 37.8755C85.707 38.8098 84.4007 40.8717 83.1172 40.8812C82.5047 40.8857 81.8265 40.3358 81.3369 39.9651C80.5082 39.3377 79.7506 38.6227 79.0092 37.9054C77.6284 36.5694 76.3101 35.1768 74.9759 33.7992C73.2443 32.0113 71.5411 30.3034 69.5753 28.7317C67.5404 27.1066 65.4386 25.5541 63.3655 23.9698C61.9611 22.8969 60.3839 21.8251 59.5221 20.2775C58.4448 18.3391 59.5807 16.7481 59.5939 14.7878C59.6055 13.1015 63.7294 13.2258 64.876 13.0115C66.0367 12.7965 67.1171 12.3226 68.2806 12.1389C69.7329 11.9099 71.2187 11.9069 72.6865 11.8505C74.482 11.7821 76.1912 11.7549 76.8759 9.93673C77.2649 8.90198 77.3467 7.78257 77.5797 6.71153C77.7309 6.01766 77.9894 4.70891 78.9745 4.69379Z" stroke="#2DD6AE" stroke-width="0.41958"/>
<path fill-rule="evenodd" clip-rule="evenodd" d="M79.5292 5.52278C82.1429 5.34603 85.4882 4.30175 88.1862 5.28925C90.4919 6.13292 90.7908 8.77142 92.0019 10.5481C93.0009 12.0148 94.6356 12.6677 96.2415 13.4008C97.5298 13.989 98.8305 14.5594 100.078 15.2271C100.997 15.7191 102.548 16.4704 102.738 17.4935C102.909 18.4133 101.54 19.3996 100.843 19.9159C99.8254 20.6691 98.7206 21.3133 97.6389 21.9787C95.7389 23.1479 94.0302 24.3451 92.6345 26.0562C91.2327 27.775 90.1846 29.6554 89.0937 31.5558C88.2402 33.0425 87.3619 34.5217 86.3765 35.9343C85.6429 36.9865 84.7038 38.4993 83.3956 38.9808C82.3607 39.3619 80.6432 37.4289 80.0371 36.8589C78.7907 35.6856 77.6208 34.4422 76.458 33.1966C75.041 31.6781 73.8019 30.1111 72.1856 28.7701C69.2957 26.3715 65.6971 24.3666 63.5493 21.2804C62.2538 19.4189 61.9226 17.3474 62.1164 15.277C62.1931 14.4572 63.4146 14.2604 64.1271 14.1571C65.3107 13.9852 66.5146 13.9636 67.703 13.8315C68.8154 13.7078 69.8723 13.433 70.9632 13.2116C72.0685 12.9875 73.2009 12.9247 74.3138 12.7596C75.0046 12.6575 75.8086 12.5564 76.364 12.1094C76.9391 11.6469 77.18 10.8838 77.363 10.2169C77.7035 8.96446 77.6847 5.64769 79.5292 5.52278Z" stroke="#2DD6AE" stroke-width="0.41958"/>
<path fill-rule="evenodd" clip-rule="evenodd" d="M80.6234 6.58991C83.0226 6.29264 86.0108 5.87647 88.2212 7.08751C90.0286 8.07739 90.4185 10.1886 91.5961 11.6965C92.5754 12.9507 94.133 13.4244 95.5804 14.047C96.7676 14.5578 97.96 15.0713 99.0898 15.6905C99.9466 16.1601 101.108 16.7652 101.407 17.6975C101.663 18.4947 100.518 19.3952 99.949 19.8371C98.9784 20.5895 97.891 21.203 96.8179 21.8123C95.062 22.809 93.1864 23.7262 91.7581 25.1448C90.3722 26.5232 89.5541 28.1606 88.6342 29.8287C87.9295 31.1064 87.1976 32.3761 86.3572 33.58C85.7123 34.5044 84.9481 35.6499 83.875 36.1316C82.9496 36.5481 81.8541 35.4787 81.2012 34.9444C80.1238 34.0621 79.1353 33.0828 78.1428 32.1171C77.0721 31.075 76.0844 29.9207 74.9874 28.9123C72.6788 26.7917 70.1228 25.0974 68.3541 22.4837C67.2084 20.791 66.1676 18.5132 66.3548 16.5122C66.4897 15.0732 69.8506 15.1679 70.9245 15.0297C72.6804 14.8025 74.5253 14.3636 76.1427 13.6664C77.5286 13.0677 77.956 11.645 78.2669 10.3363C78.4621 9.5164 78.5674 8.65716 78.8691 7.86419C79.2187 6.94626 79.6178 6.7145 80.6234 6.58991Z" stroke="#2DD6AE" stroke-width="0.41958"/>
<path fill-rule="evenodd" clip-rule="evenodd" d="M81.7479 7.58527C83.7763 7.40827 86.1749 7.44807 87.9295 8.59456C89.4664 9.59931 89.8711 11.3882 91.0818 12.6606C92.0263 13.6536 93.5664 14.0435 94.8156 14.5776C96.3428 15.2302 99.1637 16.1448 99.7384 17.7912C100.273 19.3227 96.8595 20.9244 95.8418 21.4789C94.2308 22.3567 92.4642 23.0908 90.9765 24.1555C89.6958 25.0723 88.9877 26.3006 88.2269 27.6044C87.2551 29.2667 86.1028 31.7906 84.2089 32.6793C82.7977 33.3418 80.6997 31.1876 79.7219 30.4519C78.7005 29.6825 77.4898 29.103 76.5044 28.309C74.9495 27.056 73.6976 25.0257 72.7422 23.3493C71.8129 21.7196 70.7843 19.6032 70.8455 17.7544C70.8855 16.5393 72.8659 16.3081 73.8333 16.0489C75.2085 15.6774 76.4408 15.1836 77.3761 14.1228C78.3283 13.043 78.777 11.7703 79.1696 10.4324C79.3697 9.74561 79.5258 8.9622 79.93 8.34783C80.3699 7.66903 80.9682 7.65349 81.7479 7.58527Z" stroke="#2DD6AE" stroke-width="0.41958"/>
<path fill-rule="evenodd" clip-rule="evenodd" d="M82.917 8.79776C84.6694 8.80759 86.5381 9.18725 87.8898 10.313C89.0157 11.2507 89.3921 12.7183 90.5431 13.6159C91.4543 14.3269 92.7336 14.6888 93.7918 15.1648C95.0885 15.747 97.3539 16.5702 97.8039 18.0178C98.242 19.4307 95.7468 20.6804 94.7595 21.2221C93.3118 22.0155 91.7773 22.6577 90.3336 23.4582C89.2009 24.0853 88.4709 24.8522 87.7409 25.8733C86.8834 27.072 85.9335 28.7445 84.5149 29.3848C83.4878 29.8464 81.8465 28.729 80.9416 28.3232C80.3339 28.0512 79.7166 27.8023 79.0578 27.6655C78.5449 27.559 78.0701 27.5484 77.6296 27.2398C76.5217 26.4627 76.3771 24.7589 76.0119 23.6029C75.5272 22.0676 74.9764 20.4386 74.8712 18.8319C74.8055 17.8444 75.7658 17.3405 76.4412 16.7768C77.2397 16.1108 77.814 15.1679 78.4166 14.3443C79.2132 13.2574 79.7086 12.0746 80.216 10.851C80.445 10.2991 80.6696 9.65079 81.1248 9.22314C81.5968 8.77661 82.2846 8.79436 82.917 8.79776Z" stroke="#2DD6AE" stroke-width="0.41958"/>
<path fill-rule="evenodd" clip-rule="evenodd" d="M83.9574 10.0715C85.4292 10.2667 86.8358 10.8748 87.8762 11.9019C88.675 12.6892 89.1247 13.7348 90.0845 14.3667C90.9791 14.9555 91.9964 15.3658 92.9529 15.8522C93.9642 16.3668 95.6544 17.1315 95.9296 18.3185C96.2259 19.5979 94.5209 20.5834 93.576 21.1291C92.3818 21.8184 91.0969 22.3422 89.8616 22.9586C88.9409 23.423 88.0988 24.0153 87.3634 24.7159C86.5882 25.4507 85.8457 26.4472 84.7798 26.8189C83.8356 27.1475 82.6933 26.5326 81.736 26.4241C80.7131 26.308 79.6388 26.5115 78.7605 25.8678C76.9493 24.5405 77.2852 21.2092 77.2464 19.3048C77.2065 17.4257 78.3148 15.9149 79.3692 14.3943C80.0653 13.3899 80.6548 12.3439 81.3035 11.3142C81.9652 10.2644 82.6622 9.89986 83.9574 10.0715Z" stroke="#2DD6AE" stroke-width="0.41958"/>
<path fill-rule="evenodd" clip-rule="evenodd" d="M84.7998 11.2548C86.9319 11.8318 88.0652 13.6341 89.6765 14.9225C90.9956 15.9767 93.7273 16.7672 94.0887 18.5426C94.4988 20.5583 90.8793 21.765 89.4826 22.4658C87.9337 23.2434 86.6737 24.6283 85.034 25.2042C84.1734 25.5069 83.3703 25.247 82.5101 25.0858C81.5656 24.9091 80.5998 24.7763 79.8395 24.1663C78.3434 22.9656 78.3537 20.6207 78.3126 18.932C78.2698 17.1838 79.2951 15.6373 80.3184 14.2445C81.4021 12.7672 82.6133 10.6637 84.7998 11.2548Z" stroke="#2DD6AE" stroke-width="0.41958"/>
<path fill-rule="evenodd" clip-rule="evenodd" d="M85.3779 12.2213C86.897 12.8715 88.132 14.2379 89.2978 15.3466C90.2697 16.272 92.2263 17.2676 92.3658 18.6786C92.5303 20.3369 90.441 21.342 89.1599 21.9945C87.9011 22.6367 86.5719 23.5621 85.1903 23.9177C83.7511 24.2886 81.8128 23.301 80.7944 22.3592C79.6587 21.3088 79.2391 19.5903 79.2844 18.1156C79.3305 16.5716 80.2691 15.1549 81.2426 13.9856C82.2833 12.7354 83.6144 11.4651 85.3779 12.2213Z" stroke="#2DD6AE" stroke-width="0.41958"/>
<path fill-rule="evenodd" clip-rule="evenodd" d="M85.6639 13.1182C86.9274 13.7393 87.9962 14.8159 88.9496 15.8086C89.6856 16.5747 90.9371 17.7051 90.9678 18.8103C91.0016 20.0262 89.9511 21.0567 88.8743 21.54C87.8123 22.0166 86.4807 22.5186 85.3156 22.59C82.7782 22.7449 79.936 19.5913 80.1673 17.2232C80.3866 14.978 83.1465 11.8798 85.6639 13.1182Z" stroke="#2DD6AE" stroke-width="0.41958"/>
<path fill-rule="evenodd" clip-rule="evenodd" d="M85.8033 13.9474C87.4495 14.8043 89.7964 16.8856 89.8522 18.8124C89.9159 21.0241 87.3042 21.5793 85.4116 21.2911C83.4799 20.9982 80.6839 18.4483 81.0617 16.415C81.4304 14.4306 83.8509 12.932 85.8033 13.9474Z" stroke="#2DD6AE" stroke-width="0.41958"/>
<path fill-rule="evenodd" clip-rule="evenodd" d="M86.0694 14.8232C87.4478 15.5487 89.1694 17.0968 89.2215 18.7114C89.2832 20.6352 87.0782 20.5989 85.7058 20.1627C84.2809 19.709 81.8473 17.7111 82.2315 16.0265C82.6066 14.3885 84.7484 14.128 86.0694 14.8232Z" stroke="#2DD6AE" stroke-width="0.41958"/>
<path fill-rule="evenodd" clip-rule="evenodd" d="M86.228 15.5859C87.2115 16.0647 88.4546 17.2632 88.4944 18.4025C88.5422 19.7951 86.7933 19.5244 85.9492 19.1646C84.9448 18.7369 83.1995 17.3034 83.4824 16.1004C83.7608 14.9159 85.4177 15.1908 86.228 15.5859Z" stroke="#2DD6AE" stroke-width="0.41958"/>
<path fill-rule="evenodd" clip-rule="evenodd" d="M30.0335 81.0954C28.0603 78.0131 26.4314 74.5285 24.7759 71.2426C22.3568 66.4407 20.0028 61.5681 18.2007 56.5225C17.2349 53.8174 15.8423 50.3121 16.5991 47.4094C16.8757 46.3482 17.7122 45.3804 18.2558 44.4289C19.0054 43.1168 19.7178 41.7854 20.4318 40.4563C21.8631 37.7901 23.28 35.1156 24.803 32.4952C25.5366 31.2335 26.4606 30.0092 27.0864 28.6956C27.4524 27.9279 27.2812 27.0093 27.258 26.189C27.2041 24.289 27.102 22.3901 27.015 20.4912C26.9088 18.1686 26.7958 15.8407 26.8378 13.5154C26.8569 12.4666 26.6605 9.89807 27.6136 9.32072C28.1269 9.0101 29.0525 9.74219 29.4807 10.0816C30.2678 10.7047 30.977 11.4209 31.6791 12.1276C33.3027 13.7621 34.8489 15.4979 36.6625 16.9507C37.5949 17.6972 38.734 18.6752 40.0068 18.1879C41.2924 17.6961 42.4055 16.844 43.6867 16.3242C45.1611 15.7257 46.6953 15.4775 48.2586 15.1948C49.4141 14.9856 50.4379 14.4983 51.5031 14.0401C52.6805 13.5339 53.8679 13.0095 55.1096 12.6581C55.9298 12.4258 57.4053 12.0508 57.9246 12.8635C58.663 14.0182 58.0651 16.1834 57.8476 17.4997C57.5474 19.3188 57.1651 21.1246 56.8358 22.9387C56.5963 24.2557 56.3337 25.5773 56.3058 26.9162C56.2607 29.0747 56.4167 31.2403 56.562 33.393C56.831 37.3792 57.1958 41.3369 57.1958 45.3365C57.1958 48.8406 52.9184 56.9383 52.1653 58.8338C50.6618 62.6172 49.2365 66.5013 47.2361 70.0815C46.6945 71.0501 45.9729 72.5407 44.8581 73.0504C44.1712 73.3648 43.7741 73.2202 43.3315 73.9618C42.7276 74.9735 42.4905 76.2697 42.2203 77.3896C41.7853 79.1931 41.4169 81.0107 41.023 82.8225C40.2283 86.4871 39.3295 90.1268 38.4646 93.7763C38.2032 94.8795 38.1453 96.2143 37.6847 97.2661C37.3889 97.9441 37.0166 97.8737 36.5672 97.3489C35.7785 96.4284 35.3406 95.1383 34.8908 94.0509C34.2319 92.4577 33.644 90.8384 33.0645 89.2184C32.4849 87.5983 31.9234 85.9699 31.3426 84.3491C30.9603 83.2784 30.6494 82.0575 30.0335 81.0954Z" stroke="#2DD6AE" stroke-width="0.41958"/>
<path fill-rule="evenodd" clip-rule="evenodd" d="M30.4675 78.5586C28.4902 75.2981 26.915 71.6789 25.3782 68.1898C23.4101 63.7245 21.5655 59.158 20.3353 54.4531C19.6134 51.6906 18.8165 48.4313 19.6442 45.6086C19.9396 44.6017 20.6035 43.8493 21.1894 42.9862C21.8581 42.0023 22.4708 40.9805 23.074 39.9588C24.3154 37.8555 25.5145 35.73 26.6712 33.5824C27.2863 32.4448 28.1101 31.1926 28.3236 29.9075C28.4934 28.8858 28.2476 27.7252 28.1761 26.6989C28.0474 24.8507 27.9147 23.0028 27.802 21.1539C27.6721 19.0203 27.5521 16.8807 27.5729 14.7426C27.5845 13.551 27.3931 11.5052 28.2056 10.6625C28.9147 9.9272 31.4791 12.6042 31.9664 13.0749C33.4876 14.5451 34.9361 16.0913 36.5628 17.4597C37.5221 18.2684 38.6888 19.253 39.9602 19.594C41.0438 19.8842 42.2784 19.3242 43.2801 18.9934C44.5347 18.5798 45.8353 18.2461 47.0636 17.7655C48.1579 17.3375 49.1328 16.6563 50.1276 16.058C51.222 15.3999 52.3343 14.7335 53.5282 14.245C54.2628 13.9457 55.4931 13.4503 56.1933 14.0452C57.0007 14.7324 56.4731 16.8508 56.358 17.7216C56.1214 19.488 55.7697 21.2409 55.4547 22.9953C54.9319 25.9091 54.4747 28.6871 54.5842 31.6543C54.7273 35.5184 55.0638 39.3787 55.2501 43.242C55.3196 44.6686 55.4595 46.118 55.384 47.5458C55.3404 48.3643 55.0766 48.9876 54.4815 49.4636C53.6693 50.1138 53.2196 51.6112 52.7536 52.6526C52.0273 54.2764 51.3519 55.9206 50.6676 57.5603C49.1647 61.1599 47.7163 64.8287 45.7725 68.2424C45.1578 69.3225 44.4723 70.5592 43.4567 71.358C42.8904 71.8038 42.3448 71.6914 41.7428 71.9635C40.951 72.3237 40.5937 73.5082 40.3347 74.2162C39.8343 75.5827 39.499 77.0052 39.1848 78.4167C38.4741 81.6106 38.0069 84.812 37.6628 88.0578C37.5828 88.8184 37.3058 91.8136 35.9709 90.2405C34.4956 88.5024 33.7726 85.9927 32.9412 83.9466C32.1938 82.1033 31.4983 80.2585 30.4675 78.5586Z" stroke="#2DD6AE" stroke-width="0.41958"/>
<path fill-rule="evenodd" clip-rule="evenodd" d="M30.8332 74.0529C29.0936 70.9881 27.7959 67.5931 26.5544 64.2923C25.0479 60.287 23.705 56.1812 22.9528 51.9804C22.4807 49.3414 22.118 46.432 22.9025 43.8109C23.4381 42.0209 24.8859 40.6363 25.882 39.0642C26.878 37.492 27.813 35.8562 28.5924 34.1716C29.0761 33.126 29.5633 32.0013 29.4995 30.8379C29.3446 28.0092 28.9755 25.1838 28.7963 22.3521C28.6766 20.4788 28.578 18.6017 28.6076 16.7227C28.6251 15.5896 28.5533 14.033 29.1822 13.0299C29.8778 11.921 35.8167 17.8251 36.4851 18.3831C38.1612 19.7821 40.3856 21.4762 42.7692 21.2058C45.0479 20.947 46.7491 19.8257 48.5346 18.5574C49.5502 17.8376 52.2634 15.5294 53.5843 16.3848C54.3394 16.8735 54.078 18.4842 54.0265 19.2495C53.9251 20.7576 53.7072 22.2574 53.5181 23.7576C53.2439 25.9449 52.8205 28.1925 52.6964 30.3894C52.6102 31.9191 52.7255 33.4579 52.7279 34.9902C52.7311 37.1874 52.7136 39.3847 52.6928 41.5819C52.6753 43.4268 52.6928 45.2872 52.5061 47.1257C52.3911 48.2686 52.1329 49.1361 51.4034 49.9559C50.7689 50.6692 50.3974 51.7455 49.9939 52.6547C49.3279 54.1564 48.7105 55.6777 48.0832 57.1942C46.7695 60.3692 45.4833 63.5805 43.8415 66.6195C43.0925 68.0067 42.0437 70.3392 40.2276 70.6646C39.5727 70.7821 39.2898 70.8684 38.9174 71.4746C38.3891 72.3349 38.1508 73.3653 37.9437 74.3306C37.4609 76.5808 37.5331 78.8962 37.0558 81.1427C36.8591 82.0575 36.4345 83.252 35.4623 82.2076C34.3254 80.9889 33.7005 79.2148 32.9981 77.7548C32.6477 77.0259 32.3197 76.2751 31.8919 75.583C31.5623 75.0515 31.1396 74.5965 30.8332 74.0529Z" stroke="#2DD6AE" stroke-width="0.41958"/>
<path fill-rule="evenodd" clip-rule="evenodd" d="M31.3763 68.2483C29.9634 65.4168 28.9362 62.3418 28.0101 59.322C26.9829 55.9679 26.132 52.5328 25.77 49.0523C25.5192 46.649 25.4452 44.0884 26.2128 41.7558C26.6985 40.2807 27.7197 39.2807 28.5761 38.0113C29.8706 36.0956 30.8963 34.0229 30.6466 31.7213C30.3674 29.141 30.158 26.5523 30.0182 23.9551C29.9338 22.3885 29.8706 20.8158 29.9294 19.2473C29.9662 18.2555 30.0282 16.9779 30.5022 16.1151C31.1371 14.9608 35.9677 19.2968 36.6717 19.8373C38.4178 21.1778 40.2499 22.1604 42.4132 22.7346C44.1785 23.2028 45.5662 22.2463 46.8866 21.2595C47.7067 20.646 49.7692 18.6637 50.834 19.2843C51.4213 19.6247 51.3909 20.7466 51.4209 21.3491C51.4777 22.4974 51.4185 23.6506 51.3925 24.7989C51.3525 26.4946 51.6273 28.2995 51.4061 29.9807C50.9164 33.7067 50.4924 37.4232 50.1568 41.1722C49.972 43.2389 49.804 45.318 49.4476 47.3661C49.3196 48.1014 49.1839 48.8609 48.8943 49.5576C48.7083 50.0058 48.3915 50.2501 48.1315 50.6284C46.8938 52.4318 46.257 54.7859 45.4638 56.817C44.4093 59.5172 43.3713 62.2317 42.1256 64.8601C41.4704 66.2425 40.7175 68.1734 39.3803 69.1246C38.9763 69.4121 38.653 69.2895 38.2646 69.4703C37.8166 69.6784 37.683 70.3104 37.5582 70.7185C37.2746 71.6448 36.8457 75.522 35.1821 73.7353C34.3896 72.8827 33.8812 71.7965 33.2584 70.8354C33.0328 70.4874 32.8059 70.1481 32.5015 69.858C31.9911 69.3727 31.6999 68.8947 31.3763 68.2483Z" stroke="#2DD6AE" stroke-width="0.41958"/>
<path fill-rule="evenodd" clip-rule="evenodd" d="M31.9881 62.0633C29.7023 56.4736 28.1449 49.9228 28.4467 43.8287C28.5474 41.8022 28.8834 39.6217 30.0336 37.865C30.7129 36.8292 31.4798 36.0014 31.7251 34.7571C31.9022 33.8589 31.7012 32.8916 31.6284 31.9881C31.5229 30.6794 31.4286 29.3699 31.3523 28.0593C31.2592 26.4345 31.1873 24.8043 31.2256 23.1765C31.2532 22.0133 31.222 20.4071 31.8814 19.3966C32.6679 18.1902 36.3572 21.261 37.0145 21.693C38.6078 22.7403 40.1516 23.4744 42.0717 23.7397C42.6312 23.8178 43.2047 24.0808 43.7685 24.0467C44.3444 24.0111 44.8571 23.6749 45.3099 23.3645C45.9033 22.9586 47.3108 21.5502 48.0345 21.9534C48.4341 22.1763 48.4845 23.0128 48.5692 23.4463C48.729 24.2597 48.815 25.0848 48.942 25.9031C49.1586 27.2914 49.864 28.6699 49.844 30.0631C49.7912 33.8096 48.5652 37.6103 47.8918 41.2818C47.4902 43.4645 47.1258 45.662 46.5819 47.8182C46.4096 48.5004 46.2314 49.2031 45.9393 49.8516C45.7355 50.3041 45.3722 50.5948 45.144 51.014C44.2677 52.6214 43.7358 54.4698 43.1459 56.1958C42.3787 58.4365 41.6346 60.6848 40.8177 62.91C40.3058 64.3047 39.8554 66.0982 38.9059 67.3C38.2126 68.1778 38.0052 67.5778 37.3594 67.1147C37.0301 66.8782 36.7056 66.9328 36.3328 66.8301C35.8005 66.6834 35.4173 66.2687 35.0728 65.8799C34.5968 65.3436 34.2048 64.6292 33.6214 64.1906C33.4159 64.036 33.161 64.0432 32.982 63.9181C32.4604 63.5543 32.2031 62.5889 31.9881 62.0633Z" stroke="#2DD6AE" stroke-width="0.41958"/>
<path fill-rule="evenodd" clip-rule="evenodd" d="M32.8024 56.1202C31.3653 51.5836 30.547 46.5359 30.9267 41.7405C31.059 40.072 31.3665 38.3933 32.0416 36.8391C32.3479 36.132 32.6892 35.6012 32.7076 34.8264C32.75 33.0286 32.6017 31.225 32.5661 29.4276C32.5405 28.1412 32.5313 26.8485 32.6405 25.5651C32.7132 24.7071 32.8004 23.5467 33.3556 22.8438C34.1644 21.8223 36.9135 23.6663 37.673 24.0416C38.9326 24.6636 40.333 25.2806 41.7905 25.034C42.2362 24.9583 42.63 24.8244 43.0845 24.807C43.4751 24.7903 43.8357 24.8369 44.209 24.7056C44.672 24.5433 45.3903 23.8214 45.8165 24.0696C46.1075 24.2387 46.1211 24.7404 46.2142 25.0741C46.3653 25.6153 46.5634 26.1437 46.8067 26.654C47.0641 27.1912 47.4619 27.6486 47.6745 28.2052C48.0191 29.1086 48.0515 30.1199 48.05 31.0695C48.0435 34.8586 47.2548 38.6956 46.4301 42.3886C46.0007 44.3116 45.543 46.2453 44.8918 48.1143C44.6939 48.6818 44.4953 49.325 44.1299 49.824C43.9024 50.1354 43.6174 50.3465 43.4463 50.7002C41.9856 53.722 41.4431 57.2155 40.3882 60.4234C40.1135 61.2584 38.726 65.8858 37.4208 63.4664C36.6276 61.9965 36.2671 60.4435 35.1821 59.1023C34.8523 58.6937 34.5793 58.4213 34.076 58.2616C33.741 58.1564 33.9109 58.4095 33.5607 58.0562C33.1398 57.6275 32.9699 56.6488 32.8024 56.1202Z" stroke="#2DD6AE" stroke-width="0.41958"/>
<path fill-rule="evenodd" clip-rule="evenodd" d="M33.6522 51.4034C32.4792 46.0921 32.4234 40.4674 33.4633 35.0722C33.7251 33.7121 33.6626 32.2966 33.7291 30.9198C33.7929 29.5821 33.6602 27.2038 34.7455 26.2322C35.5323 25.5277 37.2044 26.2921 38.0844 26.5566C39.2057 26.8935 40.3639 27.1879 41.4529 26.6347C42.0906 26.3107 42.6977 25.8668 43.3294 25.5193C43.6311 25.3532 44.0935 25.011 44.3793 25.1536C44.8508 25.3896 45.0493 26.4936 45.2717 27.0293C45.9824 28.7414 46.1637 30.5545 46.1587 32.385C46.1494 35.7661 45.6615 39.1646 44.9999 42.4811C44.6954 44.007 44.3705 45.5541 43.8412 47.0257C43.5418 47.8585 42.9643 48.4727 42.6219 49.2679C41.5186 51.8283 40.9291 54.5792 39.9203 57.1837C39.6282 57.9375 38.6556 60.7533 37.5089 59.3348C36.3988 57.9614 36.5308 55.9583 35.4865 54.5303C35.3669 54.3687 35.2238 54.1687 35.0305 54.075C34.9149 54.0196 34.6949 54.1171 34.6291 54.075C33.9145 53.6365 33.8009 52.0776 33.6522 51.4034Z" stroke="#2DD6AE" stroke-width="0.41958"/>
<path fill-rule="evenodd" clip-rule="evenodd" d="M34.4274 47.9621C34.033 45.2373 33.9353 42.4525 33.9104 39.6817C33.8968 38.1672 33.795 36.5032 34.1998 35.0213C34.449 34.111 34.667 33.2318 34.8241 32.2934C34.9932 31.2837 35.1163 29.6581 36.0328 29.0432C36.7177 28.5839 38.1255 28.8987 38.9583 28.9154C39.8716 28.9332 40.5489 28.7557 41.2025 28.1447C41.6141 27.7605 43.1081 25.9979 43.5389 26.2016C43.9492 26.3954 44.0122 27.6235 44.1188 28.1545C44.457 29.8329 44.5748 31.5337 44.5564 33.2409C44.5283 35.885 44.2438 38.5389 43.7549 41.1416C43.5517 42.2177 43.3413 43.3298 42.9353 44.3577C42.6616 45.0499 42.1763 45.6272 41.8934 46.3149C41.0819 48.2842 40.5308 50.3665 39.7045 52.3426C39.4388 52.9768 38.7315 55.0432 37.6414 54.5478C36.7313 54.1348 36.4544 52.7299 35.8444 52.0396C34.8041 50.8653 34.6438 49.4596 34.4274 47.9621Z" stroke="#2DD6AE" stroke-width="0.41958"/>
<path fill-rule="evenodd" clip-rule="evenodd" d="M34.9504 46.2458C34.6894 44.0842 34.5752 41.8725 34.5696 39.6792C34.566 38.2637 34.5457 36.7704 34.8814 35.3814C35.0498 34.6837 35.4438 34.0774 35.7248 33.4171C36.0138 32.7371 36.3364 31.7988 36.999 31.5049C37.6218 31.2287 38.5303 31.3319 39.2812 31.0893C39.9474 30.8736 40.3589 30.4222 40.8092 29.936C41.097 29.6263 42.3429 28.0355 42.6179 28.2195C42.9125 28.4167 42.8886 29.3721 42.9293 29.8692C43.0434 31.2389 43.0798 32.6134 43.0383 33.9868C42.9776 35.8612 42.8083 37.75 42.4251 39.5919C42.1537 40.8986 41.507 41.8842 41.0328 43.1024C40.4168 44.6807 39.9298 46.3156 39.256 47.8788C38.9203 48.6577 38.4884 49.8107 37.6218 50.2096C37.2896 50.363 36.445 50.5118 36.1128 50.341C35.7137 50.1359 35.5444 49.3725 35.4418 49.0121C35.1859 48.1092 35.0614 47.1645 34.9504 46.2458Z" stroke="#2DD6AE" stroke-width="0.41958"/>
</svg>
