<svg width="144" height="144" viewBox="0 0 144 144" fill="none" xmlns="http://www.w3.org/2000/svg">
<g clip-path="url(#clip0_105_1223)">
<circle cx="84.355" cy="72.072" r="46.7977" transform="rotate(70.6801 84.355 72.072)" fill="#2DD6AE"/>
<circle cx="10.4524" cy="74.2965" r="7.8198" transform="rotate(70.6801 10.4524 74.2965)" fill="#0A1E25"/>
<path d="M73.4434 99.8155C73.0379 100.454 72.4833 100.673 71.7356 100.527C71.4942 100.775 71.2442 101.005 70.8091 100.956C70.5102 100.923 70.214 101.117 69.9344 101.267C69.5546 101.47 69.1788 101.67 68.705 101.533C68.3838 101.44 68.0752 101.605 67.7927 101.757C67.549 101.889 67.2945 101.924 67.0268 101.979C66.4095 102.104 65.7945 102.189 65.1681 102.214C64.9569 102.223 64.7524 102.266 64.5668 102.36C64.3703 102.459 64.1796 102.473 63.9655 102.434C63.5646 102.361 63.1489 102.497 62.7503 102.36C62.3619 102.637 61.9342 102.404 61.5265 102.446C61.2686 102.472 60.9696 102.548 60.7515 102.286C60.6917 102.215 60.5915 102.208 60.4952 102.238C59.9588 102.402 59.4013 102.281 58.8569 102.354C58.4913 102.403 58.1799 102.166 57.7932 102.166C57.2215 102.166 56.6515 102.189 56.0905 102.253C55.623 102.307 55.2005 102.111 54.7501 102.129C54.5992 101.86 54.3856 102.009 54.1681 102.004C53.5371 101.991 52.9142 101.822 52.273 101.872C52.1699 101.88 52.0537 101.805 51.9535 101.75C51.8504 101.693 51.7291 101.603 51.6346 101.662C51.1654 101.957 50.7508 101.681 50.3163 101.571C49.92 101.47 49.5362 101.291 49.133 101.387C48.9587 101.216 48.9348 100.982 48.6803 100.84C48.5915 100.812 48.4787 100.886 48.4047 101.015C48.3477 101.113 48.2669 101.14 48.1752 101.113C47.5938 100.944 46.9224 101.133 46.4162 100.64C46.2579 100.486 46.0193 100.483 45.7687 100.512C45.3724 100.557 44.9686 100.563 44.5751 100.367C44.2933 100.227 43.9578 100.19 43.6424 100.126C43.2717 100.049 42.9431 99.9099 42.7176 99.543C42.4203 99.7068 42.1476 99.692 41.8708 99.5356C41.7342 99.4582 41.5673 99.4098 41.4101 99.3968C40.458 99.316 39.5475 99.0218 38.6261 98.8085C38.0458 98.6742 37.4314 98.5064 36.9172 98.1235C36.6473 97.9226 36.2828 97.8658 36.022 97.6319C35.8352 97.7144 35.6701 97.7878 35.5328 97.8481C35.2948 97.7844 35.3757 97.488 35.1507 97.4487C35.0932 97.4385 35.0283 97.3127 34.9987 97.3241C34.337 97.5767 33.9361 96.8365 33.3006 96.8923C32.988 96.9196 32.6435 96.7159 32.3752 96.4889C32.1759 96.3205 31.9641 96.2084 31.6925 96.2022C31.5575 96.1993 31.4231 96.1413 31.385 95.9746C31.3052 95.623 31.0894 95.6122 30.8144 95.751C30.7563 95.78 30.6914 95.7965 30.6327 95.8182C30.3844 95.6714 30.0838 95.5883 29.9545 95.338C29.7171 94.8783 29.3856 94.7793 28.9113 95.0188C28.7444 94.6473 28.4506 94.5107 28.1135 94.381C27.3846 94.0994 26.6756 93.7632 25.9689 93.4269C25.7673 93.3308 25.4838 93.1857 25.4433 93.015C25.3141 92.4649 24.8471 92.4199 24.4627 92.2612C24.2093 92.1565 23.9958 92.0382 23.7754 91.8618C23.5266 91.6632 23.2897 91.3805 22.8928 91.368C22.6086 91.3588 22.5346 91.0476 22.403 90.8104C21.751 90.8929 21.4008 90.382 20.9965 90.0145C20.8274 89.8608 20.6691 89.7169 20.4715 89.6003C20.2289 89.4575 19.9618 89.3778 19.8684 89.0097C19.771 88.6234 19.2933 88.6046 18.9607 88.4169C18.8371 88.125 18.6942 87.9014 18.3155 87.7461C17.8503 87.5555 17.4967 87.0947 17.1852 86.6691C17.0172 86.4398 16.8566 86.2305 16.581 86.1338C16.5172 86.1116 16.4329 86.0939 16.3999 86.0456C15.9996 85.4607 15.4062 85.0294 15.0771 84.3883C14.8766 83.9985 14.6329 83.6469 14.3317 83.3209C13.8658 82.8174 13.4302 82.2843 13.0157 81.7376C12.83 81.4924 12.6119 81.2984 12.3796 81.1106C11.9645 80.7744 11.6393 80.3727 11.4258 79.8789C11.3073 79.6052 11.1809 79.3287 10.8535 79.1933C10.8984 78.8184 10.8825 78.4583 10.6963 78.1636C10.7231 78.0816 10.7236 78.0202 10.7532 77.9991C10.9537 77.8575 10.9537 77.4666 11.2714 77.5042C11.6068 77.5434 11.9815 77.6993 12.1615 77.9377C12.4633 78.3365 12.8625 78.6602 13.0868 79.1233C13.3055 79.5745 13.5327 80.0223 13.8471 80.4234C13.9484 80.5531 13.9404 80.7687 13.9906 80.9804C14.5156 81.0702 14.6523 81.5225 14.7975 81.9504C14.851 82.108 14.8891 82.2269 15.044 82.3293C15.4797 82.6183 15.8538 82.9454 16.0787 83.466C16.2296 83.8159 16.5964 84.0776 16.8845 84.3615C17.2079 84.6807 17.5559 84.976 17.8845 85.2906C18.1652 85.5591 18.3486 85.9056 18.7745 86.0456C19.131 86.1628 19.3263 86.5616 19.6389 86.7943C20.279 87.2716 20.8775 87.803 21.5027 88.3003C21.6178 88.3919 21.6998 88.4914 21.7499 88.6211C21.8586 88.9056 22.1382 89.0621 22.3632 89.1127C22.6872 89.1861 22.8728 89.3516 23.0818 89.5741C23.276 89.7806 23.485 89.9775 23.7902 90.0787C24.3893 90.2773 24.8408 90.7717 25.4433 90.9828C25.4644 90.9902 25.4934 91.0016 25.5014 91.0186C25.7958 91.6638 26.5463 91.6917 26.9934 92.1178C27.4056 92.5109 27.884 92.7658 28.384 93.0196C28.6254 93.1425 28.8213 93.3427 29.1174 93.3387C29.2154 93.337 29.3025 93.3689 29.3606 93.4463C29.5952 93.7603 29.9602 93.8826 30.2905 94.0232C31.2449 94.4294 32.205 94.8271 33.214 95.0603C33.3091 95.1827 33.173 95.3437 33.3268 95.4785C33.8245 95.5747 34.382 95.598 34.8495 95.9194C35.5664 95.8142 36.0573 96.4372 36.719 96.498C36.9314 96.5174 37.0043 96.7296 37.1825 96.7734C37.6415 96.8872 38.0509 97.1569 38.5714 97.0874C38.9507 97.0362 39.2673 97.3964 39.6636 97.4043C40.126 97.4134 40.4979 97.8686 41.0087 97.6769C41.065 97.6558 41.163 97.7582 41.2461 97.7935C41.7529 98.0068 42.2598 98.2191 42.7688 98.4256C42.8514 98.4592 42.9488 98.4819 43.0359 98.4739C43.6657 98.4131 44.2363 98.6628 44.8342 98.7823C45.6315 98.941 46.3507 99.3495 47.1906 99.3968C47.7185 99.4263 48.2367 99.675 48.7834 99.7341C49.0214 99.7597 49.1421 100.003 49.3545 100.179C49.5595 99.9839 49.8226 99.9287 50.0914 99.9953C51.1352 100.254 52.2262 100.072 53.2626 100.321C53.8486 100.461 54.479 100.413 55.0251 100.747C55.291 100.91 55.6059 100.823 55.8975 100.746C56.115 100.689 56.2984 100.664 56.5438 100.763C56.8194 100.874 57.1543 101.006 57.4977 100.773C57.6588 100.664 57.9418 100.671 58.0774 100.94C58.1206 101.026 58.2095 101.064 58.2055 101.064C58.5574 101.067 58.5853 100.775 58.8074 100.696C59.0454 100.787 59.2994 100.885 59.5517 100.981C59.9457 100.729 60.354 100.68 60.7657 100.912C60.8944 100.984 61.0043 101.033 61.1518 100.994C61.8272 100.814 62.51 100.728 63.2121 100.789C63.5572 100.819 63.855 100.579 64.2172 100.579C64.7337 100.578 65.2496 100.491 65.7655 100.438C66.7216 100.339 67.6407 100.065 68.5689 99.8354C68.791 99.7802 69.0136 99.733 69.2363 99.6852C70.0056 99.5191 70.7903 99.3911 71.4942 98.9985C71.792 98.8324 72.1399 98.8022 72.4617 98.7055C72.9269 98.5661 73.4377 98.5269 73.8312 98.1616C74.0618 97.9471 74.3539 97.781 74.6438 97.6507C75.7964 97.1324 76.8077 96.3626 77.95 95.8233C78.2695 95.6725 78.5383 95.3829 78.7985 95.1474C79.2244 94.7616 79.6828 94.4163 80.1253 94.0579C80.709 93.5851 81.1367 92.9576 81.7539 92.5229C82.1776 92.2248 82.423 91.7713 82.6685 91.327C82.9572 90.8058 83.1764 90.2358 83.6946 89.8756C83.7948 89.8057 83.821 89.6907 83.8484 89.5764C83.8751 89.4654 83.8922 89.3323 83.964 89.2544C84.6342 88.5238 84.7971 87.547 85.2316 86.705C85.6085 85.9739 85.6928 85.1734 85.9274 84.4104C85.965 84.287 85.9326 84.1425 85.9326 83.9849C85.7014 83.9069 85.5009 83.9724 85.3073 84.0133C84.6183 84.1596 83.9309 84.316 83.2784 84.5885C82.8097 84.7842 82.2995 84.7717 81.8154 84.8969C81.3291 85.0226 80.8212 85.0596 80.3246 85.1478C79.9459 85.2149 79.5473 85.2018 79.1555 85.2485C78.7757 85.2934 78.3748 85.4266 78.0149 85.3782C77.1983 85.269 76.388 85.4027 75.5777 85.3372C75.2588 85.3116 74.9399 85.2502 74.621 85.3469C74.5567 85.3663 74.4786 85.3748 74.4149 85.3577C73.4855 85.1102 72.5266 85.3441 71.5875 85.1853C71.3871 85.1512 71.2242 84.8178 70.9777 85.0761C70.6542 84.8952 70.3558 85.0204 70.0341 85.1108C69.8274 85.1688 69.5836 85.0516 69.4077 84.9054C69.238 84.7638 69.0495 84.6983 68.8417 84.6767C68.2699 84.617 67.7261 84.4474 67.184 84.2694C66.8867 84.1721 66.5747 84.2261 66.2626 84.0919C65.8333 83.9075 65.3276 83.9092 64.8789 83.7596C64.1665 83.5218 63.4211 83.3875 62.7337 83.0746C62.3015 82.8777 61.7879 82.8567 61.4382 82.4801C61.4234 82.4641 61.3955 82.4448 61.3784 82.4482C60.727 82.5978 60.3324 82.0869 59.8324 81.8491C59.4002 81.6437 58.9344 81.5271 58.4988 81.3206C58.185 81.1721 58.0022 80.9269 57.7847 80.697C57.5443 80.4438 57.1548 80.6606 56.8963 80.3875C56.3912 79.8527 55.6817 79.5927 55.1162 79.145C54.7973 78.8924 54.4591 78.6767 54.1282 78.4486C53.8908 78.2847 53.9323 77.986 53.7023 77.7585C52.9922 77.9542 52.6505 77.3033 52.1875 76.9415C51.7456 76.5961 51.2958 76.2093 51.06 75.658C51.0167 75.5573 50.9461 75.4298 50.8562 75.3934C50.2389 75.1436 49.9593 74.6145 49.6466 74.078C49.4041 73.6616 49.3141 73.1006 48.7492 72.9151C48.6866 72.8947 48.653 72.7661 48.6182 72.6824C48.3836 72.1101 48.1148 71.5508 47.9708 70.9455C47.9485 70.8522 47.9298 70.7668 47.8552 70.706C47.5442 70.4528 47.5664 70.0671 47.4406 69.7365C47.157 68.9918 47.2703 68.23 47.2948 67.4864C47.3113 66.9834 47.5682 66.4828 47.7492 65.9929C47.8614 65.6891 48.01 65.4052 47.8956 65.0672C47.8762 65.0109 47.8859 64.9097 47.9241 64.8738C48.4007 64.4226 48.5317 63.7143 49.1097 63.328C49.4149 63.1238 49.7617 62.9303 49.8761 62.515C49.9069 62.4041 50.0732 62.3301 50.1779 62.2408C50.4393 62.0183 50.7155 61.8107 50.9564 61.5683C51.0788 61.4448 51.199 61.3993 51.3596 61.3527C51.7382 61.2434 52.1038 61.1086 52.4147 60.8258C52.6983 60.5681 53.0582 60.3525 53.4392 60.307C54.2188 60.2137 54.9027 59.8422 55.6395 59.6282C56.2357 59.4553 56.8291 59.3523 57.4458 59.267C58.4247 59.1316 59.3973 59.1856 60.3694 59.1133C60.8591 59.0769 61.3397 58.9876 61.8215 59.1424C62.3146 58.8755 62.8499 59.0565 63.363 58.999C63.4541 58.9888 63.5589 58.9597 63.6358 58.991C64.2616 59.2465 64.9301 59.292 65.5844 59.4086C66.0297 59.4877 66.4688 59.6038 66.9107 59.7045C67.0001 59.725 67.0991 59.7295 67.1749 59.7739C67.7551 60.1152 68.4482 60.0891 69.0552 60.3656C69.4054 60.5254 69.8393 60.4344 70.1981 60.6671C70.4065 60.8025 70.6571 60.8827 70.8461 61.0511C70.9361 61.1314 71.0181 61.1962 71.1377 61.2116C71.997 61.3237 72.7082 61.7669 73.4269 62.2084C73.9417 62.5247 74.5322 62.7227 74.9325 63.212C74.9558 63.2404 75.0259 63.262 75.0561 63.2478C75.5458 63.0191 75.7907 63.4475 76.048 63.6791C76.4102 64.0045 76.765 64.3214 77.1943 64.5541C77.7991 64.8812 78.2382 65.4342 78.8412 65.7705C78.9557 65.8342 79.0542 65.94 79.192 65.9542C79.3976 65.9758 79.4978 66.1323 79.6396 66.2478C79.8412 66.4122 79.7352 66.8082 79.9932 66.8327C80.3303 66.8645 80.2825 67.1541 80.4283 67.3037C80.5917 67.4716 80.7546 67.6235 80.9732 67.7139C81.4863 67.9256 81.8109 68.3238 82.0967 68.7869C82.4652 69.3855 82.9128 69.9351 83.2749 70.537C83.743 71.3147 84.3176 72.0191 84.7726 72.8082C84.9577 73.1291 85.1177 73.4323 85.1917 73.7924C85.301 74.3261 85.7646 74.7209 85.7913 75.2899C86.2799 75.5624 86.1307 76.1518 86.4063 76.5267C86.6996 76.9256 86.8551 77.3807 86.9684 77.8495C87.0794 78.3081 87.2423 78.7575 87.2366 79.2405C87.2337 79.4693 87.5088 79.5643 87.494 79.8442C87.4763 80.1781 87.5447 80.5201 87.3824 80.9439C87.9268 80.8239 88.3402 80.8296 88.7844 80.6617C89.4984 80.3926 90.0622 79.8442 90.819 79.6746C91.0553 79.6217 91.2603 79.434 91.4824 79.3134C91.8446 79.1165 92.1766 78.8599 92.5997 78.7865C92.7084 78.7678 92.8235 78.7097 92.9072 78.6375C93.7693 77.8865 94.7795 77.3289 95.6235 76.5529C95.8404 76.3532 96.1804 76.2548 96.3336 76.0238C96.7851 75.3439 97.5681 74.9445 97.8853 74.16C97.9018 74.1196 97.9616 74.0934 97.9707 74.0536C98.0334 73.7828 98.3739 73.9705 98.4639 73.7492C98.5413 73.558 98.5874 73.3464 98.7566 73.2081C98.9593 73.0426 99.0846 72.8525 99.1466 72.5834C99.2218 72.2591 99.5487 72.089 99.7634 71.8569C100.437 71.1287 100.991 70.3293 101.494 69.4759C101.806 68.948 101.963 68.3255 102.396 67.8795C102.934 67.3254 103.196 66.5715 103.809 66.0623C104.06 65.8541 104.129 65.4297 104.286 65.1059C104.523 64.6195 104.769 64.1314 104.97 63.6347C105.262 62.9127 105.619 62.2459 106.03 61.5854C106.295 61.1581 106.543 60.6961 106.704 60.1835C106.942 59.4291 107.213 58.6645 107.658 57.9908C107.753 57.848 107.786 57.6904 107.804 57.5363C107.828 57.3223 107.885 57.1158 108.012 56.9588C108.345 56.5486 108.478 56.0718 108.514 55.5666C108.543 55.1547 108.832 54.8651 108.96 54.4965C109.249 53.663 109.613 52.8551 109.96 52.0432C110.152 51.5955 110.219 51.1113 110.261 50.647C110.323 49.9774 110.502 49.3362 110.708 48.7212C110.966 47.9503 111.047 47.1606 111.193 46.3766C111.313 45.7275 111.431 45.0789 111.703 44.4707C111.787 44.2829 111.825 44.0446 111.819 43.8807C111.788 43.1769 111.919 42.4823 111.881 41.7819C111.874 41.6681 111.877 41.5532 111.887 41.4394C111.938 40.8972 112.002 40.3556 111.955 39.8088C111.943 39.6723 111.927 39.5215 111.97 39.3964C112.313 38.3797 112.233 37.3044 112.424 36.2746C112.531 35.6972 112.499 35.1362 112.544 34.5695C112.559 34.3875 112.549 34.1974 112.512 34.0182C112.353 33.2251 112.405 32.4275 112.436 31.6287C112.451 31.2657 112.439 30.9016 112.439 30.5699C112.118 30.3941 111.949 30.5995 111.763 30.7167C110.779 31.338 109.785 31.945 108.822 32.597C108.258 32.9788 107.725 33.4134 107.219 33.8692C106.969 34.0933 106.71 34.2532 106.402 34.3624C106.153 34.4506 105.852 34.4614 105.783 34.8221C105.757 34.9575 105.591 35.0127 105.44 34.9905C104.861 34.9069 104.444 34.5399 104.134 34.1007C103.845 33.6899 103.9 33.5409 104.273 33.212C104.749 32.7922 105.15 32.2801 105.748 32.0025C105.911 31.9268 106.075 31.8108 106.187 31.6714C106.71 31.0205 107.451 30.6968 108.152 30.3071C108.5 30.1136 108.906 30.0089 109.071 29.5475C109.15 29.3251 109.455 29.2312 109.695 29.1413C110.176 28.9604 110.574 28.6435 110.992 28.3602C111.459 28.0433 111.664 27.5466 111.735 27.0181C111.773 26.7307 111.799 26.4986 112.054 26.3114C112.193 26.2102 112.129 25.9519 112.324 25.8125C112.624 25.7277 112.971 25.7294 113.307 25.6623C113.858 25.5525 114.651 26.2318 114.699 26.8303C114.715 27.0306 114.784 27.1609 114.872 27.319C115.193 27.8965 115.396 28.5422 115.881 29.0235C115.914 29.0554 115.962 29.1021 115.958 29.1351C115.87 29.7609 116.369 30.0653 116.671 30.4857C116.98 30.9141 117.323 31.3044 117.671 31.6992C118.184 32.2835 118.879 32.6807 119.315 33.3457C119.446 33.5443 119.686 33.6928 119.906 33.8066C120.239 33.9784 120.371 34.2623 120.365 34.59C120.36 34.879 120.478 35.1265 120.523 35.3882C120.313 35.9128 119.827 35.8684 119.404 35.9424C119.147 35.9873 118.961 35.8411 118.813 35.6539C118.672 35.4747 118.559 35.3114 118.28 35.2881C118.025 35.267 117.83 35.019 117.716 34.813C117.542 34.4967 117.147 34.3573 117.079 33.967C117.07 33.9158 116.991 33.8527 116.934 33.8379C116.391 33.6979 116.179 33.2348 115.921 32.8161C115.897 32.7774 115.882 32.7307 115.851 32.6989C115.362 32.1954 114.967 31.6196 114.559 31.0529C114.476 30.9374 114.343 30.8823 114.16 30.8646C113.944 31.2242 114.001 31.6623 113.997 32.04C113.993 32.5413 113.997 33.055 114.05 33.5602C114.105 34.0848 114.066 34.6002 114.016 35.1265C113.897 36.356 113.912 37.5991 113.759 38.8229C113.67 39.5397 113.652 40.2589 113.613 40.9717C113.564 41.8536 113.417 42.7223 113.364 43.6036C113.304 44.5941 113.207 45.6017 112.843 46.5507C112.745 46.8062 112.783 47.0793 112.766 47.3421C112.718 48.0464 112.836 48.7969 112.331 49.4335C112.095 49.7299 112.006 50.1259 112.116 50.5424C112.223 50.9486 112.171 51.3463 112.011 51.7513C111.735 52.4494 111.434 53.1452 111.344 53.903C111.339 53.9486 111.348 54.0072 111.323 54.0379C111.034 54.3992 110.72 54.6961 110.796 55.2725C110.855 55.7242 110.55 56.193 110.377 56.6305C110.042 57.4748 109.754 58.3538 109.199 59.0974C109.129 59.1907 109.03 59.2886 109.066 59.4024C109.256 60.0128 108.86 60.398 108.525 60.7928C108.428 60.9072 108.382 60.9789 108.384 61.1353C108.39 61.6542 108.224 62.1498 107.91 62.544C107.372 63.2199 107.129 64.0318 106.764 64.7873C106.645 65.0337 106.589 65.3022 106.31 65.4467C106.196 65.5059 106.088 65.6328 106.041 65.7534C105.903 66.1095 105.77 66.4611 105.432 66.683C105.489 67.1194 105.103 67.4079 105.054 67.8095C105.043 67.8988 105.055 68.053 105.015 68.0678C104.341 68.3227 104.439 69.1636 103.902 69.5163C103.782 69.5954 103.719 69.7137 103.682 69.8554C103.564 70.3162 103.182 70.6081 102.904 70.9534C102.694 71.2152 102.501 71.4996 102.268 71.75C102.114 71.9155 102.018 72.1323 101.793 72.2318C101.68 72.2825 101.636 72.3889 101.599 72.5027C101.513 72.7701 101.395 72.9988 101.102 73.1211C100.91 73.2013 100.82 73.3452 100.904 73.6183C100.946 73.7537 100.73 74.041 100.559 74.1537C100.123 74.4427 99.9296 74.9366 99.5384 75.2614C99.3687 75.4025 99.2799 75.6352 99.0214 75.6756C98.928 75.6904 98.834 75.7683 98.8454 75.8611C98.8875 76.2024 98.5937 76.3703 98.4234 76.5347C97.9593 76.9836 97.6621 77.6367 96.9634 77.8176C96.8557 77.8455 96.7988 77.9075 96.8153 78.0105C96.8375 78.1465 96.7692 78.2119 96.6701 78.2876C96.1536 78.6819 95.6297 79.0693 95.1907 79.554C94.7727 79.5728 94.6098 80.1599 94.1201 80.0348C94.0808 80.0245 94.0153 80.111 93.9641 80.1543C93.2505 80.7573 92.4083 81.1197 91.5337 81.3985C91.0434 81.555 90.7006 81.9373 90.2359 82.1341C90.0053 82.2314 89.9836 82.6234 89.667 82.7264C89.4717 82.7901 89.2804 82.9045 89.0782 82.8977C88.847 82.8897 88.687 82.9472 88.5395 83.1269C88.4171 83.2766 88.2121 83.2896 88.031 83.3141C87.6523 83.3647 87.494 83.5957 87.4086 83.9485C87.2896 84.4412 87.2799 84.947 87.2138 85.4436C87.1062 86.2538 86.846 87.0116 86.539 87.7484C86.0288 88.9727 85.5226 90.2068 84.6923 91.2661C84.5386 91.8828 84.0659 92.3141 83.6354 92.6799C83.1388 93.1021 82.8683 93.6773 82.3986 94.1045C81.947 94.5142 81.4732 94.9079 81.086 95.388C80.8553 95.6742 80.5012 95.8119 80.2215 96.0503C79.5838 96.5936 78.9972 97.195 78.2404 97.62C77.2228 98.1917 76.2155 98.7778 75.1552 99.2676C75.1341 99.2773 75.1107 99.2858 75.0954 99.3017C74.6409 99.758 74.0988 99.9549 73.4434 99.8155ZM75.3106 64.4312C74.924 64.504 74.6068 64.318 74.2662 64.1826C73.6917 63.9533 73.1063 63.7553 72.6052 63.3769C72.5704 63.3508 72.5192 63.3451 72.4748 63.3326C71.7026 63.1147 71.0249 62.754 70.3985 62.2277C69.9379 61.8408 69.2181 61.9353 68.6959 61.5871C68.0308 61.7703 67.4328 61.4557 66.8184 61.3106C66.4602 61.2258 66.0861 61.2867 65.7439 61.1462C65.2171 60.93 64.605 61.029 64.1084 60.7018C64.0759 60.6802 64.0105 60.6774 63.9757 60.6956C63.5441 60.9231 63.1956 60.7007 62.8078 60.5368C62.5549 60.4299 62.2247 60.266 61.9559 60.489C61.7645 60.6478 61.5948 60.6244 61.3847 60.6017C60.9366 60.5533 60.4713 60.6808 60.0408 60.4339C59.9651 60.3906 59.8204 60.4572 59.7111 60.4856C59.5784 60.5198 59.4418 60.6176 59.3193 60.6C58.7106 60.5129 58.1633 60.6546 57.5888 60.864C57.2579 60.9846 56.9014 61.0301 56.5917 61.2366C56.4892 61.3049 56.3029 61.3345 56.1942 61.2895C55.9499 61.1877 55.8041 61.31 55.6344 61.4352C55.5245 61.5165 55.3981 61.628 55.2762 61.6326C54.7449 61.6519 54.2712 61.8556 53.7968 62.0553C53.3139 62.2584 52.7741 62.3631 52.4335 62.8313C52.3436 62.9554 52.1881 63.1033 52.0548 63.1118C51.7069 63.134 51.5338 63.398 51.3379 63.5909C50.8026 64.1177 50.3664 64.7401 49.7953 65.2368C49.6506 65.3625 49.5994 65.5486 49.5476 65.7244C49.49 65.9172 49.3773 66.0965 49.3186 66.2677C49.1444 66.7797 48.7891 67.2434 48.8346 67.8232C48.9024 68.6868 48.9707 69.5465 49.301 70.3663C49.4217 70.6656 49.5994 70.9318 49.7161 71.2294C49.928 71.7693 50.0003 72.3832 50.5475 72.7445C50.6084 72.7843 50.605 72.9123 50.6472 72.9914C50.7218 73.1325 50.7821 73.2946 50.8937 73.401C51.47 73.9517 51.9313 74.6032 52.5155 75.155C52.9973 75.6096 53.479 76.0374 54.032 76.3987C54.3964 76.6371 54.778 76.8766 55.0672 77.1935C55.3622 77.5167 55.6999 77.7585 56.0444 78.0134C56.6566 78.4657 57.3741 78.7228 58.0238 79.1046C58.6827 79.492 59.3148 79.9716 60.0653 80.2038C60.5721 80.3608 60.9753 80.7209 61.4639 80.9104C61.7725 81.0298 62.1062 81.0549 62.3255 81.3809C62.5777 81.7558 63.0333 81.3928 63.355 81.5851C63.4142 81.6204 63.4672 81.6659 63.5258 81.7029C63.6016 81.7507 63.6824 81.8326 63.7741 81.7843C64.0913 81.617 64.3555 81.848 64.6351 81.9049C65.0565 81.9908 65.4557 82.232 65.8754 82.2667C66.3822 82.3094 66.8645 82.3617 67.3565 82.5199C67.9163 82.6997 68.5137 82.7952 69.1013 82.8476C69.7067 82.9016 70.2596 83.3062 70.8979 83.107C70.9179 83.1008 70.9492 83.1053 70.9651 83.1178C71.3609 83.4342 71.841 83.3135 72.2857 83.3687C72.6712 83.4165 73.0522 83.5081 73.4337 83.5451C73.8181 83.5821 74.2628 83.4552 74.5885 83.6299C74.982 83.841 75.3453 83.6811 75.6916 83.6686C76.2844 83.6469 76.9136 83.7471 77.4814 83.4575C77.5918 83.4012 77.7097 83.3978 77.8179 83.4313C78.1949 83.5485 78.5559 83.5963 78.9334 83.3989C79.0872 83.3187 79.2956 83.3079 79.4756 83.3198C80.0883 83.3602 80.6913 83.301 81.2932 83.1998C81.6993 83.1321 82.1628 83.1707 82.4999 82.9819C83.1485 82.6194 83.841 82.4004 84.5425 82.2457C84.9782 82.1495 85.35 81.968 85.7287 81.7763C86.0533 81.6119 86.2509 81.3684 86.2497 80.9553C86.2492 80.6834 86.2133 80.4177 86.2099 80.152C86.2002 79.3845 85.7389 78.7399 85.6695 77.9946C85.6678 77.9747 85.6387 77.9587 85.6319 77.9377C85.4474 77.3454 85.0026 76.8732 84.8609 76.2616C84.764 75.8446 84.5756 75.4662 84.3643 75.0953C84.0112 74.4746 83.6724 73.8459 83.3228 73.2229C83.2436 73.0818 83.1525 72.9493 83.1331 72.7831C83.091 72.4298 82.9145 72.1306 82.7021 71.8637C82.2943 71.3517 82.1041 70.6582 81.4487 70.3504C81.4299 70.3418 81.418 70.3162 81.406 70.2969C81.0763 69.7661 80.6333 69.3382 80.1373 68.9718C79.926 68.816 79.7563 68.6424 79.6333 68.42C79.2068 67.6514 78.4403 67.252 77.7701 66.7655C77.4694 66.547 77.2285 66.369 77.2046 65.9764C76.7718 66.1073 76.56 65.8285 76.359 65.5548C76.3083 65.486 76.2969 65.3455 76.2058 65.3511C75.781 65.3785 75.6466 64.9108 75.3032 64.8943C75.2622 64.7174 75.4251 64.6383 75.3106 64.4312Z" fill="#0A1E25"/>
</g>
<defs>
<clipPath id="clip0_105_1223">
<rect width="144" height="144" fill="white"/>
</clipPath>
</defs>
</svg>
