<svg width="144" height="144" viewBox="0 0 144 144" fill="none" xmlns="http://www.w3.org/2000/svg">
<g clip-path="url(#clip0_105_1224)">
<circle cx="52.2255" cy="56.5892" r="43.2588" transform="rotate(70.6801 52.2255 56.5892)" fill="#0A1E25"/>
<mask id="mask0_105_1224" style="mask-type:alpha" maskUnits="userSpaceOnUse" x="27" y="19" width="111" height="111">
<circle cx="82.5086" cy="74.2336" r="54.7985" transform="rotate(70.6801 82.5086 74.2336)" fill="#0A1E25"/>
</mask>
<g mask="url(#mask0_105_1224)">
<line y1="-0.727273" x2="4.79827" y2="-0.727273" transform="matrix(0.342347 -0.939574 0.939812 0.341693 75.8763 26.163)" stroke="#2DD6AE" stroke-width="1.45455"/>
<line y1="-0.727273" x2="4.79895" y2="-0.727273" transform="matrix(0.500405 -0.865791 0.866259 0.499595 86.1127 26.0132)" stroke="#2DD6AE" stroke-width="1.45455"/>
<line y1="-0.727273" x2="4.7998" y2="-0.727273" transform="matrix(0.643196 -0.765702 0.766387 0.642379 96.4048 25.8632)" stroke="#2DD6AE" stroke-width="1.45455"/>
<line y1="-0.727273" x2="4.80071" y2="-0.727273" transform="matrix(0.766387 -0.642379 0.643196 0.765702 106.768 25.5634)" stroke="#2DD6AE" stroke-width="1.45455"/>
<line y1="-0.727273" x2="4.80156" y2="-0.727273" transform="matrix(0.86626 -0.499594 0.500406 0.865791 117.215 25.1135)" stroke="#2DD6AE" stroke-width="1.45455"/>
<line y1="-0.727273" x2="4.80224" y2="-0.727273" transform="matrix(0.939811 -0.341694 0.342346 0.939574 127.755 24.8136)" stroke="#2DD6AE" stroke-width="1.45455"/>
<line y1="-0.727273" x2="4.79827" y2="-0.727273" transform="matrix(-0.342347 -0.939574 0.939811 -0.341693 35.1133 26.163)" stroke="#2DD6AE" stroke-width="1.45455"/>
<line y1="-0.727273" x2="4.79781" y2="-0.727273" transform="matrix(-0.173831 -0.984776 0.98484 -0.173466 45.3135 26.313)" stroke="#2DD6AE" stroke-width="1.45455"/>
<line x1="54.7667" y1="26.313" x2="54.7667" y2="21.5153" stroke="#2DD6AE" stroke-width="1.45455"/>
<line y1="-0.727273" x2="4.79781" y2="-0.727273" transform="matrix(0.173831 -0.984776 0.98484 0.173466 65.6761 26.313)" stroke="#2DD6AE" stroke-width="1.45455"/>
<line y1="-0.727273" x2="4.79826" y2="-0.727273" transform="matrix(0.342347 -0.939574 0.939811 0.341694 65.0692 34.559)" stroke="#2DD6AE" stroke-width="1.45455"/>
<line y1="-0.727273" x2="4.79896" y2="-0.727273" transform="matrix(0.500406 -0.865791 0.866259 0.499594 75.307 34.4088)" stroke="#2DD6AE" stroke-width="1.45455"/>
<line y1="-0.727273" x2="4.7998" y2="-0.727273" transform="matrix(0.643195 -0.765702 0.766386 0.64238 85.5991 34.2592)" stroke="#2DD6AE" stroke-width="1.45455"/>
<line y1="-0.727273" x2="4.8007" y2="-0.727273" transform="matrix(0.766387 -0.642379 0.643196 0.765702 95.9619 33.959)" stroke="#2DD6AE" stroke-width="1.45455"/>
<line y1="-0.727273" x2="4.80156" y2="-0.727273" transform="matrix(0.86626 -0.499594 0.500406 0.865791 106.408 33.5095)" stroke="#2DD6AE" stroke-width="1.45455"/>
<line y1="-0.727273" x2="4.80224" y2="-0.727273" transform="matrix(0.939811 -0.341693 0.342347 0.939574 116.948 33.2094)" stroke="#2DD6AE" stroke-width="1.45455"/>
<line y1="-0.727273" x2="4.8027" y2="-0.727273" transform="matrix(0.98484 -0.173466 0.173831 0.984776 127.593 32.7599)" stroke="#2DD6AE" stroke-width="1.45455"/>
<line y1="-0.727273" x2="4.79781" y2="-0.727273" transform="matrix(-0.17383 -0.984776 0.98484 -0.173466 34.5078 34.7087)" stroke="#2DD6AE" stroke-width="1.45455"/>
<line x1="43.9611" y1="34.7087" x2="43.9611" y2="29.9111" stroke="#2DD6AE" stroke-width="1.45455"/>
<line y1="-0.727273" x2="4.79781" y2="-0.727273" transform="matrix(0.173831 -0.984776 0.98484 0.173466 54.869 34.7087)" stroke="#2DD6AE" stroke-width="1.45455"/>
<line y1="-0.727273" x2="4.79827" y2="-0.727273" transform="matrix(0.342347 -0.939574 0.939811 0.341694 54.2634 42.9546)" stroke="#2DD6AE" stroke-width="1.45455"/>
<line y1="-0.727273" x2="4.79896" y2="-0.727273" transform="matrix(0.500406 -0.865791 0.86626 0.499594 64.4998 42.8049)" stroke="#2DD6AE" stroke-width="1.45455"/>
<line y1="-0.727273" x2="4.7998" y2="-0.727273" transform="matrix(0.643196 -0.765702 0.766387 0.642379 74.7919 42.6548)" stroke="#2DD6AE" stroke-width="1.45455"/>
<line y1="-0.727273" x2="4.8007" y2="-0.727273" transform="matrix(0.766387 -0.642379 0.643196 0.765702 85.1548 42.3551)" stroke="#2DD6AE" stroke-width="1.45455"/>
<line y1="-0.727273" x2="4.80156" y2="-0.727273" transform="matrix(0.86626 -0.499593 0.500407 0.86579 95.6019 41.9052)" stroke="#2DD6AE" stroke-width="1.45455"/>
<line y1="-0.727273" x2="4.80225" y2="-0.727273" transform="matrix(0.939811 -0.341694 0.342347 0.939574 106.143 41.6053)" stroke="#2DD6AE" stroke-width="1.45455"/>
<line y1="-0.727273" x2="4.80269" y2="-0.727273" transform="matrix(0.98484 -0.173466 0.173831 0.984776 116.787 41.1555)" stroke="#2DD6AE" stroke-width="1.45455"/>
<line x1="33.154" y1="43.1047" x2="33.154" y2="38.3071" stroke="#2DD6AE" stroke-width="1.45455"/>
<line y1="-0.727273" x2="4.79781" y2="-0.727273" transform="matrix(0.17383 -0.984776 0.98484 0.173466 44.0632 43.1047)" stroke="#2DD6AE" stroke-width="1.45455"/>
<line x1="133.541" y1="41.4333" x2="128.738" y2="41.4333" stroke="#2DD6AE" stroke-width="1.45455"/>
<line y1="-0.727273" x2="4.79826" y2="-0.727273" transform="matrix(0.342347 -0.939574 0.939812 0.341693 43.4563 51.3507)" stroke="#2DD6AE" stroke-width="1.45455"/>
<line y1="-0.727273" x2="4.79895" y2="-0.727273" transform="matrix(0.500406 -0.865791 0.86626 0.499594 53.6941 51.2006)" stroke="#2DD6AE" stroke-width="1.45455"/>
<line y1="-0.727273" x2="4.7998" y2="-0.727273" transform="matrix(0.643196 -0.765701 0.766387 0.642379 63.9862 51.0509)" stroke="#2DD6AE" stroke-width="1.45455"/>
<line y1="-0.727273" x2="4.8007" y2="-0.727273" transform="matrix(0.766386 -0.64238 0.643195 0.765702 74.349 50.7511)" stroke="#2DD6AE" stroke-width="1.45455"/>
<line y1="-0.727273" x2="4.80155" y2="-0.727273" transform="matrix(0.866259 -0.499595 0.500405 0.865791 84.7948 50.3013)" stroke="#2DD6AE" stroke-width="1.45455"/>
<line y1="-0.727273" x2="4.80225" y2="-0.727273" transform="matrix(0.939811 -0.341694 0.342347 0.939574 95.3353 50.0015)" stroke="#2DD6AE" stroke-width="1.45455"/>
<line y1="-0.727273" x2="4.8027" y2="-0.727273" transform="matrix(0.98484 -0.173466 0.173831 0.984776 105.98 49.5515)" stroke="#2DD6AE" stroke-width="1.45455"/>
<line y1="-0.727273" x2="4.79781" y2="-0.727273" transform="matrix(0.173831 -0.984776 0.98484 0.173466 33.2561 51.5007)" stroke="#2DD6AE" stroke-width="1.45455"/>
<line x1="122.735" y1="49.829" x2="117.932" y2="49.829" stroke="#2DD6AE" stroke-width="1.45455"/>
<line y1="-0.727273" x2="4.80269" y2="-0.727273" transform="matrix(-0.98484 -0.173466 0.173831 -0.984776 133.487 49.5515)" stroke="#2DD6AE" stroke-width="1.45455"/>
<line y1="-0.727273" x2="4.79827" y2="-0.727273" transform="matrix(0.342347 -0.939574 0.939811 0.341694 32.6506 59.7467)" stroke="#2DD6AE" stroke-width="1.45455"/>
<line y1="-0.727273" x2="4.79896" y2="-0.727273" transform="matrix(0.500406 -0.865791 0.86626 0.499594 42.887 59.5967)" stroke="#2DD6AE" stroke-width="1.45455"/>
<line y1="-0.727273" x2="4.7998" y2="-0.727273" transform="matrix(0.643196 -0.765702 0.766387 0.642379 53.179 59.4465)" stroke="#2DD6AE" stroke-width="1.45455"/>
<line y1="-0.727273" x2="4.8007" y2="-0.727273" transform="matrix(0.766387 -0.642379 0.643196 0.765701 63.5419 59.1467)" stroke="#2DD6AE" stroke-width="1.45455"/>
<line y1="-0.727273" x2="4.80155" y2="-0.727273" transform="matrix(0.86626 -0.499594 0.500406 0.865791 73.989 58.6969)" stroke="#2DD6AE" stroke-width="1.45455"/>
<line y1="-0.727273" x2="4.80225" y2="-0.727273" transform="matrix(0.939812 -0.341693 0.342347 0.939574 84.5297 58.3971)" stroke="#2DD6AE" stroke-width="1.45455"/>
<line y1="-0.727273" x2="4.80269" y2="-0.727273" transform="matrix(0.98484 -0.173466 0.173831 0.984776 95.1742 57.9476)" stroke="#2DD6AE" stroke-width="1.45455"/>
<line x1="111.929" y1="58.225" x2="107.127" y2="58.225" stroke="#2DD6AE" stroke-width="1.45455"/>
<line y1="-0.727273" x2="4.80269" y2="-0.727273" transform="matrix(-0.98484 -0.173466 0.17383 -0.984776 122.681 57.9476)" stroke="#2DD6AE" stroke-width="1.45455"/>
<line y1="-0.727273" x2="4.80225" y2="-0.727273" transform="matrix(-0.939811 -0.341694 0.342347 -0.939574 133.324 58.3971)" stroke="#2DD6AE" stroke-width="1.45455"/>
<line y1="-0.727273" x2="4.79896" y2="-0.727273" transform="matrix(0.500406 -0.865791 0.866259 0.499594 32.0813 67.9927)" stroke="#2DD6AE" stroke-width="1.45455"/>
<line y1="-0.727273" x2="4.7998" y2="-0.727273" transform="matrix(0.643196 -0.765702 0.766387 0.64238 42.3733 67.8427)" stroke="#2DD6AE" stroke-width="1.45455"/>
<line y1="-0.727273" x2="4.80071" y2="-0.727273" transform="matrix(0.766387 -0.642379 0.643196 0.765702 52.7362 67.5428)" stroke="#2DD6AE" stroke-width="1.45455"/>
<line y1="-0.727273" x2="4.80156" y2="-0.727273" transform="matrix(0.866259 -0.499595 0.500405 0.865791 63.1819 67.0929)" stroke="#2DD6AE" stroke-width="1.45455"/>
<line y1="-0.727273" x2="4.80224" y2="-0.727273" transform="matrix(0.939811 -0.341694 0.342347 0.939574 73.7224 66.7931)" stroke="#2DD6AE" stroke-width="1.45455"/>
<line y1="-0.727273" x2="4.80269" y2="-0.727273" transform="matrix(0.98484 -0.173466 0.173831 0.984776 84.3669 66.3433)" stroke="#2DD6AE" stroke-width="1.45455"/>
<line y1="-0.727273" x2="4.80155" y2="-0.727273" transform="matrix(-0.866259 -0.499596 0.500404 -0.865792 133.059 67.0929)" stroke="#2DD6AE" stroke-width="1.45455"/>
<line x1="101.122" y1="66.6207" x2="96.3195" y2="66.6207" stroke="#2DD6AE" stroke-width="1.45455"/>
<line y1="-0.727273" x2="4.80269" y2="-0.727273" transform="matrix(-0.98484 -0.173466 0.173831 -0.984776 111.874 66.3433)" stroke="#2DD6AE" stroke-width="1.45455"/>
<line y1="-0.727273" x2="4.80225" y2="-0.727273" transform="matrix(-0.939811 -0.341694 0.342347 -0.939574 122.518 66.7931)" stroke="#2DD6AE" stroke-width="1.45455"/>
<line y1="-0.727273" x2="4.79981" y2="-0.727273" transform="matrix(0.643195 -0.765702 0.766386 0.64238 31.5662 76.2386)" stroke="#2DD6AE" stroke-width="1.45455"/>
<line y1="-0.727273" x2="4.8007" y2="-0.727273" transform="matrix(0.766387 -0.642379 0.643196 0.765701 41.929 75.9385)" stroke="#2DD6AE" stroke-width="1.45455"/>
<line y1="-0.727273" x2="4.80156" y2="-0.727273" transform="matrix(0.866259 -0.499595 0.500405 0.865791 52.3762 75.489)" stroke="#2DD6AE" stroke-width="1.45455"/>
<line y1="-0.727273" x2="4.80224" y2="-0.727273" transform="matrix(0.939811 -0.341694 0.342347 0.939574 62.9167 75.1892)" stroke="#2DD6AE" stroke-width="1.45455"/>
<line y1="-0.727273" x2="4.80269" y2="-0.727273" transform="matrix(0.98484 -0.173466 0.173831 0.984776 73.5613 74.7393)" stroke="#2DD6AE" stroke-width="1.45455"/>
<line y1="-0.727273" x2="4.80156" y2="-0.727273" transform="matrix(-0.866259 -0.499595 0.500405 -0.865791 122.253 75.489)" stroke="#2DD6AE" stroke-width="1.45455"/>
<line y1="-0.727273" x2="4.8007" y2="-0.727273" transform="matrix(-0.766387 -0.642379 0.643196 -0.765702 132.699 75.9385)" stroke="#2DD6AE" stroke-width="1.45455"/>
<line x1="90.3165" y1="75.0167" x2="85.5137" y2="75.0167" stroke="#2DD6AE" stroke-width="1.45455"/>
<line y1="-0.727273" x2="4.8027" y2="-0.727273" transform="matrix(-0.98484 -0.173466 0.173831 -0.984776 101.068 74.7393)" stroke="#2DD6AE" stroke-width="1.45455"/>
<line y1="-0.727273" x2="4.80225" y2="-0.727273" transform="matrix(-0.939811 -0.341694 0.342347 -0.939574 111.713 75.1892)" stroke="#2DD6AE" stroke-width="1.45455"/>
<line y1="-0.727273" x2="4.8007" y2="-0.727273" transform="matrix(0.766387 -0.642379 0.643196 0.765701 31.1233 84.3345)" stroke="#2DD6AE" stroke-width="1.45455"/>
<line y1="-0.727273" x2="4.80156" y2="-0.727273" transform="matrix(0.866259 -0.499595 0.500405 0.865791 41.569 83.8846)" stroke="#2DD6AE" stroke-width="1.45455"/>
<line y1="-0.727273" x2="4.80224" y2="-0.727273" transform="matrix(0.939811 -0.341694 0.342347 0.939574 52.1096 83.5848)" stroke="#2DD6AE" stroke-width="1.45455"/>
<line y1="-0.727273" x2="4.80269" y2="-0.727273" transform="matrix(0.98484 -0.173466 0.173831 0.984776 62.7542 83.135)" stroke="#2DD6AE" stroke-width="1.45455"/>
<line y1="-0.727273" x2="4.80156" y2="-0.727273" transform="matrix(-0.866259 -0.499595 0.500405 -0.865791 111.446 83.8846)" stroke="#2DD6AE" stroke-width="1.45455"/>
<line y1="-0.727273" x2="4.8007" y2="-0.727273" transform="matrix(-0.766387 -0.642379 0.643196 -0.765702 121.893 84.3345)" stroke="#2DD6AE" stroke-width="1.45455"/>
<line y1="-0.727273" x2="4.79981" y2="-0.727273" transform="matrix(-0.643195 -0.765702 0.766386 -0.64238 132.255 84.6343)" stroke="#2DD6AE" stroke-width="1.45455"/>
<line x1="79.5094" y1="83.4128" x2="74.7066" y2="83.4128" stroke="#2DD6AE" stroke-width="1.45455"/>
<line y1="-0.727273" x2="4.8027" y2="-0.727273" transform="matrix(-0.98484 -0.173466 0.173831 -0.984776 90.2609 83.135)" stroke="#2DD6AE" stroke-width="1.45455"/>
<line y1="-0.727273" x2="4.80224" y2="-0.727273" transform="matrix(-0.939811 -0.341694 0.342346 -0.939574 100.905 83.5848)" stroke="#2DD6AE" stroke-width="1.45455"/>
<line y1="-0.727273" x2="4.80155" y2="-0.727273" transform="matrix(0.866259 -0.499595 0.500405 0.865791 30.7633 92.2808)" stroke="#2DD6AE" stroke-width="1.45455"/>
<line y1="-0.727273" x2="4.80224" y2="-0.727273" transform="matrix(0.939811 -0.341694 0.342347 0.939574 41.3038 91.981)" stroke="#2DD6AE" stroke-width="1.45455"/>
<line y1="-0.727273" x2="4.8027" y2="-0.727273" transform="matrix(0.98484 -0.173466 0.173831 0.984776 51.9484 91.531)" stroke="#2DD6AE" stroke-width="1.45455"/>
<line y1="-0.727273" x2="4.80156" y2="-0.727273" transform="matrix(-0.866259 -0.499595 0.500405 -0.865791 100.64 92.2808)" stroke="#2DD6AE" stroke-width="1.45455"/>
<line y1="-0.727273" x2="4.80071" y2="-0.727273" transform="matrix(-0.766387 -0.642379 0.643196 -0.765702 111.086 92.7306)" stroke="#2DD6AE" stroke-width="1.45455"/>
<line y1="-0.727273" x2="4.7998" y2="-0.727273" transform="matrix(-0.643195 -0.765702 0.766386 -0.64238 121.449 93.0304)" stroke="#2DD6AE" stroke-width="1.45455"/>
<line y1="-0.727273" x2="4.79895" y2="-0.727273" transform="matrix(-0.500405 -0.865791 0.866259 -0.499595 131.741 93.1801)" stroke="#2DD6AE" stroke-width="1.45455"/>
<line x1="68.7037" y1="91.8084" x2="63.9009" y2="91.8084" stroke="#2DD6AE" stroke-width="1.45455"/>
<line y1="-0.727273" x2="4.80269" y2="-0.727273" transform="matrix(-0.98484 -0.173466 0.173831 -0.984776 79.4552 91.531)" stroke="#2DD6AE" stroke-width="1.45455"/>
<line y1="-0.727273" x2="4.80224" y2="-0.727273" transform="matrix(-0.939811 -0.341694 0.342347 -0.939574 90.0997 91.981)" stroke="#2DD6AE" stroke-width="1.45455"/>
<line y1="-0.727273" x2="4.80224" y2="-0.727273" transform="matrix(0.939811 -0.341694 0.342347 0.939574 30.4967 100.377)" stroke="#2DD6AE" stroke-width="1.45455"/>
<line y1="-0.727273" x2="4.80269" y2="-0.727273" transform="matrix(0.98484 -0.173466 0.173831 0.984776 41.1412 99.9271)" stroke="#2DD6AE" stroke-width="1.45455"/>
<line y1="-0.727273" x2="4.80155" y2="-0.727273" transform="matrix(-0.86626 -0.499594 0.500407 -0.865791 89.8331 100.677)" stroke="#2DD6AE" stroke-width="1.45455"/>
<line y1="-0.727273" x2="4.80071" y2="-0.727273" transform="matrix(-0.766387 -0.642379 0.643196 -0.765702 100.28 101.126)" stroke="#2DD6AE" stroke-width="1.45455"/>
<line y1="-0.727273" x2="4.7998" y2="-0.727273" transform="matrix(-0.643197 -0.765701 0.766388 -0.642378 110.643 101.426)" stroke="#2DD6AE" stroke-width="1.45455"/>
<line y1="-0.727273" x2="4.79896" y2="-0.727273" transform="matrix(-0.500404 -0.865792 0.866259 -0.499596 120.935 101.576)" stroke="#2DD6AE" stroke-width="1.45455"/>
<line y1="-0.727273" x2="4.79826" y2="-0.727273" transform="matrix(-0.342347 -0.939574 0.939812 -0.341693 131.172 101.726)" stroke="#2DD6AE" stroke-width="1.45455"/>
<line x1="57.8965" y1="100.204" x2="53.0936" y2="100.204" stroke="#2DD6AE" stroke-width="1.45455"/>
<line y1="-0.727273" x2="4.80269" y2="-0.727273" transform="matrix(-0.98484 -0.173466 0.173831 -0.984776 68.6479 99.9271)" stroke="#2DD6AE" stroke-width="1.45455"/>
<line y1="-0.727273" x2="4.80224" y2="-0.727273" transform="matrix(-0.939811 -0.341694 0.342347 -0.939574 79.2925 100.377)" stroke="#2DD6AE" stroke-width="1.45455"/>
<line y1="-0.727273" x2="4.80269" y2="-0.727273" transform="matrix(0.98484 -0.173466 0.173831 0.984776 30.3356 108.323)" stroke="#2DD6AE" stroke-width="1.45455"/>
<line y1="-0.727273" x2="4.80155" y2="-0.727273" transform="matrix(-0.866259 -0.499595 0.500405 -0.865792 79.0273 109.072)" stroke="#2DD6AE" stroke-width="1.45455"/>
<line y1="-0.727273" x2="4.80071" y2="-0.727273" transform="matrix(-0.766387 -0.64238 0.643196 -0.765702 89.4731 109.522)" stroke="#2DD6AE" stroke-width="1.45455"/>
<line y1="-0.727273" x2="4.7998" y2="-0.727273" transform="matrix(-0.643197 -0.765701 0.766388 -0.642378 99.8359 109.822)" stroke="#2DD6AE" stroke-width="1.45455"/>
<line y1="-0.727273" x2="4.79896" y2="-0.727273" transform="matrix(-0.500406 -0.865791 0.86626 -0.499594 110.128 109.972)" stroke="#2DD6AE" stroke-width="1.45455"/>
<line y1="-0.727273" x2="4.79826" y2="-0.727273" transform="matrix(-0.342347 -0.939574 0.939811 -0.341694 120.366 110.122)" stroke="#2DD6AE" stroke-width="1.45455"/>
<line y1="-0.727273" x2="4.79782" y2="-0.727273" transform="matrix(-0.173831 -0.984775 0.98484 -0.173465 130.566 110.272)" stroke="#2DD6AE" stroke-width="1.45455"/>
<line x1="47.0908" y1="108.6" x2="42.288" y2="108.6" stroke="#2DD6AE" stroke-width="1.45455"/>
<line y1="-0.727273" x2="4.80269" y2="-0.727273" transform="matrix(-0.98484 -0.173466 0.173831 -0.984776 57.8423 108.323)" stroke="#2DD6AE" stroke-width="1.45455"/>
<line y1="-0.727273" x2="4.80224" y2="-0.727273" transform="matrix(-0.939812 -0.341693 0.342348 -0.939573 68.4868 108.773)" stroke="#2DD6AE" stroke-width="1.45455"/>
<line y1="-0.727273" x2="4.80155" y2="-0.727273" transform="matrix(-0.86626 -0.499594 0.500406 -0.865791 68.2202 117.469)" stroke="#2DD6AE" stroke-width="1.45455"/>
<line y1="-0.727273" x2="4.80072" y2="-0.727273" transform="matrix(-0.766385 -0.642381 0.643194 -0.765703 78.6675 117.918)" stroke="#2DD6AE" stroke-width="1.45455"/>
<line y1="-0.727273" x2="4.7998" y2="-0.727273" transform="matrix(-0.643195 -0.765702 0.766386 -0.64238 89.0303 118.218)" stroke="#2DD6AE" stroke-width="1.45455"/>
<line y1="-0.727273" x2="4.79895" y2="-0.727273" transform="matrix(-0.500407 -0.86579 0.86626 -0.499593 99.3224 118.368)" stroke="#2DD6AE" stroke-width="1.45455"/>
<line y1="-0.727273" x2="4.79827" y2="-0.727273" transform="matrix(-0.342346 -0.939574 0.939811 -0.341694 109.559 118.518)" stroke="#2DD6AE" stroke-width="1.45455"/>
<line y1="-0.727273" x2="4.79781" y2="-0.727273" transform="matrix(-0.173829 -0.984776 0.984839 -0.173468 119.759 118.668)" stroke="#2DD6AE" stroke-width="1.45455"/>
<line x1="129.212" y1="118.668" x2="129.212" y2="113.87" stroke="#2DD6AE" stroke-width="1.45455"/>
<line x1="36.2836" y1="116.996" x2="31.4807" y2="116.996" stroke="#2DD6AE" stroke-width="1.45455"/>
<line y1="-0.727273" x2="4.80269" y2="-0.727273" transform="matrix(-0.98484 -0.173465 0.173832 -0.984775 47.035 116.719)" stroke="#2DD6AE" stroke-width="1.45455"/>
<line y1="-0.727273" x2="4.80224" y2="-0.727273" transform="matrix(-0.939811 -0.341694 0.342347 -0.939574 57.6796 117.169)" stroke="#2DD6AE" stroke-width="1.45455"/>
<line y1="-0.727273" x2="4.80155" y2="-0.727273" transform="matrix(-0.866259 -0.499595 0.500405 -0.865791 57.4146 125.864)" stroke="#2DD6AE" stroke-width="1.45455"/>
<line y1="-0.727273" x2="4.80071" y2="-0.727273" transform="matrix(-0.766386 -0.64238 0.643195 -0.765703 67.8602 126.314)" stroke="#2DD6AE" stroke-width="1.45455"/>
<line y1="-0.727273" x2="4.7998" y2="-0.727273" transform="matrix(-0.643197 -0.765701 0.766388 -0.642378 78.223 126.614)" stroke="#2DD6AE" stroke-width="1.45455"/>
<line y1="-0.727273" x2="4.79895" y2="-0.727273" transform="matrix(-0.500406 -0.865791 0.86626 -0.499594 88.5151 126.764)" stroke="#2DD6AE" stroke-width="1.45455"/>
<line y1="-0.727273" x2="4.79827" y2="-0.727273" transform="matrix(-0.342344 -0.939575 0.939811 -0.341696 98.7529 126.914)" stroke="#2DD6AE" stroke-width="1.45455"/>
<line y1="-0.727273" x2="4.79781" y2="-0.727273" transform="matrix(-0.173829 -0.984776 0.98484 -0.173468 108.953 127.064)" stroke="#2DD6AE" stroke-width="1.45455"/>
<line x1="118.407" y1="127.064" x2="118.407" y2="122.266" stroke="#2DD6AE" stroke-width="1.45455"/>
<line y1="-0.727273" x2="4.79781" y2="-0.727273" transform="matrix(0.173832 -0.984775 0.98484 0.173465 129.314 127.064)" stroke="#2DD6AE" stroke-width="1.45455"/>
<line y1="-0.727273" x2="4.80269" y2="-0.727273" transform="matrix(-0.98484 -0.173467 0.173829 -0.984776 36.2294 125.115)" stroke="#2DD6AE" stroke-width="1.45455"/>
<line y1="-0.727273" x2="4.80224" y2="-0.727273" transform="matrix(-0.939811 -0.341694 0.342347 -0.939574 46.8739 125.564)" stroke="#2DD6AE" stroke-width="1.45455"/>
</g>
</g>
<defs>
<clipPath id="clip0_105_1224">
<rect width="144" height="144" fill="white"/>
</clipPath>
</defs>
</svg>
