<?xml version="1.0" encoding="UTF-8"?>
<svg width="752pt" height="752pt" version="1.1" viewBox="0 0 752 752" xmlns="http://www.w3.org/2000/svg">
 <path d="m218.4 353.96c0 2.7461-2.2227 4.9688-4.9648 4.9688s-4.9648-2.2266-4.9648-4.9688c0-2.7422 2.2227-4.9648 4.9648-4.9648 2.7422-0.003907 4.9648 2.2227 4.9648 4.9648zm66.598-5.4414c-29.285-3.1914-44 8.4141-80.352 35.398-31.125 23.105-36.988 4.9453-35.84-2.9492 1.6914-11.605 28.473-66.121 54.273-99.859 31.914 8.2812 56.293 34.684 61.918 67.41zm-63.121 5.4414c0-4.6641-3.7812-8.4414-8.4414-8.4414s-8.4414 3.7773-8.4414 8.4414c0 4.6641 3.7812 8.4453 8.4414 8.4453s8.4414-3.7812 8.4414-8.4453zm-16.969 54.664-0.26562 15.848 23.043 25.609-11.082 8.3008 37.598 31.035-13.273 9.1719 48.125 22.508-12.219 11.004 54.512 9.1172-8.4961 11.637 55.039-5.1133-4.5117 13.234 60.863-20.492-3.1172 15.078 54.27-38.77 1.668 15.309 38.48-54.836 8.4414 16.035 17.145-66.477 11.73 9.6328-2.4141-65.344 15.594 5.7891-23.797-57.801 15.133 0.054688-38.039-47.559 17.285-1.543-53.086-37.062 16.09-9.4805-61.879-16.57 10.449-13.203-56.02 0.39844 0.67578-15.055-43.5 15.898-1.8047-14.324-33.844 24.191-7.2773-12.25-25.5 29.918-7.9258-10.805-21.359 34.195-10.832-9.8711-18.914 34.02c35.57 11.512 62.062 42.84 66.746 80.766 0.45703 0.097656-25.254 35.285 12.367 65.305-0.64844-3.3711-6.9023-60.848 53.617-65.031 30.105-2.082 54.637 24.457 54.637 54.637 0 9.2383-2.3125 17.93-6.3633 25.559-17.98 33.426-73.215 34.719-90.793 34.539-50.973-0.51953-117.46-58.16-117.46-58.16z"/>
</svg>
