<!-- <svg xmlns="http://www.w3.org/2000/svg" width="543.654" height="435.43" viewBox="0 0 543.654 435.43"><defs><style>.a{fill:#e1f3fc;}.b{fill:#c28064;}.c{fill:#a35c41;}.d{fill:#63c7c8;}.e{fill:#4b6cb0;}.f{fill:#3f5998;}.g{fill:#3f3a70;}.h{fill:#3a3359;}.i{fill:#fefefe;}.j{fill:#37375f;}.k{fill:#cf7476;}.l{fill:#6ec9eb;}.m{fill:#61a0d3;}.n{fill:#8fd7ef;}.o,.s{fill:none;stroke-linecap:round;stroke-miterlimit:10;stroke-width:1.22px;}.o{stroke:#a35c41;}.p{fill:#e7eff4;}.q{fill:#77a5d5;}.r{fill:#fbe56f;}.s{stroke:#cf7476;}.t{fill:#42beb5;}.u{fill:#ffcc3e;}.v{fill:#b8d8e3;}</style></defs><g transform="translate(-0.004 0.01)"><path class="a" d="M76.83,428.26s-39.96-45.11-54.97-85.03C4.62,297.41,8.14,246.08,33.68,215.93c36.49-43.07,99.59-41.98,136.32-33.26,53.46,12.69,98.08-9.04,127.22-54.99,34.6-54.56,83.76-99.32,154.87-78.83s106.72,85.66,85.46,190.12c-18.31,89.95-76.58,189.29-76.58,189.29H76.84Z"/>
    <path class="v" d="M29.5,428.26H1.22c-12.9,0,76.77,7.16,273.17,7.16s286.61-7.65,264.02-7.65-508.9.49-508.9.49Z"/></g></svg> -->

<!-- <svg xmlns="http://www.w3.org/2000/svg" fill="#dba5fc" width="543.654" height="435.43" viewBox="0 0 543.654 435.43"><defs><style>.a{fill: #d5fc;}.v{fill: #5fc;}</style></defs><g transform="translate(-0.004 0.01)"><path class="a" d="M76.83,428.26s-39.96-45.11-54.97-85.03C4.62,297.41,8.14,246.08,33.68,215.93c36.49-43.07,99.59-41.98,136.32-33.26,53.46,12.69,98.08-9.04,127.22-54.99,34.6-54.56,83.76-99.32,154.87-78.83s106.72,85.66,85.46,190.12c-18.31,89.95-76.58,189.29-76.58,189.29H76.84Z"/>
                <path class="v" d="M29.5,428.26H1.22c-12.9,0,76.77,7.16,273.17,7.16s286.61-7.65,264.02-7.65-508.9.49-508.9.49Z"/></g></svg> -->

<svg xmlns="http://www.w3.org/2000/svg" width="543.654" height="435.43" viewBox="0 0 543.654 435.43"><defs><style>.a{fill: #dba5fc;}.b{fill:#c28064;}.c{fill:#a35c41;}.d{fill:#63c7c8;}.e{fill:#4b6cb0;}.f{fill:#3f5998;}.g{fill:#3f3a70;}.h{fill:#3a3359;}.i{fill:#fefefe;}.j{fill:#37375f;}.k{fill:#cf7476;}.l{fill:#6ec9eb;}.m{fill:#61a0d3;}.n{fill:#8fd7ef;}.o,.s{fill:none;stroke-linecap:round;stroke-miterlimit:10;stroke-width:1.22px;}.o{stroke:#a35c41;}.p{fill:#e7eff4;}.q{fill:#77a5d5;}.r{fill:#fbe56f;}.s{stroke:#cf7476;}.t{fill:#42beb5;}.u{fill:#ffcc3e;}.v{fill: #dba5fc;}</style></defs><g transform="translate(-0.004 0.01)"><path class="a" d="M76.83,428.26s-39.96-45.11-54.97-85.03C4.62,297.41,8.14,246.08,33.68,215.93c36.49-43.07,99.59-41.98,136.32-33.26,53.46,12.69,98.08-9.04,127.22-54.99,34.6-54.56,83.76-99.32,154.87-78.83s106.72,85.66,85.46,190.12c-18.31,89.95-76.58,189.29-76.58,189.29H76.84Z"/>
<path class="v" d="M29.5,428.26H1.22c-12.9,0,76.77,7.16,273.17,7.16s286.61-7.65,264.02-7.65-508.9.49-508.9.49Z"/></g></svg>